<svg width="38" height="35" viewBox="0 0 38 35" fill="none" xmlns="http://www.w3.org/2000/svg">
<path d="M23.5 17.0159H3.5C2.11929 17.0159 1 18.2446 1 19.7604V30.7383C1 32.2541 2.11929 33.4828 3.5 33.4828H23.5C24.8807 33.4828 26 32.2541 26 30.7383V19.7604C26 18.2446 24.8807 17.0159 23.5 17.0159Z" stroke="white" stroke-width="2" stroke-linecap="round" stroke-linejoin="round"/>
<path d="M6 24.7402H11M8.5 22.015V27.4653" stroke="white" stroke-width="2" stroke-linecap="round" stroke-linejoin="round"/>
<path d="M17.25 23.3776V23.3905" stroke="white" stroke-width="2" stroke-linecap="round" stroke-linejoin="round"/>
<path d="M21 26.1028V26.1157" stroke="white" stroke-width="2" stroke-linecap="round" stroke-linejoin="round"/>
<path d="M15.12 4.04C15.3013 3.37867 15.6587 2.84 16.192 2.424C16.736 2.008 17.3493 1.8 18.032 1.8H23.536C23.6427 1.8 23.7333 1.83733 23.808 1.912C23.8827 1.976 23.92 2.06133 23.92 2.168V12.632C23.92 12.7387 23.8827 12.8293 23.808 12.904C23.7333 12.968 23.6427 13 23.536 13H22.048C21.9413 13 21.8507 12.968 21.776 12.904C21.712 12.8293 21.68 12.7387 21.68 12.632V4.408C21.68 4.30133 21.6427 4.216 21.568 4.152C21.4933 4.07733 21.4027 4.04 21.296 4.04H17.808C17.552 4.04 17.3973 4.16267 17.344 4.408L15.136 12.632C15.0613 12.8773 14.9013 13 14.656 13H13.088C12.992 13 12.9173 12.9627 12.864 12.888C12.8 12.824 12.784 12.7387 12.816 12.632L15.12 4.04ZM25.5188 12.632V2.168C25.5188 2.06133 25.5508 1.976 25.6148 1.912C25.6894 1.83733 25.7801 1.8 25.8868 1.8H27.3908C27.4974 1.8 27.5828 1.83733 27.6468 1.912C27.7214 1.976 27.7588 2.06133 27.7588 2.168V5.912C27.7588 6.01867 27.7908 6.10933 27.8548 6.184C27.9294 6.248 28.0201 6.28 28.1268 6.28H29.5188C29.7748 6.28 29.9774 6.184 30.1268 5.992L33.5188 2.088C33.6681 1.896 33.8708 1.8 34.1267 1.8H36.3508C36.4254 1.8 36.4734 1.832 36.4948 1.896C36.5161 1.94933 36.5108 2.01333 36.4788 2.088L32.1268 7.112C31.9561 7.304 31.9561 7.496 32.1268 7.688L36.4788 12.712C36.5108 12.7867 36.5161 12.8507 36.4948 12.904C36.4734 12.968 36.4254 13 36.3508 13H34.1267C33.8708 13 33.6681 12.904 33.5188 12.712L30.1268 8.808C29.9774 8.616 29.7748 8.52 29.5188 8.52H28.1268C28.0201 8.52 27.9294 8.55733 27.8548 8.632C27.7908 8.696 27.7588 8.78133 27.7588 8.888V12.632C27.7588 12.7387 27.7214 12.8293 27.6468 12.904C27.5828 12.968 27.4974 13 27.3908 13H25.8868C25.7801 13 25.6894 12.968 25.6148 12.904C25.5508 12.8293 25.5188 12.7387 25.5188 12.632Z" fill="white"/>
</svg>
