<svg width="44" height="44" viewBox="0 0 44 44" fill="none" xmlns="http://www.w3.org/2000/svg">
<g clip-path="url(#clip0_233_62)">
<path d="M29.3333 5.5C31.7645 5.5 34.0961 6.46577 35.8151 8.18485C37.5342 9.90394 38.5 12.2355 38.5 14.6667V29.3333C38.5 31.7645 37.5342 34.0961 35.8151 35.8151C34.0961 37.5342 31.7645 38.5 29.3333 38.5H14.6667C12.2355 38.5 9.90394 37.5342 8.18485 35.8151C6.46577 34.0961 5.5 31.7645 5.5 29.3333V14.6667C5.5 12.2355 6.46577 9.90394 8.18485 8.18485C9.90394 6.46577 12.2355 5.5 14.6667 5.5H29.3333ZM22 14.6667C20.1186 14.6667 18.3091 15.3898 16.9458 16.6865C15.5826 17.9832 14.7699 19.7542 14.6758 21.6333L14.6667 22C14.6667 23.4504 15.0968 24.8682 15.9026 26.0742C16.7084 27.2801 17.8537 28.2201 19.1937 28.7751C20.5336 29.3302 22.0081 29.4754 23.4307 29.1924C24.8532 28.9095 26.1599 28.211 27.1854 27.1854C28.211 26.1599 28.9095 24.8532 29.1924 23.4307C29.4754 22.0081 29.3302 20.5336 28.7751 19.1937C28.2201 17.8537 27.2801 16.7084 26.0742 15.9026C24.8682 15.0968 23.4504 14.6667 22 14.6667ZM30.25 11.9167C29.801 11.9167 29.3675 12.0816 29.032 12.38C28.6964 12.6784 28.482 13.0895 28.4295 13.5355L28.4167 13.7683C28.4172 14.2356 28.5961 14.6851 28.9169 15.0248C29.2377 15.3646 29.6761 15.5691 30.1426 15.5965C30.609 15.6239 31.0684 15.4721 31.4267 15.1722C31.785 14.8723 32.0153 14.4468 32.0705 13.9828L32.0833 13.75C32.0833 13.2638 31.8902 12.7975 31.5464 12.4536C31.2025 12.1098 30.7362 11.9167 30.25 11.9167Z" fill="white"/>
</g>
<defs>
<clipPath id="clip0_233_62">
<rect width="44" height="44" fill="white"/>
</clipPath>
</defs>
</svg>
