<svg width="44" height="44" viewBox="0 0 44 44" fill="none" xmlns="http://www.w3.org/2000/svg">
<g clip-path="url(#clip0_233_65)">
<path d="M25.6667 34.8333H18.3334C14.4436 34.8333 10.713 33.2881 7.96252 30.5376C5.21198 27.787 3.66675 24.0565 3.66675 20.1667V11H11.0001V20.1667C11.0001 22.1116 11.7727 23.9769 13.148 25.3521C14.5232 26.7274 16.3885 27.5 18.3334 27.5V11H25.6667V19.25H25.7217C27.7311 18.9993 29.5797 18.0232 30.92 16.5054C32.2603 14.9875 33 13.0323 33.0001 11.0073H40.3334L39.7064 14.1442C39.3309 16.0217 38.5315 17.7886 37.3693 19.3102C36.207 20.8317 34.7126 22.0678 33.0001 22.924C34.6654 23.4788 36.1509 24.4711 37.3011 25.7971C38.4512 27.1231 39.2238 28.7339 39.5377 30.4608L40.3334 34.8407H33.0001C33 32.8157 32.2603 30.8605 30.92 29.3426C29.5797 27.8248 27.7311 26.8487 25.7217 26.598V34.848L25.6667 34.8333Z" stroke="white" stroke-width="2" stroke-linecap="round" stroke-linejoin="round"/>
</g>
<defs>
<clipPath id="clip0_233_65">
<rect width="44" height="44" fill="white"/>
</clipPath>
</defs>
</svg>
