<svg width="477" height="75" viewBox="0 0 477 75" fill="none" xmlns="http://www.w3.org/2000/svg">
<path d="M231.593 30.3026C230.118 27.6534 228.639 25.0041 227.164 22.3549V18.8226C229.232 16.4693 231.296 14.1115 233.364 11.7581C236.61 11.4622 239.861 11.1708 243.107 10.875C243.993 12.0539 244.878 13.2284 245.764 14.4073C246.353 13.6699 246.946 12.937 247.535 12.1996H254.621C255.653 12.7869 256.689 13.3785 257.721 13.9658C258.607 13.3785 259.492 12.7869 260.378 12.1996H267.021C267.76 12.7869 268.495 13.3785 269.235 13.9658C270.121 12.7869 271.006 11.6124 271.892 10.4335C275.138 10.5792 278.389 10.7293 281.635 10.875C283.849 13.6699 286.063 16.4693 288.277 19.2642C286.949 21.6176 285.62 23.9754 284.292 26.3288C283.26 25.7415 282.224 25.1499 281.192 24.5626C280.895 25.7415 280.603 26.916 280.306 28.0949C281.488 35.1595 282.666 42.224 283.849 49.2886C281.931 52.3793 280.009 55.4701 278.092 58.5608C275.289 60.327 272.481 62.0931 269.678 63.8593C268.349 62.9762 267.021 62.0931 265.692 61.2101C265.249 61.5059 264.806 61.7973 264.364 62.0931H251.078L249.307 61.2101C248.124 61.9474 246.946 62.6804 245.764 63.4177C242.81 61.5059 239.861 59.5896 236.907 57.6778C234.839 55.0286 232.775 52.3793 230.707 49.7301C232.182 42.6656 233.661 35.601 235.136 28.5364C234.839 27.7991 234.547 27.0661 234.25 26.3288L231.593 30.3026Z" fill="white" stroke="white" stroke-width="3" stroke-miterlimit="10"/>
<path d="M272.41 10.7028C273.947 11.4181 275.483 12.129 277.016 12.8443L277.1 21.6661C278.353 22.3152 279.606 22.9643 280.86 23.6089C280.519 24.907 280.182 26.2007 279.841 27.4988C276.657 22.9334 273.473 18.3679 270.289 13.8024C270.997 12.7692 271.702 11.736 272.41 10.7028Z" fill="#121212"/>
<path d="M234.702 33.3359C236.265 37.2435 236.96 40.5462 237.301 42.9173C237.921 47.2311 237.921 52.3573 237.921 55.4878V55.5452C238.067 53.0019 238.74 47.5225 242.5 42.0165C245.215 38.0383 248.439 35.6672 250.471 34.4089H257.367C259.554 34.3912 261.737 34.3691 263.925 34.3515C265.953 35.4774 271.87 39.1156 274.837 46.5246C276.471 50.6044 276.595 54.2824 276.475 56.5563C276.462 56.8477 276.272 50.6795 277.662 43.7032C278.459 39.7205 279.633 36.5547 280.527 34.4574C281.364 39.3806 282.197 44.3037 283.034 49.2268C282.069 51.2667 281.152 52.9401 280.417 54.2073C279.447 55.8719 278.845 56.7329 277.928 57.5895C277.095 58.3666 276.365 58.8081 275.798 59.1481C273.973 60.2475 271.976 61.4706 269.523 62.9806C268.261 62.1152 266.998 61.2542 265.736 60.3888C266.812 60.0135 267.884 59.6382 268.96 59.2629C269.62 58.3136 270.568 56.7064 271.051 54.5296C271.662 51.7833 271.219 49.5977 270.993 48.4983C269.642 41.8841 263.624 37.1596 262.455 36.2677C260.772 36.2324 259.054 36.2103 257.309 36.2103C255.467 36.2103 253.655 36.228 251.88 36.2677C250.582 37.4466 245.706 42.0695 244.134 48.1627C243.864 49.2136 243.315 51.3329 243.567 54.1367C243.749 56.1368 244.263 57.7396 244.697 58.8169C246.127 59.1349 247.562 59.4572 248.992 59.7751C248.031 60.5654 247.07 61.3514 246.109 62.1417C243.953 61.3514 240.662 59.8501 237.345 57.0111C234.077 54.2161 232.102 51.249 230.986 49.2621C232.222 43.9549 233.453 38.6476 234.688 33.3404L234.702 33.3359Z" fill="#121212"/>
<path d="M257.539 14.3146C259.337 16.5532 261.131 18.7962 262.929 21.0348C261.582 22.2313 260.236 23.4235 258.885 24.62C259.036 27.4591 259.187 30.2938 259.333 33.1328C260.821 33.0489 262.477 33.0313 264.27 33.1328C266.347 33.2476 268.229 33.4993 269.881 33.804C271.825 33.6538 273.774 33.5037 275.718 33.358L280.948 37.0228C280.297 32.5632 279.084 29.2252 278.149 27.1015C277.454 25.5252 276.768 24.2756 276.444 23.706C275.891 22.7303 274.615 20.5844 272.578 18.125C271.285 16.5664 269.518 14.6811 267.198 12.7825C266.197 12.7515 265.174 12.7339 264.129 12.7251C263.03 12.7162 261.954 12.7251 260.9 12.7471C260.9 12.7471 260.9 12.7471 260.891 12.7471C260.891 12.7471 258.527 13.851 257.53 14.3146H257.539Z" fill="#121212"/>
<path d="M234.489 25.3971C234.941 26.448 235.388 27.4944 235.84 28.5453C238.993 23.7193 242.146 18.8933 245.299 14.0673C244.542 12.8619 243.789 11.6565 243.032 10.4511C241.415 10.9677 239.803 11.4843 238.187 12.0053C238.01 14.1115 237.833 16.2176 237.655 18.3237L234.489 25.3971Z" fill="#121212"/>
<path d="M227.581 21.962C230.043 22.8671 232.505 23.7723 234.967 24.6818C233.98 26.3288 232.988 27.9801 232 29.627C230.53 27.0705 229.055 24.5185 227.585 21.962H227.581Z" fill="#121212"/>
<path d="M239.382 27.0043C240.786 24.28 242.186 21.5602 243.589 18.8359H244.032C244.772 19.719 245.507 20.6021 246.246 21.4851C247.5 19.794 248.757 18.0985 250.011 16.4075C249.2 18.2487 248.385 20.0855 247.575 21.9267L251.118 23.6928C251.264 22.8097 251.415 21.9267 251.561 21.0436C252.003 21.1893 252.446 21.3394 252.889 21.4851C253.629 23.8385 254.364 26.1963 255.103 28.5497C251.707 26.7835 248.315 25.0174 244.918 23.2513C243.071 24.5008 241.229 25.7548 239.382 27.0043Z" fill="#121212"/>
<path d="M261.746 31.1989C261.689 30.9825 263.566 30.5234 265.962 29.446C269.341 27.9227 269.93 26.8851 271.56 27.0794C272.99 27.2472 274.664 28.3024 274.589 29.4328C274.522 30.4792 272.99 31.1283 272.817 31.1989C272.964 31.6404 273.114 32.082 273.26 32.5235C272.817 32.1968 272.379 31.8656 271.936 31.5389C271.05 31.8656 270.16 32.1968 269.275 32.5235C268.57 32.0776 267.53 31.5301 266.188 31.2519C263.752 30.7441 261.804 31.4241 261.746 31.1989Z" fill="white"/>
<path d="M253.261 31.1989C253.319 30.9825 251.441 30.5234 249.045 29.446C245.658 27.9183 245.077 26.8807 243.448 27.0794C242.009 27.2516 240.348 28.3157 240.419 29.4328C240.476 30.3467 241.663 30.9472 241.92 31.0709C241.712 31.5963 241.504 32.1217 241.3 32.6471C241.012 33.5523 240.729 34.4574 240.441 35.3626C240.932 34.5899 241.428 33.8172 241.92 33.0401C242.261 32.5235 242.598 32.0069 242.939 31.4903C243.868 31.8347 244.803 32.1747 245.733 32.5191C246.437 32.0731 247.478 31.5256 248.82 31.2475C251.255 30.7397 253.204 31.4197 253.261 31.1945V31.1989Z" fill="#121212"/>
<path d="M251.153 50.6971C253.266 49.5314 255.374 48.3658 257.486 47.2046C259.541 48.2775 261.596 49.346 263.646 50.4189C264.456 53.6112 265.267 56.808 266.077 60.0003C265.4 60.4904 264.722 60.9761 264.04 61.4662L251.322 61.2984C250.586 60.9054 249.851 60.508 249.116 60.1151C249.794 56.9757 250.471 53.8408 251.153 50.7015V50.6971Z" fill="#121212"/>
<path d="M251.065 42.904C251.056 41.5927 251.047 40.2813 251.038 38.9743C251.786 38.4754 252.535 37.9765 253.283 37.482C254.413 37.4908 255.546 37.4996 256.676 37.5084C256.68 37.0404 256.684 36.568 256.689 36.1L258.443 36.0735V37.482C259.687 37.4555 260.931 37.4246 262.176 37.3981L263.987 38.864L264.071 42.6965C263.022 41.8399 261.972 40.9877 260.918 40.1312C260.413 40.2548 259.908 40.374 259.408 40.4976C259.426 42.0298 259.448 43.5619 259.465 45.0896C258.845 46.0301 258.221 46.9706 257.601 47.9066C256.924 46.9838 256.246 46.0654 255.564 45.1426C255.555 43.584 255.546 42.0254 255.537 40.4623C255.041 40.3431 254.55 40.2283 254.054 40.1091C253.062 41.0407 252.065 41.968 251.074 42.8996L251.065 42.904Z" fill="#121212"/>
<path d="M244.789 30.6646C245.293 30.6646 245.702 30.2574 245.702 29.7551C245.702 29.2527 245.293 28.8455 244.789 28.8455C244.286 28.8455 243.877 29.2527 243.877 29.7551C243.877 30.2574 244.286 30.6646 244.789 30.6646Z" fill="#E11E24"/>
<path d="M280.634 23.5559C282.573 22.7744 284.518 21.9973 286.457 21.2158C285.687 22.6552 284.912 24.0902 284.141 25.5296C282.972 24.8717 281.803 24.2138 280.638 23.5559H280.634Z" fill="#121212"/>
<path d="M216.004 28.3731H217.776V11.4623C218.126 11.1488 218.48 10.8353 218.83 10.5218H225.198C226.402 11.8641 227.611 13.2019 228.816 14.5442C229.117 14.1291 229.418 13.7185 229.719 13.3035C228.59 12.0363 227.456 10.7735 226.327 9.50626V2.63155C226.704 2.30482 227.08 1.97808 227.456 1.65576C232.997 1.64251 238.537 1.62927 244.077 1.61602V0C238.262 0.061815 232.443 0.12363 226.628 0.18986C223.112 3.76188 219.591 7.32949 216.075 10.9015C216.049 16.7254 216.027 22.5492 216 28.3731H216.004Z" fill="#E11E24"/>
<path d="M299.601 28.3731H297.83V11.4623C297.48 11.1488 297.125 10.8353 296.776 10.5218H290.407C289.203 11.8641 287.994 13.2019 286.789 14.5442C286.488 14.1291 286.187 13.7185 285.886 13.3035C287.015 12.0363 288.149 10.7735 289.278 9.50626V2.63155C288.902 2.30482 288.525 1.97808 288.149 1.65576C282.609 1.64251 277.069 1.62927 271.529 1.61602V0C277.343 0.061815 283.162 0.12363 288.977 0.18986C292.493 3.76188 296.014 7.32949 299.53 10.9015C299.557 16.7254 299.579 22.5492 299.605 28.3731H299.601Z" fill="#E11E24"/>
<path d="M299.601 46.3347H297.83V63.2456C297.48 63.559 297.125 63.8725 296.776 64.186H290.407C289.203 62.8437 287.994 61.5059 286.789 60.1636C286.488 60.5787 286.187 60.9893 285.886 61.4043C287.015 62.6715 288.149 63.9343 289.278 65.2015V72.0763C288.902 72.403 288.525 72.7297 288.149 73.0521C282.609 73.0653 277.069 73.0785 271.529 73.0918V74.7078C277.343 74.646 283.162 74.5842 288.977 74.518C292.493 70.9459 296.014 67.3783 299.53 63.8063C299.557 57.9824 299.579 52.1586 299.605 46.3347H299.601Z" fill="#E11E24"/>
<path d="M216.797 46.3347H218.569V63.2456C218.918 63.559 219.273 63.8725 219.623 64.186H225.991C227.195 62.8437 228.404 61.5059 229.609 60.1636C229.91 60.5787 230.211 60.9893 230.512 61.4043C229.383 62.6715 228.249 63.9343 227.12 65.2015V72.0763C227.496 72.403 227.873 72.7297 228.249 73.0521C233.789 73.0653 239.329 73.0785 244.869 73.0918V74.7078C239.055 74.646 233.236 74.5842 227.421 74.518C223.905 70.9459 220.384 67.3783 216.868 63.8063C216.841 57.9824 216.819 52.1586 216.793 46.3347H216.797Z" fill="#E11E24"/>
<path d="M37.9766 23.793V31.2734H11.375V23.793H37.9766ZM11.375 43.5586H38.0156L34.3438 51.0391H11.375L4.01172 43.5586V23.793L11.375 31.2734V43.5586ZM40.0273 43.5586H70.3203V40.0039H77.7031V43.5586L70.3203 51.0391H40.0273V43.5586ZM77.7031 23.793V33.4023L70.3203 40.0039H47.3906L40.0273 33.4023V23.793H47.3906V33.4023H70.3203V23.793H77.7031ZM117.391 23.793V33.4023L112.566 38.2852L117.391 40.8828V51.0391H91.2773V43.5586H110.008V40.8828H88.0742V51.0391H79.7148V33.4023H110.008V31.2734H87.0781L79.7148 23.793H117.391ZM157.078 23.793L149.695 31.2734H126.766V23.793H157.078ZM148.445 40.8828H126.766V43.5586H153.973V51.0391H126.766L119.402 43.5586V23.793L126.766 31.2734V33.3633H154.012L148.445 40.8828ZM167.449 40.8828V51.0391H159.09V33.4023H189.383V31.2734H166.453L159.09 23.793H196.727V40.8828H184.012L199.969 50.9609H187.488L170.652 40.8828H167.449Z" fill="white"/>
<path d="M316.621 23.793H346.914V31.2734H323.984L316.621 23.793ZM354.297 23.793V43.5586L346.914 51.0391H328.184V43.5586H346.914V31.2734L354.297 23.793ZM316.621 51.0391V33.4023H324.98V51.0391H316.621ZM386.641 51.0391H363.672L356.309 43.5586V23.793H386.641L393.945 31.2734L393.984 51.0391L386.641 43.5586V31.2734H363.672V43.5586H386.641V51.0391ZM433.672 33.3633L433.633 33.4023L433.672 51.0391L426.328 43.5586V40.8828H410.488V33.3633H433.672ZM403.359 31.2734V43.5586H426.328V51.0391H403.359L395.996 43.5586V23.793H426.328L430 31.2734H403.359ZM473.359 33.3633L473.32 33.4023L473.359 51.0391L466.016 43.5586V40.8828H450.176V33.3633H473.359ZM443.047 31.2734V43.5586H466.016V51.0391H443.047L435.684 43.5586V23.793H466.016L469.688 31.2734H443.047Z" fill="white"/>
</svg>
