<svg width="90" height="85" viewBox="0 0 90 85" fill="none" xmlns="http://www.w3.org/2000/svg">
<g clip-path="url(#clip0_144_39)">
<path d="M90 0H0V85H90V0Z" fill="#121212"/>
<path d="M18.7149 36.9124C17.2402 34.2632 15.7611 31.6139 14.2864 28.9647V25.4324C16.3545 23.0791 18.4181 20.7213 20.4862 18.3679C23.7323 18.072 26.9828 17.7806 30.2289 17.4848C31.1146 18.6637 32.0003 19.8382 32.886 21.0171C33.475 20.2797 34.0684 19.5468 34.6574 18.8094H41.743C42.7748 19.3967 43.8111 19.9883 44.8429 20.5756C45.7286 19.9883 46.6143 19.3967 47.5 18.8094H54.1427C54.8823 19.3967 55.6174 19.9883 56.3569 20.5756C57.2426 19.3967 58.1283 18.2222 59.014 17.0433C62.2601 17.189 65.5106 17.3391 68.7567 17.4848C70.9709 20.2797 73.1852 23.0791 75.3994 25.874C74.0709 28.2274 72.7423 30.5852 71.4138 32.9385C70.3819 32.3513 69.3457 31.7596 68.3138 31.1724C68.0171 32.3513 67.7248 33.5258 67.4281 34.7047C68.6105 41.7693 69.7885 48.8338 70.9709 55.8984C69.0534 58.9891 67.1314 62.0799 65.2139 65.1706C62.4107 66.9368 59.603 68.7029 56.7998 70.4691C55.4712 69.586 54.1427 68.7029 52.8142 67.8199C52.3713 68.1157 51.9285 68.4071 51.4856 68.7029H38.2002L36.4288 67.8199C35.2464 68.5572 34.0684 69.2902 32.886 70.0275C29.9322 68.1157 26.9828 66.1994 24.029 64.2876C21.9609 61.6384 19.8973 58.9891 17.8292 56.3399C19.3038 49.2754 20.783 42.2108 22.2576 35.1462C21.9609 34.4089 21.6687 33.6759 21.3719 32.9385L18.7149 36.9124Z" fill="white" stroke="white" stroke-width="3" stroke-miterlimit="10"/>
<path d="M59.5321 17.3126C61.0688 18.0279 62.6055 18.7388 64.1378 19.4541L64.2219 28.2759C65.4752 28.925 66.7284 29.574 67.9817 30.2187C67.6407 31.5168 67.3041 32.8105 66.9631 34.1086C63.779 29.5431 60.595 24.9777 57.4109 20.4122C58.1194 19.379 58.8236 18.3458 59.5321 17.3126Z" fill="#121212"/>
<path d="M21.8236 39.9457C23.3869 43.8533 24.0822 47.156 24.4232 49.527C25.0432 53.8408 25.0432 58.9671 25.0432 62.0976V62.155C25.1893 59.6117 25.8624 54.1323 29.6222 48.6263C32.3369 44.6481 35.5608 42.277 37.5935 41.0187H44.4886C46.6763 41.001 48.8595 40.9789 51.0472 40.9613C53.0754 42.0872 58.9919 45.7254 61.959 53.1344C63.5931 57.2142 63.7171 60.8922 63.5975 63.1661C63.5842 63.4575 63.3938 57.2892 64.7843 50.313C65.5815 46.3303 66.755 43.1645 67.6496 41.0672C68.4865 45.9903 69.3191 50.9135 70.1561 55.8366C69.1907 57.8765 68.274 59.5499 67.5388 60.8171C66.569 62.4817 65.9667 63.3427 65.05 64.1993C64.2175 64.9764 63.4868 65.4179 62.9199 65.7579C61.0954 66.8573 59.0982 68.0804 56.6448 69.5904C55.3827 68.725 54.1206 67.864 52.8584 66.9986C53.9346 66.6233 55.0062 66.248 56.0824 65.8727C56.7422 64.9234 57.6899 63.3162 58.1726 61.1394C58.7837 58.3931 58.3409 56.2075 58.115 55.1081C56.7644 48.4939 50.7461 43.7694 49.5769 42.8775C47.8941 42.8422 46.1759 42.8201 44.431 42.8201C42.5888 42.8201 40.7775 42.8378 39.0017 42.8775C37.7042 44.0564 32.8284 48.6793 31.2563 54.7725C30.9862 55.8233 30.437 57.9427 30.6895 60.7465C30.871 62.7466 31.3847 64.3494 31.8187 65.4267C33.2491 65.7446 34.684 66.067 36.1144 66.3849C35.1534 67.1752 34.1924 67.9612 33.2314 68.7515C31.0747 67.9612 27.7844 66.4599 24.4675 63.6209C21.1992 60.8259 19.2241 57.8588 18.1082 55.8719C19.3437 50.5647 20.5748 45.2574 21.8104 39.9501L21.8236 39.9457Z" fill="#121212"/>
<path d="M44.6612 20.9244C46.4592 23.163 48.2527 25.406 50.0507 27.6445C48.7044 28.8411 47.3581 30.0332 46.0075 31.2298C46.158 34.0689 46.3086 36.9035 46.4547 39.7426C47.9427 39.6587 49.599 39.6411 51.3925 39.7426C53.4694 39.8574 55.3516 40.1091 57.0034 40.4137C58.9475 40.2636 60.896 40.1135 62.8401 39.9678L68.0701 43.6325C67.4192 39.173 66.2058 35.835 65.2713 33.7112C64.5761 32.135 63.8897 30.8854 63.5664 30.3158C63.0128 29.34 61.7374 27.1942 59.7003 24.7348C58.4072 23.1762 56.6402 21.2908 54.3197 19.3922C53.3189 19.3613 52.2959 19.3437 51.2508 19.3348C50.1525 19.326 49.0764 19.3348 48.0224 19.3569C48.0224 19.3569 48.0224 19.3569 48.0136 19.3569C48.0136 19.3569 45.6488 20.4608 44.6523 20.9244H44.6612Z" fill="#121212"/>
<path d="M21.6111 32.0069C22.0628 33.0578 22.5101 34.1042 22.9618 35.1551C26.1148 30.3291 29.2679 25.5031 32.421 20.6771C31.6637 19.4717 30.9109 18.2663 30.1536 17.0609C28.5372 17.5775 26.9253 18.0941 25.3089 18.6151C25.1317 20.7213 24.9546 22.8274 24.7774 24.9335L21.6111 32.0069Z" fill="#121212"/>
<path d="M14.7026 28.5718C17.1649 29.4769 19.6271 30.3821 22.0893 31.2916C21.1018 32.9385 20.1098 34.5899 19.1223 36.2368C17.652 33.6803 16.1773 31.1283 14.7071 28.5718H14.7026Z" fill="#121212"/>
<path d="M26.5044 33.6141C27.9082 30.8898 29.3076 28.17 30.7115 25.4457H31.1543C31.8939 26.3288 32.629 27.2118 33.3685 28.0949C34.6218 26.4038 35.8795 24.7083 37.1327 23.0173C36.3223 24.8585 35.5075 26.6952 34.6971 28.5364L38.2399 30.3026C38.386 29.4195 38.5366 28.5364 38.6827 27.6534C39.1256 27.7991 39.5684 27.9492 40.0113 28.0949C40.7508 30.4483 41.4859 32.8061 42.2255 35.1595C38.8289 33.3933 35.4366 31.6272 32.04 29.861C30.1933 31.1106 28.3511 32.3646 26.5044 33.6141Z" fill="#121212"/>
<path d="M48.8682 37.8087C48.8107 37.5923 50.6883 37.1331 53.0841 36.0558C56.4631 34.5325 57.0521 33.4949 58.6817 33.6892C60.1121 33.8569 61.7861 34.9122 61.7108 36.0425C61.6444 37.089 60.1121 37.738 59.9394 37.8087C60.0856 38.2502 60.2361 38.6918 60.3823 39.1333C59.9394 38.8066 59.501 38.4754 59.0582 38.1487C58.1725 38.4754 57.2823 38.8066 56.3966 39.1333C55.6925 38.6873 54.6518 38.1398 53.31 37.8617C50.8743 37.3539 48.9258 38.0339 48.8682 37.8087Z" fill="white"/>
<path d="M40.3834 37.8087C40.4409 37.5923 38.5633 37.1331 36.1674 36.0558C32.7797 34.5281 32.1995 33.4905 30.5698 33.6892C29.1306 33.8614 27.4699 34.9255 27.5408 36.0425C27.5983 36.9565 28.7852 37.557 29.042 37.6806C28.8339 38.2061 28.6257 38.7315 28.422 39.2569C28.1342 40.1621 27.8508 41.0672 27.5629 41.9724C28.0545 41.1997 28.5505 40.427 29.042 39.6499C29.383 39.1333 29.7196 38.6167 30.0606 38.1001C30.9906 38.4445 31.925 38.7845 32.8549 39.1289C33.5591 38.6829 34.5998 38.1354 35.9416 37.8573C38.3773 37.3495 40.3258 38.0295 40.3834 37.8043V37.8087Z" fill="#121212"/>
<path d="M38.2754 57.3069C40.3878 56.1412 42.4957 54.9756 44.6081 53.8143C46.6629 54.8873 48.7177 55.9558 50.7681 57.0287C51.5785 60.221 52.3889 63.4177 53.1994 66.61C52.5218 67.1002 51.8442 67.5858 51.1623 68.0759L38.4437 67.9082C37.7085 67.5152 36.9734 67.1178 36.2383 66.7248C36.9158 63.5855 37.5934 60.4506 38.2754 57.3113V57.3069Z" fill="#121212"/>
<path d="M38.1867 49.5138C38.1779 48.2024 38.169 46.8911 38.1602 45.5841C38.9086 45.0852 39.657 44.5863 40.4054 44.0917C41.5347 44.1006 42.6684 44.1094 43.7976 44.1182C43.802 43.6502 43.8065 43.1778 43.8109 42.7097L45.5646 42.6832V44.0917C46.809 44.0653 48.0534 44.0343 49.2978 44.0078L51.109 45.4737L51.1932 49.3063C50.1436 48.4497 49.0941 47.5975 48.0401 46.741C47.5353 46.8646 47.0304 46.9838 46.53 47.1074C46.5477 48.6396 46.5698 50.1717 46.5876 51.6994C45.9676 52.6399 45.3432 53.5803 44.7232 54.5164C44.0456 53.5936 43.368 52.6752 42.6861 51.7524C42.6772 50.1938 42.6684 48.6351 42.6595 47.0721C42.1635 46.9529 41.6719 46.8381 41.176 46.7189C40.184 47.6505 39.1876 48.5777 38.1956 49.5094L38.1867 49.5138Z" fill="#121212"/>
<path d="M31.9115 37.2744C32.4154 37.2744 32.8238 36.8672 32.8238 36.3649C32.8238 35.8625 32.4154 35.4553 31.9115 35.4553C31.4077 35.4553 30.9993 35.8625 30.9993 36.3649C30.9993 36.8672 31.4077 37.2744 31.9115 37.2744Z" fill="#E11E24"/>
<path d="M67.7559 30.1657C69.6955 29.3842 71.6396 28.6071 73.5793 27.8256C72.8088 29.265 72.0338 30.7 71.2632 32.1394C70.0941 31.4815 68.925 30.8236 67.7603 30.1657H67.7559Z" fill="#121212"/>
<path d="M3.1265 34.9829H4.89789V18.072C5.24774 17.7586 5.60202 17.4451 5.95187 17.1316H12.32C13.5246 18.4738 14.7335 19.8117 15.9381 21.154C16.2392 20.7389 16.5404 20.3283 16.8415 19.9133C15.7122 18.646 14.5785 17.3833 13.4493 16.116V9.24134C13.8257 8.9146 14.2021 8.58787 14.5785 8.26554C20.1186 8.2523 25.6586 8.23905 31.1986 8.22581V6.60979C25.384 6.6716 19.565 6.73342 13.7504 6.79965C10.2342 10.3717 6.71357 13.9393 3.19735 17.5113C3.17078 23.3352 3.14864 29.159 3.12207 34.9829H3.1265Z" fill="#E11E24"/>
<path d="M86.723 34.9829H84.9516V18.072C84.6018 17.7586 84.2475 17.4451 83.8976 17.1316H77.5295C76.3249 18.4738 75.116 19.8117 73.9114 21.154C73.6103 20.7389 73.3091 20.3283 73.008 19.9133C74.1373 18.646 75.271 17.3833 76.4002 16.116V9.24134C76.0238 8.9146 75.6474 8.58787 75.271 8.26554C69.7309 8.2523 64.1909 8.23905 58.6509 8.22581V6.60979C64.4655 6.6716 70.2845 6.73342 76.0991 6.79965C79.6153 10.3717 83.1359 13.9393 86.6522 17.5113C86.6787 23.3352 86.7009 29.159 86.7274 34.9829H86.723Z" fill="#E11E24"/>
<path d="M86.723 52.9445H84.9516V69.8553C84.6018 70.1688 84.2475 70.4823 83.8976 70.7958H77.5295C76.3249 69.4535 75.116 68.1157 73.9114 66.7734C73.6103 67.1885 73.3091 67.5991 73.008 68.0141C74.1373 69.2813 75.271 70.5441 76.4002 71.8113V78.686C76.0238 79.0128 75.6474 79.3395 75.271 79.6618C69.7309 79.6751 64.1909 79.6883 58.6509 79.7016V81.3176C64.4655 81.2558 70.2845 81.194 76.0991 81.1277C79.6153 77.5557 83.1359 73.9881 86.6522 70.4161C86.6787 64.5922 86.7009 58.7684 86.7274 52.9445H86.723Z" fill="#E11E24"/>
<path d="M3.91922 52.9445H5.69062V69.8553C6.04047 70.1688 6.39474 70.4823 6.74459 70.7958H13.1127C14.3173 69.4535 15.5263 68.1157 16.7308 66.7734C17.032 67.1885 17.3331 67.5991 17.6342 68.0141C16.505 69.2813 15.3713 70.5441 14.242 71.8113V78.686C14.6184 79.0128 14.9949 79.3395 15.3713 79.6618C20.9113 79.6751 26.4513 79.6883 31.9914 79.7016V81.3176C26.1768 81.2558 20.3577 81.194 14.5431 81.1277C11.0269 77.5557 7.50629 73.9881 3.99008 70.4161C3.96351 64.5922 3.94137 58.7684 3.91479 52.9445H3.91922Z" fill="#E11E24"/>
</g>
<defs>
<clipPath id="clip0_144_39">
<rect width="90" height="85" fill="white"/>
</clipPath>
</defs>
</svg>
