<svg width="535" height="306" viewBox="0 0 535 306" fill="none" xmlns="http://www.w3.org/2000/svg">
<mask id="path-1-outside-1_513_2" maskUnits="userSpaceOnUse" x="0" y="2" width="267" height="302" fill="black">
<rect fill="white" y="2" width="267" height="302"/>
<path d="M2 19C2 10.7157 8.71573 4 17 4H267V302H17C8.71573 302 2 295.284 2 287V19Z"/>
</mask>
<path d="M2 19C2 10.7157 8.71573 4 17 4H267V302H17C8.71573 302 2 295.284 2 287V19Z" fill="#121212"/>
<path d="M0 19C0 9.61116 7.61116 2 17 2H267V6H17C9.8203 6 4 11.8203 4 19H0ZM267 304H17C7.61116 304 0 296.389 0 287H4C4 294.18 9.8203 300 17 300H267V304ZM17 304C7.61116 304 0 296.389 0 287V19C0 9.61116 7.61116 2 17 2V6C9.8203 6 4 11.8203 4 19V287C4 294.18 9.8203 300 17 300V304ZM17 300M267 4V302V4" fill="white" mask="url(#path-1-outside-1_513_2)"/>
<mask id="path-3-outside-2_513_2" maskUnits="userSpaceOnUse" x="267" y="2" width="268" height="302" fill="black">
<rect fill="white" x="267" y="2" width="268" height="302"/>
<path d="M533 19C533 10.7157 526.284 4 518 4H267V302H518C526.284 302 533 295.284 533 287V19Z"/>
</mask>
<path d="M533 19C533 10.7157 526.284 4 518 4H267V302H518C526.284 302 533 295.284 533 287V19Z" fill="#121212"/>
<path d="M535 19C535 9.61116 527.389 2 518 2H267V6H518C525.18 6 531 11.8203 531 19H535ZM267 304H518C527.389 304 535 296.389 535 287H531C531 294.18 525.18 300 518 300H267V304ZM518 304C527.389 304 535 296.389 535 287V19C535 9.61116 527.389 2 518 2V6C525.18 6 531 11.8203 531 19V287C531 294.18 525.18 300 518 300V304ZM518 300M267 4V302V4" fill="white" mask="url(#path-3-outside-2_513_2)"/>
<path d="M304 16H238V78H304V16Z" fill="#121212"/>
<path d="M253.188 42.5041C252.127 40.5702 251.062 38.6364 250 36.7025V34.124C251.489 32.406 252.975 30.6849 254.464 28.9669C256.801 28.751 259.141 28.5383 261.478 28.3223C262.116 29.1829 262.754 30.0402 263.391 30.9008C263.815 30.3626 264.243 29.8275 264.667 29.2893H269.768C270.511 29.7179 271.257 30.1498 272 30.5785C272.638 30.1498 273.275 29.7179 273.913 29.2893H278.696C279.228 29.7179 279.757 30.1498 280.29 30.5785C280.928 29.7179 281.565 28.8606 282.203 28C284.54 28.1064 286.88 28.216 289.217 28.3223C290.812 30.3626 292.406 32.406 294 34.4463C293.043 36.1642 292.087 37.8854 291.13 39.6033C290.388 39.1746 289.641 38.7427 288.899 38.314C288.685 39.1746 288.474 40.032 288.261 40.8926C289.112 46.0496 289.96 51.2066 290.812 56.3636C289.431 58.6198 288.047 60.876 286.667 63.1322C284.648 64.4215 282.627 65.7107 280.609 67C279.652 66.3554 278.696 65.7107 277.739 65.0661C277.42 65.2821 277.101 65.4948 276.783 65.7107H267.217L265.942 65.0661C265.091 65.6044 264.243 66.1394 263.391 66.6777C261.265 65.2821 259.141 63.8832 257.014 62.4876C255.526 60.5537 254.04 58.6198 252.551 56.6859C253.612 51.5289 254.677 46.3719 255.739 41.2149C255.526 40.6766 255.315 40.1416 255.101 39.6033L253.188 42.5041Z" fill="white" stroke="white" stroke-width="3" stroke-miterlimit="10"/>
<path d="M282.405 28C283.422 28.5536 284.44 29.1038 285.455 29.6575L285.51 36.4855C286.34 36.9879 287.17 37.4903 288 37.9892C287.774 38.994 287.551 39.9953 287.326 41C285.217 37.4664 283.109 33.9327 281 30.3991C281.469 29.5994 281.935 28.7997 282.405 28Z" fill="#121212"/>
<path d="M255.713 44C256.854 46.8999 257.362 49.3509 257.611 51.1105C258.063 54.3119 258.063 58.1162 258.063 60.4394V60.482C258.17 58.5946 258.661 54.5281 261.406 50.4421C263.388 47.4897 265.742 45.7301 267.226 44.7962H272.26C273.857 44.7831 275.451 44.7668 277.049 44.7536C278.529 45.5892 282.849 48.2892 285.015 53.7876C286.208 56.8153 286.299 59.5448 286.212 61.2323C286.202 61.4486 286.063 56.871 287.078 51.6938C287.66 48.7382 288.517 46.3887 289.17 44.8323C289.781 48.4859 290.389 52.1394 291 55.793C290.295 57.3068 289.626 58.5487 289.089 59.4891C288.381 60.7245 287.941 61.3634 287.272 61.9991C286.664 62.5758 286.131 62.9035 285.717 63.1558C284.385 63.9717 282.927 64.8794 281.135 66C280.214 65.3578 279.293 64.7188 278.371 64.0766C279.157 63.798 279.939 63.5195 280.725 63.241C281.207 62.5365 281.898 61.3438 282.251 59.7283C282.697 57.6902 282.374 56.0682 282.209 55.2523C281.223 50.3438 276.829 46.8377 275.975 46.1758C274.747 46.1495 273.492 46.1332 272.218 46.1332C270.873 46.1332 269.551 46.1463 268.254 46.1758C267.307 47.0506 263.747 50.4814 262.599 55.0033C262.402 55.7831 262.001 57.356 262.186 59.4367C262.318 60.9211 262.693 62.1105 263.01 62.91C264.054 63.146 265.102 63.3852 266.146 63.6211C265.445 64.2076 264.743 64.7909 264.041 65.3774C262.467 64.7909 260.065 63.6768 257.643 61.5699C255.257 59.4957 253.815 57.2937 253 55.8192C253.902 51.8805 254.801 47.9419 255.703 44.0033L255.713 44Z" fill="#121212"/>
<path d="M272.007 30.1799C273.389 31.838 274.767 33.4994 276.149 35.1576C275.115 36.0439 274.08 36.9269 273.042 37.8132C273.157 39.9161 273.273 42.0158 273.385 44.1187C274.529 44.0566 275.802 44.0435 277.181 44.1187C278.777 44.2037 280.224 44.3902 281.494 44.6158C282.988 44.5046 284.486 44.3934 285.98 44.2855L290 47C289.5 43.6968 288.567 41.2243 287.849 39.6512C287.314 38.4836 286.787 37.5581 286.538 37.1362C286.113 36.4134 285.132 34.824 283.567 33.0023C282.573 31.8478 281.214 30.4513 279.431 29.045C278.661 29.0221 277.875 29.009 277.072 29.0025C276.228 28.996 275.401 29.0025 274.59 29.0189C274.59 29.0189 274.59 29.0189 274.584 29.0189C274.584 29.0189 272.766 29.8365 272 30.1799H272.007Z" fill="#121212"/>
<path d="M254 38.7382C254.376 39.4932 254.748 40.245 255.125 41C257.75 37.5327 260.375 34.0654 263 30.5981C262.37 29.7321 261.743 28.866 261.112 28C259.766 28.3712 258.424 28.7423 257.079 29.1166C256.931 30.6298 256.784 32.143 256.636 33.6562L254 38.7382Z" fill="#121212"/>
<path d="M250 36C252 36.7085 254 37.4171 256 38.129C255.198 39.4182 254.392 40.7108 253.59 42C252.396 39.9988 251.198 38.0012 250.004 36H250Z" fill="#121212"/>
<path d="M259 39.8545C259.982 37.8353 260.961 35.8193 261.944 33.8H262.254C262.771 34.4545 263.285 35.1091 263.803 35.7636C264.68 34.5102 265.56 33.2535 266.437 32C265.87 33.3647 265.299 34.7262 264.732 36.0909L267.211 37.4C267.314 36.7455 267.419 36.0909 267.521 35.4364C267.831 35.5444 268.141 35.6556 268.451 35.7636C268.968 37.508 269.483 39.2556 270 41C267.623 39.6909 265.25 38.3818 262.873 37.0727C261.581 37.9989 260.292 38.9284 259 39.8545Z" fill="#121212"/>
<path d="M275.001 42.7887C274.961 42.5908 276.276 42.1709 277.955 41.1856C280.322 39.7926 280.734 38.8437 281.876 39.0214C282.878 39.1748 284.051 40.1398 283.998 41.1735C283.952 42.1305 282.878 42.724 282.757 42.7887C282.86 43.1924 282.965 43.5962 283.068 44C282.757 43.7012 282.45 43.3984 282.14 43.0996C281.519 43.3984 280.896 43.7012 280.275 44C279.782 43.5922 279.053 43.0915 278.113 42.8371C276.406 42.3728 275.041 42.9946 275.001 42.7887Z" fill="white"/>
<path d="M268.999 41.9928C269.044 41.8366 267.582 41.5049 265.717 40.7268C263.08 39.6235 262.628 38.8741 261.36 39.0176C260.239 39.142 258.947 39.9105 259.002 40.7173C259.047 41.3774 259.97 41.8111 260.17 41.9004C260.008 42.2799 259.846 42.6593 259.688 43.0388C259.464 43.6925 259.243 44.3463 259.019 45C259.402 44.4419 259.788 43.8839 260.17 43.3226C260.436 42.9495 260.698 42.5764 260.963 42.2033C261.687 42.4521 262.415 42.6976 263.139 42.9463C263.687 42.6243 264.497 42.2288 265.541 42.0279C267.437 41.6612 268.954 42.1523 268.999 41.9897V41.9928Z" fill="#121212"/>
<path d="M267.441 56.9387C268.936 55.9579 270.427 54.9771 271.922 54C273.375 54.9028 274.829 55.8019 276.28 56.7046C276.853 59.3907 277.427 62.0805 278 64.7666C277.521 65.179 277.041 65.5876 276.559 66L267.56 65.8588C267.04 65.5282 266.52 65.1938 266 64.8632C266.479 62.2217 266.959 59.5839 267.441 56.9424V56.9387Z" fill="#121212"/>
<path d="M267.018 52.1951C267.012 51.1978 267.006 50.2004 267 49.2063C267.517 48.8269 268.034 48.4474 268.55 48.0713C269.33 48.078 270.113 48.0847 270.893 48.0914C270.896 47.7354 270.899 47.3761 270.902 47.0202L272.113 47V48.0713C272.972 48.0511 273.832 48.0276 274.691 48.0075L275.942 49.1224L276 52.0373C275.275 51.3858 274.55 50.7377 273.823 50.0862C273.474 50.1802 273.125 50.2709 272.78 50.3649C272.792 51.5302 272.807 52.6955 272.82 53.8575C272.391 54.5728 271.96 55.2881 271.532 56C271.064 55.2981 270.596 54.5996 270.125 53.8978C270.119 52.7123 270.113 51.5269 270.107 50.3381C269.765 50.2474 269.425 50.1601 269.083 50.0694C268.398 50.778 267.709 51.4832 267.024 52.1918L267.018 52.1951Z" fill="#121212"/>
<path d="M262.5 42C262.776 42 263 41.7761 263 41.5C263 41.2239 262.776 41 262.5 41C262.224 41 262 41.2239 262 41.5C262 41.7761 262.224 42 262.5 42Z" fill="#E11E24"/>
<path d="M288 37.1699C289.665 36.4452 291.335 35.7247 293 35C292.338 36.3347 291.673 37.6653 291.011 39C290.008 38.39 289.004 37.7799 288.004 37.1699H288Z" fill="#121212"/>
<path d="M241.003 41H242.328V28.4837C242.59 28.2516 242.855 28.0196 243.117 27.7876H247.88C248.781 28.781 249.685 29.7712 250.586 30.7647C250.811 30.4575 251.036 30.1536 251.262 29.8464C250.417 28.9085 249.569 27.9739 248.724 27.0359V21.9477C249.006 21.7059 249.287 21.4641 249.569 21.2255C253.713 21.2157 257.856 21.2059 262 21.1961V20C257.651 20.0458 253.299 20.0915 248.95 20.1405C246.32 22.7843 243.686 25.4248 241.056 28.0686C241.036 32.3791 241.02 36.6895 241 41H241.003Z" fill="#E11E24"/>
<path d="M302.997 41H301.672V28.4837C301.41 28.2516 301.145 28.0196 300.883 27.7876H296.12C295.219 28.781 294.315 29.7712 293.414 30.7647C293.189 30.4575 292.964 30.1536 292.738 29.8464C293.583 28.9085 294.431 27.9739 295.276 27.0359V21.9477C294.994 21.7059 294.713 21.4641 294.431 21.2255C290.287 21.2157 286.144 21.2059 282 21.1961V20C286.349 20.0458 290.701 20.0915 295.05 20.1405C297.68 22.7843 300.314 25.4248 302.944 28.0686C302.964 32.3791 302.98 36.6895 303 41H302.997Z" fill="#E11E24"/>
<path d="M302.997 54H301.672V66.5163C301.41 66.7484 301.145 66.9804 300.883 67.2124H296.12C295.219 66.219 294.315 65.2288 293.414 64.2353C293.189 64.5425 292.964 64.8464 292.738 65.1536C293.583 66.0915 294.431 67.0261 295.276 67.9641V73.0523C294.994 73.2941 294.713 73.5359 294.431 73.7745C290.287 73.7843 286.144 73.7941 282 73.8039V75C286.349 74.9542 290.701 74.9085 295.05 74.8595C297.68 72.2157 300.314 69.5752 302.944 66.9314C302.964 62.6209 302.98 58.3105 303 54H302.997Z" fill="#E11E24"/>
<path d="M241.003 54H242.328V66.5163C242.59 66.7484 242.855 66.9804 243.117 67.2124H247.88C248.781 66.219 249.685 65.2288 250.586 64.2353C250.811 64.5425 251.036 64.8464 251.262 65.1536C250.417 66.0915 249.569 67.0261 248.724 67.9641V73.0523C249.006 73.2941 249.287 73.5359 249.569 73.7745C253.713 73.7843 257.856 73.7941 262 73.8039V75C257.651 74.9542 253.299 74.9085 248.95 74.8595C246.32 72.2157 243.686 69.5752 241.056 66.9314C241.036 62.6209 241.02 58.3105 241 54H241.003Z" fill="#E11E24"/>
<path d="M205.881 51.1135V58.6038H199.716V45.5967H222.057V44.0266H205.147L199.716 38.5098H227.473V51.1135H218.096L229.865 58.5461H220.66L208.244 51.1135H205.881Z" fill="white"/>
<path d="M198.233 38.5098L192.788 44.0266H175.877V38.5098H198.233ZM191.866 51.1135H175.877V53.0869H195.942V58.6038H175.877L170.447 53.0869V38.5098L175.877 44.0266V45.5679H195.971L191.866 51.1135Z" fill="white"/>
<path d="M168.963 38.5098V45.5967L165.405 49.1978L168.963 51.1135V58.6038H149.705V53.0869H163.518V51.1135H147.342V58.6038H141.177V45.5967H163.518V44.0266H146.608L141.177 38.5098H168.963Z" fill="white"/>
<path d="M111.908 53.0869H134.249V50.4653H139.694V53.0869L134.249 58.6038H111.908V53.0869ZM139.694 38.5098V45.5967L134.249 50.4653H117.338L111.908 45.5967V38.5098H117.338V45.5967H134.249V38.5098H139.694Z" fill="white"/>
<path d="M110.395 38.5098V44.0266H90.7766V38.5098H110.395ZM90.7766 53.0869H110.424L107.716 58.6038H90.7766L85.3462 53.0869V38.5098L90.7766 44.0266V53.0869Z" fill="white"/>
<path d="M431.49 45.5679L431.461 45.5967L431.49 58.6038L426.074 53.0869V51.1135H414.392V45.5679H431.49ZM409.135 44.0266V53.0869H426.074V58.6038H409.135L403.704 53.0869V38.5098H426.074L428.782 44.0266H409.135Z" fill="white"/>
<path d="M402.22 45.5679L402.192 45.5967L402.22 58.6038L396.804 53.0869V51.1135H385.123V45.5679H402.22ZM379.865 44.0266V53.0869H396.804V58.6038H379.865L374.435 53.0869V38.5098H396.804L399.512 44.0266H379.865Z" fill="white"/>
<path d="M367.535 58.6038H350.595L345.165 53.0869V38.5098H367.535L372.922 44.0266L372.951 58.6038L367.535 53.0869V44.0266H350.595V53.0869H367.535V58.6038Z" fill="white"/>
<path d="M315.896 38.5098H338.237V44.0266H321.326L315.896 38.5098ZM343.681 38.5098V53.0869L338.237 58.6038H324.423V53.0869H338.237V44.0266L343.681 38.5098ZM315.896 58.6038V45.5967H322.061V58.6038H315.896Z" fill="white"/>
<g filter="url(#filter0_d_513_2)">
<rect x="505" y="4" width="7" height="298" fill="#E11E24"/>
</g>
<g filter="url(#filter1_d_513_2)">
<rect x="487" y="4" width="11" height="298" fill="white"/>
</g>
<g filter="url(#filter2_d_513_2)">
<rect x="520" y="4" width="4" height="298" fill="white"/>
</g>
<path d="M405.231 141.971H396.404C396.247 141.971 396.113 142.026 396.003 142.136C395.909 142.231 395.861 142.356 395.861 142.514V148.036C395.861 148.194 395.909 148.327 396.003 148.437C396.113 148.532 396.247 148.579 396.404 148.579H405.231C405.388 148.579 405.514 148.532 405.608 148.437C405.718 148.327 405.773 148.194 405.773 148.036V142.514C405.773 142.356 405.718 142.231 405.608 142.136C405.514 142.026 405.388 141.971 405.231 141.971ZM392.557 148.579V141.971C392.557 141.058 392.88 140.28 393.525 139.635C394.17 138.99 394.949 138.667 395.861 138.667H405.773C406.686 138.667 407.465 138.99 408.11 139.635C408.755 140.28 409.077 141.058 409.077 141.971V154.644C409.077 154.802 409.022 154.935 408.912 155.045C408.818 155.14 408.692 155.187 408.535 155.187H406.316C406.159 155.187 406.025 155.14 405.915 155.045C405.821 154.935 405.773 154.802 405.773 154.644V152.426C405.773 152.268 405.718 152.143 405.608 152.048C405.514 151.938 405.388 151.883 405.231 151.883H402.729C402.383 151.883 402.068 152.009 401.785 152.261L399.26 154.786C399.024 155.053 398.717 155.187 398.339 155.187H394.752C394.658 155.187 394.587 155.14 394.54 155.045C394.524 154.951 394.54 154.864 394.587 154.786L397.136 152.261C397.199 152.198 397.214 152.119 397.183 152.025C397.136 151.93 397.065 151.883 396.971 151.883H395.861C394.949 151.883 394.17 151.56 393.525 150.915C392.88 150.27 392.557 149.492 392.557 148.579Z" fill="white"/>
<path d="M367.044 139.21C367.044 139.052 367.091 138.927 367.186 138.832C367.296 138.722 367.43 138.667 367.587 138.667H369.805C370.199 138.667 370.498 138.809 370.702 139.092L378.608 148.225C380.355 146.195 382.99 143.151 386.514 139.092C386.734 138.809 387.033 138.667 387.411 138.667H389.629C389.787 138.667 389.913 138.722 390.007 138.832C390.117 138.927 390.172 139.052 390.172 139.21V154.644C390.172 154.802 390.117 154.935 390.007 155.045C389.897 155.14 389.771 155.187 389.629 155.187H387.411C387.254 155.187 387.12 155.14 387.01 155.045C386.915 154.935 386.868 154.802 386.868 154.644V144.26C386.868 144.119 386.829 144.04 386.75 144.024C386.687 143.993 386.609 144.032 386.514 144.142C385.098 145.763 382.581 148.673 378.962 152.874C378.852 152.984 378.734 153.039 378.608 153.039C378.482 153.039 378.364 152.984 378.254 152.874C374.636 148.673 372.118 145.763 370.702 144.142C370.608 144.032 370.521 143.993 370.443 144.024C370.38 144.04 370.348 144.126 370.348 144.284V154.644C370.348 154.802 370.293 154.935 370.183 155.045C370.089 155.14 369.963 155.187 369.805 155.187H367.611C367.453 155.187 367.32 155.14 367.209 155.045C367.099 154.935 367.044 154.802 367.044 154.644V139.21Z" fill="white"/>
<path d="M349.782 151.883V141.971C349.782 141.058 350.105 140.28 350.75 139.635C351.395 138.99 352.173 138.667 353.086 138.667H364.107C364.265 138.667 364.39 138.722 364.485 138.832C364.595 138.927 364.65 139.052 364.65 139.21V141.428C364.65 141.586 364.595 141.719 364.485 141.829C364.39 141.924 364.265 141.971 364.107 141.971H353.629C353.471 141.971 353.338 142.026 353.228 142.136C353.133 142.231 353.086 142.356 353.086 142.514V144.732C353.086 144.89 353.133 145.023 353.228 145.133C353.338 145.228 353.471 145.275 353.629 145.275H364.107C364.265 145.275 364.39 145.33 364.485 145.44C364.595 145.535 364.65 145.66 364.65 145.818V148.036C364.65 148.194 364.595 148.327 364.485 148.437C364.39 148.532 364.265 148.579 364.107 148.579H353.629C353.471 148.579 353.338 148.634 353.228 148.744C353.133 148.839 353.086 148.964 353.086 149.122V151.34C353.086 151.498 353.133 151.631 353.228 151.741C353.338 151.836 353.471 151.883 353.629 151.883H364.107C364.265 151.883 364.39 151.938 364.485 152.048C364.595 152.143 364.65 152.268 364.65 152.426V154.644C364.65 154.802 364.595 154.935 364.485 155.045C364.39 155.14 364.265 155.187 364.107 155.187H353.086C352.173 155.187 351.395 154.864 350.75 154.219C350.105 153.574 349.782 152.796 349.782 151.883Z" fill="white"/>
<path d="M343.557 141.971H334.73C334.573 141.971 334.439 142.026 334.329 142.136C334.235 142.231 334.188 142.356 334.188 142.514V148.036C334.188 148.194 334.235 148.327 334.329 148.437C334.439 148.532 334.573 148.579 334.73 148.579H343.557C343.714 148.579 343.84 148.532 343.934 148.437C344.044 148.327 344.1 148.194 344.1 148.036V142.514C344.1 142.356 344.044 142.231 343.934 142.136C343.84 142.026 343.714 141.971 343.557 141.971ZM330.884 154.644V141.971C330.884 141.058 331.206 140.28 331.851 139.635C332.496 138.99 333.275 138.667 334.188 138.667H344.1C345.012 138.667 345.791 138.99 346.436 139.635C347.081 140.28 347.404 141.058 347.404 141.971V148.579C347.404 149.492 347.081 150.27 346.436 150.915C345.791 151.56 345.012 151.883 344.1 151.883H334.73C334.573 151.883 334.439 151.938 334.329 152.048C334.235 152.143 334.188 152.268 334.188 152.426V154.644C334.188 154.802 334.132 154.935 334.022 155.045C333.928 155.14 333.802 155.187 333.645 155.187H331.426C331.269 155.187 331.135 155.14 331.025 155.045C330.931 154.935 330.884 154.802 330.884 154.644Z" fill="white"/>
<path d="M316.062 151.883H324.889C325.046 151.883 325.172 151.836 325.266 151.741C325.376 151.631 325.432 151.498 325.432 151.34V149.122C325.432 148.964 325.376 148.839 325.266 148.744C325.172 148.634 325.046 148.579 324.889 148.579H316.062C315.905 148.579 315.771 148.634 315.661 148.744C315.567 148.839 315.52 148.964 315.52 149.122V151.34C315.52 151.498 315.567 151.631 315.661 151.741C315.771 151.836 315.905 151.883 316.062 151.883ZM316.062 145.275H324.889C325.046 145.275 325.172 145.228 325.266 145.133C325.376 145.023 325.432 144.89 325.432 144.732V142.514C325.432 142.356 325.376 142.231 325.266 142.136C325.172 142.026 325.046 141.971 324.889 141.971H316.062C315.905 141.971 315.771 142.026 315.661 142.136C315.567 142.231 315.52 142.356 315.52 142.514V144.732C315.52 144.89 315.567 145.023 315.661 145.133C315.771 145.228 315.905 145.275 316.062 145.275ZM312.216 151.883V141.971C312.216 141.058 312.538 140.28 313.183 139.635C313.828 138.99 314.607 138.667 315.52 138.667H325.432C326.344 138.667 327.123 138.99 327.768 139.635C328.413 140.28 328.736 141.058 328.736 141.971V144.095C328.736 144.882 328.46 145.55 327.91 146.101L327.084 146.927L327.91 147.753C328.46 148.304 328.736 148.972 328.736 149.759V151.883C328.736 152.796 328.413 153.574 327.768 154.219C327.123 154.864 326.344 155.187 325.432 155.187H315.52C314.607 155.187 313.828 154.864 313.183 154.219C312.538 153.574 312.216 152.796 312.216 151.883Z" fill="white"/>
<path d="M289.053 151.883V141.971C289.053 141.058 289.376 140.28 290.021 139.635C290.666 138.99 291.445 138.667 292.357 138.667H303.379C303.536 138.667 303.662 138.722 303.756 138.832C303.866 138.927 303.921 139.052 303.921 139.21V141.428C303.921 141.586 303.866 141.719 303.756 141.829C303.662 141.924 303.536 141.971 303.379 141.971H292.9C292.743 141.971 292.609 142.026 292.499 142.136C292.405 142.231 292.357 142.356 292.357 142.514V144.732C292.357 144.89 292.405 145.023 292.499 145.133C292.609 145.228 292.743 145.275 292.9 145.275H303.379C303.536 145.275 303.662 145.33 303.756 145.44C303.866 145.535 303.921 145.66 303.921 145.818V148.036C303.921 148.194 303.866 148.327 303.756 148.437C303.662 148.532 303.536 148.579 303.379 148.579H292.9C292.743 148.579 292.609 148.634 292.499 148.744C292.405 148.839 292.357 148.964 292.357 149.122V151.34C292.357 151.498 292.405 151.631 292.499 151.741C292.609 151.836 292.743 151.883 292.9 151.883H303.379C303.536 151.883 303.662 151.938 303.756 152.048C303.866 152.143 303.921 152.268 303.921 152.426V154.644C303.921 154.802 303.866 154.935 303.756 155.045C303.662 155.14 303.536 155.187 303.379 155.187H292.357C291.445 155.187 290.666 154.864 290.021 154.219C289.376 153.574 289.053 152.796 289.053 151.883Z" fill="white"/>
<path d="M270.178 151.883V141.971C270.178 141.058 270.501 140.28 271.146 139.635C271.791 138.99 272.57 138.667 273.482 138.667H283.394C284.307 138.667 285.085 138.99 285.73 139.635C286.376 140.28 286.698 141.058 286.698 141.971V151.883C286.698 152.796 286.376 153.574 285.73 154.219C285.085 154.864 284.307 155.187 283.394 155.187H273.482C272.57 155.187 271.791 154.864 271.146 154.219C270.501 153.574 270.178 152.796 270.178 151.883ZM274.025 151.883H282.851C283.009 151.883 283.134 151.836 283.229 151.741C283.339 151.631 283.394 151.498 283.394 151.34V142.514C283.394 142.356 283.339 142.231 283.229 142.136C283.134 142.026 283.009 141.971 282.851 141.971H274.025C273.868 141.971 273.734 142.026 273.624 142.136C273.529 142.231 273.482 142.356 273.482 142.514V151.34C273.482 151.498 273.529 151.631 273.624 151.741C273.734 151.836 273.868 151.883 274.025 151.883Z" fill="white"/>
<path d="M255.126 151.883H263.953C264.11 151.883 264.236 151.836 264.33 151.741C264.441 151.631 264.496 151.498 264.496 151.34V149.122C264.496 148.964 264.441 148.839 264.33 148.744C264.236 148.634 264.11 148.579 263.953 148.579H255.126C254.969 148.579 254.835 148.634 254.725 148.744C254.631 148.839 254.584 148.964 254.584 149.122V151.34C254.584 151.498 254.631 151.631 254.725 151.741C254.835 151.836 254.969 151.883 255.126 151.883ZM255.126 145.275H263.953C264.11 145.275 264.236 145.228 264.33 145.133C264.441 145.023 264.496 144.89 264.496 144.732V142.514C264.496 142.356 264.441 142.231 264.33 142.136C264.236 142.026 264.11 141.971 263.953 141.971H255.126C254.969 141.971 254.835 142.026 254.725 142.136C254.631 142.231 254.584 142.356 254.584 142.514V144.732C254.584 144.89 254.631 145.023 254.725 145.133C254.835 145.228 254.969 145.275 255.126 145.275ZM251.28 151.883V141.971C251.28 141.058 251.602 140.28 252.247 139.635C252.892 138.99 253.671 138.667 254.584 138.667H264.496C265.408 138.667 266.187 138.99 266.832 139.635C267.477 140.28 267.8 141.058 267.8 141.971V144.095C267.8 144.882 267.524 145.55 266.974 146.101L266.148 146.927L266.974 147.753C267.524 148.304 267.8 148.972 267.8 149.759V151.883C267.8 152.796 267.477 153.574 266.832 154.219C266.187 154.864 265.408 155.187 264.496 155.187H254.584C253.671 155.187 252.892 154.864 252.247 154.219C251.602 153.574 251.28 152.796 251.28 151.883Z" fill="white"/>
<path d="M232.404 151.883V141.971C232.404 141.058 232.727 140.28 233.372 139.635C234.017 138.99 234.796 138.667 235.708 138.667H245.62C246.533 138.667 247.312 138.99 247.957 139.635C248.602 140.28 248.924 141.058 248.924 141.971V151.883C248.924 152.796 248.602 153.574 247.957 154.219C247.312 154.864 246.533 155.187 245.62 155.187H235.708C234.796 155.187 234.017 154.864 233.372 154.219C232.727 153.574 232.404 152.796 232.404 151.883ZM236.251 151.883H245.077C245.235 151.883 245.361 151.836 245.455 151.741C245.565 151.631 245.62 151.498 245.62 151.34V142.514C245.62 142.356 245.565 142.231 245.455 142.136C245.361 142.026 245.235 141.971 245.077 141.971H236.251C236.094 141.971 235.96 142.026 235.85 142.136C235.755 142.231 235.708 142.356 235.708 142.514V151.34C235.708 151.498 235.755 151.631 235.85 151.741C235.96 151.836 236.094 151.883 236.251 151.883Z" fill="white"/>
<path d="M226.179 141.971H217.353C217.195 141.971 217.062 142.026 216.951 142.136C216.857 142.231 216.81 142.356 216.81 142.514V148.036C216.81 148.194 216.857 148.327 216.951 148.437C217.062 148.532 217.195 148.579 217.353 148.579H226.179C226.336 148.579 226.462 148.532 226.557 148.437C226.667 148.327 226.722 148.194 226.722 148.036V142.514C226.722 142.356 226.667 142.231 226.557 142.136C226.462 142.026 226.336 141.971 226.179 141.971ZM213.506 154.644V141.971C213.506 141.058 213.828 140.28 214.473 139.635C215.119 138.99 215.897 138.667 216.81 138.667H226.722C227.634 138.667 228.413 138.99 229.058 139.635C229.703 140.28 230.026 141.058 230.026 141.971V148.579C230.026 149.492 229.703 150.27 229.058 150.915C228.413 151.56 227.634 151.883 226.722 151.883H217.353C217.195 151.883 217.062 151.938 216.951 152.048C216.857 152.143 216.81 152.268 216.81 152.426V154.644C216.81 154.802 216.755 154.935 216.645 155.045C216.55 155.14 216.424 155.187 216.267 155.187H214.049C213.891 155.187 213.758 155.14 213.647 155.045C213.553 154.935 213.506 154.802 213.506 154.644Z" fill="white"/>
<path d="M196.267 141.971C196.267 141.058 196.589 140.28 197.234 139.635C197.88 138.99 198.658 138.667 199.571 138.667H210.592C210.749 138.667 210.875 138.722 210.97 138.832C211.08 138.927 211.135 139.052 211.135 139.21V141.428C211.135 141.586 211.08 141.719 210.97 141.829C210.875 141.924 210.749 141.971 210.592 141.971H200.114C199.956 141.971 199.823 142.026 199.712 142.136C199.618 142.231 199.571 142.356 199.571 142.514V154.644C199.571 154.802 199.516 154.935 199.406 155.045C199.311 155.14 199.185 155.187 199.028 155.187H196.81C196.652 155.187 196.519 155.14 196.408 155.045C196.314 154.935 196.267 154.802 196.267 154.644V141.971Z" fill="white"/>
<path d="M193.911 154.644C193.911 154.786 193.856 154.912 193.746 155.022C193.636 155.132 193.502 155.187 193.345 155.187H191.15C190.993 155.187 190.859 155.132 190.749 155.022C190.655 154.912 190.607 154.786 190.607 154.644V144.284C190.607 144.126 190.568 144.04 190.489 144.024C190.426 143.993 190.34 144.032 190.23 144.142C186.312 148.705 183.252 152.245 181.049 154.762C180.829 155.045 180.53 155.187 180.153 155.187H177.934C177.777 155.187 177.643 155.132 177.533 155.022C177.439 154.912 177.391 154.786 177.391 154.644V139.21C177.391 139.068 177.439 138.942 177.533 138.832C177.643 138.722 177.777 138.667 177.934 138.667H180.153C180.294 138.667 180.42 138.722 180.53 138.832C180.64 138.942 180.695 139.068 180.695 139.21V149.594C180.695 149.688 180.735 149.751 180.813 149.783C180.908 149.798 180.986 149.775 181.049 149.712L190.23 139.092C190.481 138.809 190.788 138.667 191.15 138.667H193.345C193.502 138.667 193.636 138.722 193.746 138.832C193.856 138.942 193.911 139.068 193.911 139.21C193.896 139.21 193.896 141.782 193.911 146.927V154.644Z" fill="white"/>
<path d="M165.289 141.971H156.463C156.305 141.971 156.172 142.026 156.062 142.136C155.967 142.231 155.92 142.356 155.92 142.514V148.036C155.92 148.194 155.967 148.327 156.062 148.437C156.172 148.532 156.305 148.579 156.463 148.579H165.289C165.446 148.579 165.572 148.532 165.667 148.437C165.777 148.327 165.832 148.194 165.832 148.036V142.514C165.832 142.356 165.777 142.231 165.667 142.136C165.572 142.026 165.446 141.971 165.289 141.971ZM152.616 154.644V141.971C152.616 141.058 152.939 140.28 153.584 139.635C154.229 138.99 155.007 138.667 155.92 138.667H165.832C166.745 138.667 167.523 138.99 168.168 139.635C168.813 140.28 169.136 141.058 169.136 141.971V154.644C169.136 154.802 169.081 154.935 168.971 155.045C168.876 155.14 168.75 155.187 168.593 155.187H166.375C166.217 155.187 166.084 155.14 165.974 155.045C165.879 154.935 165.832 154.802 165.832 154.644V152.426C165.832 152.268 165.777 152.143 165.667 152.048C165.572 151.938 165.446 151.883 165.289 151.883H156.463C156.305 151.883 156.172 151.938 156.062 152.048C155.967 152.143 155.92 152.268 155.92 152.426V154.644C155.92 154.802 155.865 154.935 155.755 155.045C155.66 155.14 155.534 155.187 155.377 155.187H153.159C153.001 155.187 152.868 155.14 152.758 155.045C152.663 154.935 152.616 154.802 152.616 154.644Z" fill="white"/>
<path d="M133.718 154.621V139.187C133.718 139.03 133.765 138.904 133.859 138.809C133.969 138.699 134.103 138.644 134.26 138.644H136.479C136.636 138.644 136.762 138.699 136.856 138.809C136.966 138.904 137.022 139.03 137.022 139.187V144.709C137.022 144.867 137.069 145 137.163 145.11C137.273 145.205 137.407 145.252 137.564 145.252H146.391C146.548 145.252 146.674 145.205 146.768 145.11C146.878 145 146.934 144.867 146.934 144.709V139.187C146.934 139.03 146.981 138.904 147.075 138.809C147.185 138.699 147.319 138.644 147.476 138.644H149.695C149.852 138.644 149.978 138.699 150.072 138.809C150.182 138.904 150.238 139.03 150.238 139.187V154.621C150.238 154.779 150.182 154.912 150.072 155.022C149.978 155.117 149.852 155.164 149.695 155.164H147.476C147.319 155.164 147.185 155.117 147.075 155.022C146.981 154.912 146.934 154.779 146.934 154.621V149.099C146.934 148.942 146.878 148.816 146.768 148.721C146.674 148.611 146.548 148.556 146.391 148.556H137.564C137.407 148.556 137.273 148.611 137.163 148.721C137.069 148.816 137.022 148.942 137.022 149.099V154.621C137.022 154.779 136.966 154.912 136.856 155.022C136.762 155.117 136.636 155.164 136.479 155.164H134.26C134.103 155.164 133.969 155.117 133.859 155.022C133.765 154.912 133.718 154.779 133.718 154.621Z" fill="white"/>
<path d="M357.106 96.6507C357.106 96.4737 357.159 96.3321 357.265 96.2259C357.389 96.102 357.539 96.04 357.716 96.04H375.08C375.257 96.04 375.399 96.102 375.505 96.2259C375.629 96.3321 375.691 96.4737 375.691 96.6507V99.1464C375.691 99.3234 375.629 99.4738 375.505 99.5977C375.399 99.7039 375.257 99.757 375.08 99.757H368.867C368.69 99.757 368.54 99.819 368.416 99.9429C368.31 100.049 368.257 100.191 368.257 100.368V114.014C368.257 114.191 368.195 114.342 368.071 114.466C367.965 114.572 367.823 114.625 367.646 114.625H365.15C364.973 114.625 364.823 114.572 364.699 114.466C364.593 114.342 364.54 114.191 364.54 114.014V100.368C364.54 100.191 364.478 100.049 364.354 99.9429C364.248 99.819 364.106 99.757 363.929 99.757H357.716C357.539 99.757 357.389 99.7039 357.265 99.5977C357.159 99.4738 357.106 99.3234 357.106 99.1464V96.6507Z" fill="white"/>
<path d="M351.191 99.757H341.262C341.085 99.757 340.934 99.819 340.81 99.9429C340.704 100.049 340.651 100.191 340.651 100.368V106.58C340.651 106.757 340.704 106.908 340.81 107.032C340.934 107.138 341.085 107.191 341.262 107.191H351.191C351.368 107.191 351.51 107.138 351.616 107.032C351.74 106.908 351.802 106.757 351.802 106.58V100.368C351.802 100.191 351.74 100.049 351.616 99.9429C351.51 99.819 351.368 99.757 351.191 99.757ZM336.934 114.014V99.757C336.934 98.7304 337.297 97.8543 338.023 97.1286C338.748 96.4029 339.624 96.04 340.651 96.04H351.802C352.829 96.04 353.705 96.4029 354.43 97.1286C355.156 97.8543 355.519 98.7304 355.519 99.757V114.014C355.519 114.191 355.457 114.342 355.333 114.466C355.227 114.572 355.085 114.625 354.908 114.625H352.413C352.236 114.625 352.085 114.572 351.961 114.466C351.855 114.342 351.802 114.191 351.802 114.014V111.519C351.802 111.342 351.74 111.2 351.616 111.094C351.51 110.97 351.368 110.908 351.191 110.908H341.262C341.085 110.908 340.934 110.97 340.81 111.094C340.704 111.2 340.651 111.342 340.651 111.519V114.014C340.651 114.191 340.589 114.342 340.465 114.466C340.359 114.572 340.217 114.625 340.04 114.625H337.545C337.368 114.625 337.217 114.572 337.093 114.466C336.987 114.342 336.934 114.191 336.934 114.014Z" fill="white"/>
<path d="M316.814 114.014V96.6507C316.814 96.4737 316.867 96.3321 316.973 96.2259C317.097 96.102 317.248 96.04 317.425 96.04H319.92C320.097 96.04 320.239 96.102 320.345 96.2259C320.469 96.3321 320.531 96.4737 320.531 96.6507V102.863C320.531 103.04 320.584 103.191 320.69 103.315C320.814 103.421 320.965 103.474 321.142 103.474H323.451C323.876 103.474 324.213 103.315 324.46 102.996L330.089 96.5179C330.337 96.1993 330.673 96.04 331.098 96.04H334.788C334.912 96.04 334.992 96.0931 335.027 96.1993C335.063 96.2878 335.054 96.394 335.001 96.5179L327.779 104.855C327.496 105.173 327.496 105.492 327.779 105.81L335.001 114.147C335.054 114.271 335.063 114.377 335.027 114.466C334.992 114.572 334.912 114.625 334.788 114.625H331.098C330.673 114.625 330.337 114.466 330.089 114.147L324.46 107.669C324.213 107.35 323.876 107.191 323.451 107.191H321.142C320.965 107.191 320.814 107.253 320.69 107.377C320.584 107.483 320.531 107.625 320.531 107.802V114.014C320.531 114.191 320.469 114.342 320.345 114.466C320.239 114.572 320.097 114.625 319.92 114.625H317.425C317.248 114.625 317.097 114.572 316.973 114.466C316.867 114.342 316.814 114.191 316.814 114.014Z" fill="white"/>
<path d="M314.164 114.014C314.164 114.174 314.102 114.315 313.978 114.439C313.854 114.563 313.704 114.625 313.527 114.625H311.058C310.881 114.625 310.73 114.563 310.607 114.439C310.5 114.315 310.447 114.174 310.447 114.014V102.359C310.447 102.182 310.403 102.085 310.314 102.067C310.244 102.031 310.146 102.076 310.022 102.2C305.615 107.333 302.172 111.315 299.694 114.147C299.447 114.466 299.11 114.625 298.686 114.625H296.19C296.013 114.625 295.862 114.563 295.739 114.439C295.632 114.315 295.579 114.174 295.579 114.014V96.6507C295.579 96.4914 295.632 96.3498 295.739 96.2259C295.862 96.102 296.013 96.04 296.19 96.04H298.686C298.845 96.04 298.986 96.102 299.11 96.2259C299.234 96.3498 299.296 96.4914 299.296 96.6507V108.333C299.296 108.439 299.34 108.51 299.429 108.545C299.535 108.563 299.624 108.536 299.694 108.465L310.022 96.5179C310.306 96.1993 310.651 96.04 311.058 96.04H313.527C313.704 96.04 313.854 96.102 313.978 96.2259C314.102 96.3498 314.164 96.4914 314.164 96.6507C314.147 96.6507 314.147 99.5446 314.164 105.333V114.014Z" fill="white"/>
<path d="M277.418 99.757H271.205C271.028 99.757 270.877 99.819 270.753 99.9429C270.647 100.049 270.594 100.191 270.594 100.368V106.58C270.594 106.757 270.647 106.908 270.753 107.032C270.877 107.138 271.028 107.191 271.205 107.191H277.418C277.595 107.191 277.736 107.138 277.842 107.032C277.966 106.908 278.028 106.757 278.028 106.58V100.368C278.028 100.191 277.966 100.049 277.842 99.9429C277.736 99.819 277.595 99.757 277.418 99.757ZM288.569 99.757H282.356C282.179 99.757 282.028 99.819 281.904 99.9429C281.798 100.049 281.745 100.191 281.745 100.368V106.58C281.745 106.757 281.798 106.908 281.904 107.032C282.028 107.138 282.179 107.191 282.356 107.191H288.569C288.746 107.191 288.887 107.138 288.993 107.032C289.117 106.908 289.179 106.757 289.179 106.58V100.368C289.179 100.191 289.117 100.049 288.993 99.9429C288.887 99.819 288.746 99.757 288.569 99.757ZM266.877 107.191V99.757C266.877 98.7304 267.24 97.8543 267.966 97.1286C268.691 96.4029 269.568 96.04 270.594 96.04H289.179C290.206 96.04 291.082 96.4029 291.808 97.1286C292.533 97.8543 292.896 98.7304 292.896 99.757V107.191C292.896 108.218 292.533 109.094 291.808 109.819C291.082 110.545 290.206 110.908 289.179 110.908H282.356C282.179 110.908 282.028 110.97 281.904 111.094C281.798 111.2 281.745 111.342 281.745 111.519V114.014C281.745 114.191 281.683 114.342 281.559 114.466C281.453 114.572 281.312 114.625 281.135 114.625H278.639C278.462 114.625 278.311 114.572 278.187 114.466C278.081 114.342 278.028 114.191 278.028 114.014V111.519C278.028 111.342 277.966 111.2 277.842 111.094C277.736 110.97 277.595 110.908 277.418 110.908H270.594C269.568 110.908 268.691 110.545 267.966 109.819C267.24 109.094 266.877 108.218 266.877 107.191Z" fill="white"/>
<path d="M264.227 114.014C264.227 114.174 264.165 114.315 264.041 114.439C263.918 114.563 263.767 114.625 263.59 114.625H261.121C260.944 114.625 260.794 114.563 260.67 114.439C260.563 114.315 260.51 114.174 260.51 114.014V102.359C260.51 102.182 260.466 102.085 260.378 102.067C260.307 102.031 260.209 102.076 260.086 102.2C255.678 107.333 252.236 111.315 249.758 114.147C249.51 114.466 249.173 114.625 248.749 114.625H246.253C246.076 114.625 245.926 114.563 245.802 114.439C245.695 114.315 245.642 114.174 245.642 114.014V96.6507C245.642 96.4914 245.695 96.3498 245.802 96.2259C245.926 96.102 246.076 96.04 246.253 96.04H248.749C248.908 96.04 249.05 96.102 249.173 96.2259C249.297 96.3498 249.359 96.4914 249.359 96.6507V108.333C249.359 108.439 249.404 108.51 249.492 108.545C249.598 108.563 249.687 108.536 249.758 108.465L260.086 96.5179C260.369 96.1993 260.714 96.04 261.121 96.04H263.59C263.767 96.04 263.918 96.102 264.041 96.2259C264.165 96.3498 264.227 96.4914 264.227 96.6507C264.21 96.6507 264.21 99.5446 264.227 105.333V114.014Z" fill="white"/>
<path d="M224.641 96.6507C224.641 96.4737 224.694 96.3321 224.8 96.2259C224.924 96.102 225.075 96.04 225.252 96.04H242.615C242.792 96.04 242.934 96.102 243.04 96.2259C243.164 96.3321 243.226 96.4737 243.226 96.6507V99.1464C243.226 99.3234 243.164 99.4738 243.04 99.5977C242.934 99.7039 242.792 99.757 242.615 99.757H236.403C236.226 99.757 236.075 99.819 235.951 99.9429C235.845 100.049 235.792 100.191 235.792 100.368V114.014C235.792 114.191 235.73 114.342 235.606 114.466C235.5 114.572 235.358 114.625 235.181 114.625H232.686C232.509 114.625 232.358 114.572 232.234 114.466C232.128 114.342 232.075 114.191 232.075 114.014V100.368C232.075 100.191 232.013 100.049 231.889 99.9429C231.783 99.819 231.641 99.757 231.464 99.757H225.252C225.075 99.757 224.924 99.7039 224.8 99.5977C224.694 99.4738 224.641 99.3234 224.641 99.1464V96.6507Z" fill="white"/>
<path d="M218.156 99.757H208.226C208.049 99.757 207.899 99.819 207.775 99.9429C207.669 100.049 207.616 100.191 207.616 100.368V106.58C207.616 106.757 207.669 106.908 207.775 107.032C207.899 107.138 208.049 107.191 208.226 107.191H218.156C218.333 107.191 218.475 107.138 218.581 107.032C218.705 106.908 218.767 106.757 218.767 106.58V100.368C218.767 100.191 218.705 100.049 218.581 99.9429C218.475 99.819 218.333 99.757 218.156 99.757ZM203.899 114.014V99.757C203.899 98.7304 204.262 97.8543 204.987 97.1286C205.713 96.4029 206.589 96.04 207.616 96.04H218.767C219.793 96.04 220.669 96.4029 221.395 97.1286C222.121 97.8543 222.484 98.7304 222.484 99.757V107.191C222.484 108.218 222.121 109.094 221.395 109.819C220.669 110.545 219.793 110.908 218.767 110.908H208.226C208.049 110.908 207.899 110.97 207.775 111.094C207.669 111.2 207.616 111.342 207.616 111.519V114.014C207.616 114.191 207.554 114.342 207.43 114.466C207.324 114.572 207.182 114.625 207.005 114.625H204.509C204.332 114.625 204.182 114.572 204.058 114.466C203.952 114.342 203.899 114.191 203.899 114.014Z" fill="white"/>
<path d="M184.479 110.908V99.757C184.479 98.7304 184.842 97.8543 185.567 97.1286C186.293 96.4029 187.169 96.04 188.196 96.04H200.595C200.772 96.04 200.913 96.102 201.02 96.2259C201.143 96.3321 201.205 96.4737 201.205 96.6507V99.1464C201.205 99.3234 201.143 99.4738 201.02 99.5977C200.913 99.7039 200.772 99.757 200.595 99.757H188.807C188.63 99.757 188.479 99.819 188.355 99.9429C188.249 100.049 188.196 100.191 188.196 100.368V102.863C188.196 103.04 188.249 103.191 188.355 103.315C188.479 103.421 188.63 103.474 188.807 103.474H200.595C200.772 103.474 200.913 103.536 201.02 103.66C201.143 103.766 201.205 103.908 201.205 104.085V106.58C201.205 106.757 201.143 106.908 201.02 107.032C200.913 107.138 200.772 107.191 200.595 107.191H188.807C188.63 107.191 188.479 107.253 188.355 107.377C188.249 107.483 188.196 107.625 188.196 107.802V110.297C188.196 110.474 188.249 110.625 188.355 110.749C188.479 110.855 188.63 110.908 188.807 110.908H200.595C200.772 110.908 200.913 110.97 201.02 111.094C201.143 111.2 201.205 111.342 201.205 111.519V114.014C201.205 114.191 201.143 114.342 201.02 114.466C200.913 114.572 200.772 114.625 200.595 114.625H188.196C187.169 114.625 186.293 114.262 185.567 113.536C184.842 112.811 184.479 111.935 184.479 110.908Z" fill="white"/>
<path d="M165.578 110.908V99.757C165.578 98.7304 165.94 97.8543 166.666 97.1286C167.392 96.4029 168.268 96.04 169.295 96.04H181.693C181.87 96.04 182.012 96.102 182.118 96.2259C182.242 96.3321 182.304 96.4737 182.304 96.6507V99.1464C182.304 99.3234 182.242 99.4738 182.118 99.5977C182.012 99.7039 181.87 99.757 181.693 99.757H169.905C169.728 99.757 169.578 99.819 169.454 99.9429C169.348 100.049 169.295 100.191 169.295 100.368V110.297C169.295 110.474 169.348 110.625 169.454 110.749C169.578 110.855 169.728 110.908 169.905 110.908H181.693C181.87 110.908 182.012 110.97 182.118 111.094C182.242 111.2 182.304 111.342 182.304 111.519V114.014C182.304 114.191 182.242 114.342 182.118 114.466C182.012 114.572 181.87 114.625 181.693 114.625H169.295C168.268 114.625 167.392 114.262 166.666 113.536C165.94 112.811 165.578 111.935 165.578 110.908Z" fill="white"/>
<rect x="63" y="185" width="413" height="39" rx="14" fill="#121212" stroke="white" stroke-width="2"/>
<path d="M435.795 212.264L441.318 204.901C441.538 204.586 441.538 204.287 441.318 204.004L435.795 196.641C435.701 196.515 435.669 196.413 435.701 196.334C435.748 196.24 435.85 196.192 436.008 196.192H439.028C439.406 196.192 439.705 196.342 439.925 196.641L443.394 201.266C443.473 201.377 443.583 201.432 443.725 201.432C443.866 201.432 443.977 201.377 444.055 201.266L447.524 196.641C447.745 196.342 448.036 196.192 448.398 196.192H451.418C451.576 196.192 451.678 196.24 451.725 196.334C451.772 196.413 451.749 196.515 451.654 196.641C449.2 199.913 447.351 202.368 446.108 204.004C445.92 204.303 445.92 204.602 446.108 204.901L451.654 212.264C451.749 212.374 451.772 212.476 451.725 212.571C451.678 212.665 451.576 212.712 451.418 212.712H448.398C448.036 212.712 447.745 212.563 447.524 212.264L444.055 207.638C443.977 207.528 443.866 207.473 443.725 207.473C443.583 207.473 443.473 207.528 443.394 207.638L439.925 212.264C439.705 212.563 439.406 212.712 439.028 212.712H436.008C435.85 212.712 435.748 212.665 435.701 212.571C435.669 212.476 435.701 212.374 435.795 212.264Z" fill="white"/>
<path d="M417.611 212.264L423.133 204.901C423.354 204.586 423.354 204.287 423.133 204.004L417.611 196.641C417.517 196.515 417.485 196.413 417.517 196.334C417.564 196.24 417.666 196.192 417.823 196.192H420.844C421.222 196.192 421.521 196.342 421.741 196.641L425.21 201.266C425.289 201.377 425.399 201.432 425.541 201.432C425.682 201.432 425.792 201.377 425.871 201.266L429.34 196.641C429.561 196.342 429.852 196.192 430.213 196.192H433.234C433.392 196.192 433.494 196.24 433.541 196.334C433.588 196.413 433.565 196.515 433.47 196.641C431.016 199.913 429.167 202.368 427.924 204.004C427.735 204.303 427.735 204.602 427.924 204.901L433.47 212.264C433.565 212.374 433.588 212.476 433.541 212.571C433.494 212.665 433.392 212.712 433.234 212.712H430.213C429.852 212.712 429.561 212.563 429.34 212.264L425.871 207.638C425.792 207.528 425.682 207.473 425.541 207.473C425.399 207.473 425.289 207.528 425.21 207.638L421.741 212.264C421.521 212.563 421.222 212.712 420.844 212.712H417.823C417.666 212.712 417.564 212.665 417.517 212.571C417.485 212.476 417.517 212.374 417.611 212.264Z" fill="white"/>
<path d="M399.427 212.264L404.95 204.901C405.17 204.586 405.17 204.287 404.95 204.004L399.427 196.641C399.333 196.515 399.301 196.413 399.333 196.334C399.38 196.24 399.482 196.192 399.64 196.192H402.66C403.038 196.192 403.337 196.342 403.557 196.641L407.026 201.266C407.105 201.377 407.215 201.432 407.357 201.432C407.498 201.432 407.608 201.377 407.687 201.266L411.156 196.641C411.377 196.342 411.668 196.192 412.03 196.192H415.05C415.208 196.192 415.31 196.24 415.357 196.334C415.404 196.413 415.381 196.515 415.286 196.641C412.832 199.913 410.983 202.368 409.74 204.004C409.552 204.303 409.552 204.602 409.74 204.901L415.286 212.264C415.381 212.374 415.404 212.476 415.357 212.571C415.31 212.665 415.208 212.712 415.05 212.712H412.03C411.668 212.712 411.377 212.563 411.156 212.264L407.687 207.638C407.608 207.528 407.498 207.473 407.357 207.473C407.215 207.473 407.105 207.528 407.026 207.638L403.557 212.264C403.337 212.563 403.038 212.712 402.66 212.712H399.64C399.482 212.712 399.38 212.665 399.333 212.571C399.301 212.476 399.333 212.374 399.427 212.264Z" fill="white"/>
<path d="M381.243 212.264L386.766 204.901C386.986 204.586 386.986 204.287 386.766 204.004L381.243 196.641C381.149 196.515 381.117 196.413 381.149 196.334C381.196 196.24 381.298 196.192 381.456 196.192H384.476C384.854 196.192 385.153 196.342 385.373 196.641L388.842 201.266C388.921 201.377 389.031 201.432 389.173 201.432C389.314 201.432 389.424 201.377 389.503 201.266L392.972 196.641C393.193 196.342 393.484 196.192 393.846 196.192H396.866C397.024 196.192 397.126 196.24 397.173 196.334C397.22 196.413 397.197 196.515 397.102 196.641C394.648 199.913 392.799 202.368 391.556 204.004C391.368 204.303 391.368 204.602 391.556 204.901L397.102 212.264C397.197 212.374 397.22 212.476 397.173 212.571C397.126 212.665 397.024 212.712 396.866 212.712H393.846C393.484 212.712 393.193 212.563 392.972 212.264L389.503 207.638C389.424 207.528 389.314 207.473 389.173 207.473C389.031 207.473 388.921 207.528 388.842 207.638L385.373 212.264C385.153 212.563 384.854 212.712 384.476 212.712H381.456C381.298 212.712 381.196 212.665 381.149 212.571C381.117 212.476 381.149 212.374 381.243 212.264Z" fill="white"/>
<path d="M363.059 212.264L368.581 204.901C368.802 204.586 368.802 204.287 368.581 204.004L363.059 196.641C362.965 196.515 362.933 196.413 362.965 196.334C363.012 196.24 363.114 196.192 363.271 196.192H366.292C366.67 196.192 366.969 196.342 367.189 196.641L370.658 201.266C370.737 201.377 370.847 201.432 370.989 201.432C371.13 201.432 371.24 201.377 371.319 201.266L374.788 196.641C375.009 196.342 375.3 196.192 375.661 196.192H378.682C378.84 196.192 378.942 196.24 378.989 196.334C379.036 196.413 379.013 196.515 378.918 196.641C376.464 199.913 374.615 202.368 373.372 204.004C373.183 204.303 373.183 204.602 373.372 204.901L378.918 212.264C379.013 212.374 379.036 212.476 378.989 212.571C378.942 212.665 378.84 212.712 378.682 212.712H375.661C375.3 212.712 375.009 212.563 374.788 212.264L371.319 207.638C371.24 207.528 371.13 207.473 370.989 207.473C370.847 207.473 370.737 207.528 370.658 207.638L367.189 212.264C366.969 212.563 366.67 212.712 366.292 212.712H363.271C363.114 212.712 363.012 212.665 362.965 212.571C362.933 212.476 362.965 212.374 363.059 212.264Z" fill="white"/>
<path d="M344.875 212.264L350.398 204.901C350.618 204.586 350.618 204.287 350.398 204.004L344.875 196.641C344.781 196.515 344.749 196.413 344.781 196.334C344.828 196.24 344.93 196.192 345.088 196.192H348.108C348.486 196.192 348.785 196.342 349.005 196.641L352.474 201.266C352.553 201.377 352.663 201.432 352.805 201.432C352.946 201.432 353.056 201.377 353.135 201.266L356.604 196.641C356.825 196.342 357.116 196.192 357.478 196.192H360.498C360.656 196.192 360.758 196.24 360.805 196.334C360.852 196.413 360.829 196.515 360.734 196.641C358.28 199.913 356.431 202.368 355.188 204.004C355 204.303 355 204.602 355.188 204.901L360.734 212.264C360.829 212.374 360.852 212.476 360.805 212.571C360.758 212.665 360.656 212.712 360.498 212.712H357.478C357.116 212.712 356.825 212.563 356.604 212.264L353.135 207.638C353.056 207.528 352.946 207.473 352.805 207.473C352.663 207.473 352.553 207.528 352.474 207.638L349.005 212.264C348.785 212.563 348.486 212.712 348.108 212.712H345.088C344.93 212.712 344.828 212.665 344.781 212.571C344.749 212.476 344.781 212.374 344.875 212.264Z" fill="white"/>
<path d="M326.691 212.264L332.214 204.901C332.434 204.586 332.434 204.287 332.214 204.004L326.691 196.641C326.597 196.515 326.565 196.413 326.597 196.334C326.644 196.24 326.746 196.192 326.904 196.192H329.924C330.302 196.192 330.601 196.342 330.821 196.641L334.29 201.266C334.369 201.377 334.479 201.432 334.621 201.432C334.762 201.432 334.872 201.377 334.951 201.266L338.42 196.641C338.641 196.342 338.932 196.192 339.294 196.192H342.314C342.472 196.192 342.574 196.24 342.621 196.334C342.668 196.413 342.645 196.515 342.55 196.641C340.096 199.913 338.247 202.368 337.004 204.004C336.816 204.303 336.816 204.602 337.004 204.901L342.55 212.264C342.645 212.374 342.668 212.476 342.621 212.571C342.574 212.665 342.472 212.712 342.314 212.712H339.294C338.932 212.712 338.641 212.563 338.42 212.264L334.951 207.638C334.872 207.528 334.762 207.473 334.621 207.473C334.479 207.473 334.369 207.528 334.29 207.638L330.821 212.264C330.601 212.563 330.302 212.712 329.924 212.712H326.904C326.746 212.712 326.644 212.665 326.597 212.571C326.565 212.476 326.597 212.374 326.691 212.264Z" fill="white"/>
<path d="M308.507 212.264L314.03 204.901C314.25 204.586 314.25 204.287 314.03 204.004L308.507 196.641C308.413 196.515 308.381 196.413 308.413 196.334C308.46 196.24 308.562 196.192 308.72 196.192H311.74C312.118 196.192 312.417 196.342 312.637 196.641L316.106 201.266C316.185 201.377 316.295 201.432 316.437 201.432C316.578 201.432 316.689 201.377 316.767 201.266L320.236 196.641C320.457 196.342 320.748 196.192 321.11 196.192H324.13C324.288 196.192 324.39 196.24 324.437 196.334C324.484 196.413 324.461 196.515 324.366 196.641C321.912 199.913 320.063 202.368 318.82 204.004C318.632 204.303 318.632 204.602 318.82 204.901L324.366 212.264C324.461 212.374 324.484 212.476 324.437 212.571C324.39 212.665 324.288 212.712 324.13 212.712H321.11C320.748 212.712 320.457 212.563 320.236 212.264L316.767 207.638C316.689 207.528 316.578 207.473 316.437 207.473C316.295 207.473 316.185 207.528 316.106 207.638L312.637 212.264C312.417 212.563 312.118 212.712 311.74 212.712H308.72C308.562 212.712 308.46 212.665 308.413 212.571C308.381 212.476 308.413 212.374 308.507 212.264Z" fill="white"/>
<path d="M290.323 212.264L295.846 204.901C296.066 204.586 296.066 204.287 295.846 204.004L290.323 196.641C290.229 196.515 290.197 196.413 290.229 196.334C290.276 196.24 290.378 196.192 290.536 196.192H293.556C293.934 196.192 294.233 196.342 294.453 196.641L297.922 201.266C298.001 201.377 298.111 201.432 298.253 201.432C298.394 201.432 298.505 201.377 298.583 201.266L302.052 196.641C302.273 196.342 302.564 196.192 302.926 196.192H305.946C306.104 196.192 306.206 196.24 306.253 196.334C306.3 196.413 306.277 196.515 306.182 196.641C303.728 199.913 301.879 202.368 300.636 204.004C300.448 204.303 300.448 204.602 300.636 204.901L306.182 212.264C306.277 212.374 306.3 212.476 306.253 212.571C306.206 212.665 306.104 212.712 305.946 212.712H302.926C302.564 212.712 302.273 212.563 302.052 212.264L298.583 207.638C298.505 207.528 298.394 207.473 298.253 207.473C298.111 207.473 298.001 207.528 297.922 207.638L294.453 212.264C294.233 212.563 293.934 212.712 293.556 212.712H290.536C290.378 212.712 290.276 212.665 290.229 212.571C290.197 212.476 290.229 212.374 290.323 212.264Z" fill="white"/>
<path d="M272.139 212.264L277.662 204.901C277.882 204.586 277.882 204.287 277.662 204.004L272.139 196.641C272.045 196.515 272.013 196.413 272.045 196.334C272.092 196.24 272.194 196.192 272.352 196.192H275.372C275.75 196.192 276.049 196.342 276.269 196.641L279.738 201.266C279.817 201.377 279.927 201.432 280.069 201.432C280.21 201.432 280.321 201.377 280.399 201.266L283.868 196.641C284.089 196.342 284.38 196.192 284.742 196.192H287.762C287.92 196.192 288.022 196.24 288.069 196.334C288.116 196.413 288.093 196.515 287.998 196.641C285.544 199.913 283.695 202.368 282.452 204.004C282.264 204.303 282.264 204.602 282.452 204.901L287.998 212.264C288.093 212.374 288.116 212.476 288.069 212.571C288.022 212.665 287.92 212.712 287.762 212.712H284.742C284.38 212.712 284.089 212.563 283.868 212.264L280.399 207.638C280.321 207.528 280.21 207.473 280.069 207.473C279.927 207.473 279.817 207.528 279.738 207.638L276.269 212.264C276.049 212.563 275.75 212.712 275.372 212.712H272.352C272.194 212.712 272.092 212.665 272.045 212.571C272.013 212.476 272.045 212.374 272.139 212.264Z" fill="white"/>
<path d="M253.955 212.264L259.478 204.901C259.698 204.586 259.698 204.287 259.478 204.004L253.955 196.641C253.861 196.515 253.829 196.413 253.861 196.334C253.908 196.24 254.01 196.192 254.168 196.192H257.188C257.566 196.192 257.865 196.342 258.085 196.641L261.554 201.266C261.633 201.377 261.743 201.432 261.885 201.432C262.026 201.432 262.137 201.377 262.215 201.266L265.684 196.641C265.905 196.342 266.196 196.192 266.558 196.192H269.578C269.736 196.192 269.838 196.24 269.885 196.334C269.932 196.413 269.909 196.515 269.814 196.641C267.36 199.913 265.511 202.368 264.268 204.004C264.08 204.303 264.08 204.602 264.268 204.901L269.814 212.264C269.909 212.374 269.932 212.476 269.885 212.571C269.838 212.665 269.736 212.712 269.578 212.712H266.558C266.196 212.712 265.905 212.563 265.684 212.264L262.215 207.638C262.137 207.528 262.026 207.473 261.885 207.473C261.743 207.473 261.633 207.528 261.554 207.638L258.085 212.264C257.865 212.563 257.566 212.712 257.188 212.712H254.168C254.01 212.712 253.908 212.665 253.861 212.571C253.829 212.476 253.861 212.374 253.955 212.264Z" fill="white"/>
<path d="M235.771 212.264L241.294 204.901C241.514 204.586 241.514 204.287 241.294 204.004L235.771 196.641C235.677 196.515 235.645 196.413 235.677 196.334C235.724 196.24 235.826 196.192 235.984 196.192H239.004C239.382 196.192 239.681 196.342 239.901 196.641L243.37 201.266C243.449 201.377 243.559 201.432 243.701 201.432C243.842 201.432 243.953 201.377 244.031 201.266L247.5 196.641C247.721 196.342 248.012 196.192 248.374 196.192H251.394C251.552 196.192 251.654 196.24 251.701 196.334C251.748 196.413 251.725 196.515 251.63 196.641C249.176 199.913 247.327 202.368 246.084 204.004C245.896 204.303 245.896 204.602 246.084 204.901L251.63 212.264C251.725 212.374 251.748 212.476 251.701 212.571C251.654 212.665 251.552 212.712 251.394 212.712H248.374C248.012 212.712 247.721 212.563 247.5 212.264L244.031 207.638C243.953 207.528 243.842 207.473 243.701 207.473C243.559 207.473 243.449 207.528 243.37 207.638L239.901 212.264C239.681 212.563 239.382 212.712 239.004 212.712H235.984C235.826 212.712 235.724 212.665 235.677 212.571C235.645 212.476 235.677 212.374 235.771 212.264Z" fill="white"/>
<path d="M217.587 212.264L223.11 204.901C223.33 204.586 223.33 204.287 223.11 204.004L217.587 196.641C217.493 196.515 217.461 196.413 217.493 196.334C217.54 196.24 217.642 196.192 217.8 196.192H220.82C221.198 196.192 221.497 196.342 221.717 196.641L225.186 201.266C225.265 201.377 225.375 201.432 225.517 201.432C225.658 201.432 225.769 201.377 225.847 201.266L229.316 196.641C229.537 196.342 229.828 196.192 230.19 196.192H233.21C233.368 196.192 233.47 196.24 233.517 196.334C233.564 196.413 233.541 196.515 233.446 196.641C230.992 199.913 229.143 202.368 227.9 204.004C227.712 204.303 227.712 204.602 227.9 204.901L233.446 212.264C233.541 212.374 233.564 212.476 233.517 212.571C233.47 212.665 233.368 212.712 233.21 212.712H230.19C229.828 212.712 229.537 212.563 229.316 212.264L225.847 207.638C225.769 207.528 225.658 207.473 225.517 207.473C225.375 207.473 225.265 207.528 225.186 207.638L221.717 212.264C221.497 212.563 221.198 212.712 220.82 212.712H217.8C217.642 212.712 217.54 212.665 217.493 212.571C217.461 212.476 217.493 212.374 217.587 212.264Z" fill="white"/>
<path d="M199.403 212.264L204.926 204.901C205.146 204.586 205.146 204.287 204.926 204.004L199.403 196.641C199.309 196.515 199.277 196.413 199.309 196.334C199.356 196.24 199.458 196.192 199.616 196.192H202.637C203.014 196.192 203.313 196.342 203.533 196.641L207.003 201.266C207.081 201.377 207.191 201.432 207.333 201.432C207.475 201.432 207.585 201.377 207.663 201.266L211.133 196.641C211.353 196.342 211.644 196.192 212.006 196.192H215.027C215.184 196.192 215.286 196.24 215.333 196.334C215.381 196.413 215.357 196.515 215.263 196.641C212.808 199.913 210.959 202.368 209.717 204.004C209.528 204.303 209.528 204.602 209.717 204.901L215.263 212.264C215.357 212.374 215.381 212.476 215.333 212.571C215.286 212.665 215.184 212.712 215.027 212.712H212.006C211.644 212.712 211.353 212.563 211.133 212.264L207.663 207.638C207.585 207.528 207.475 207.473 207.333 207.473C207.191 207.473 207.081 207.528 207.003 207.638L203.533 212.264C203.313 212.563 203.014 212.712 202.637 212.712H199.616C199.458 212.712 199.356 212.665 199.309 212.571C199.277 212.476 199.309 212.374 199.403 212.264Z" fill="white"/>
<path d="M181.219 212.264L186.742 204.901C186.962 204.586 186.962 204.287 186.742 204.004L181.219 196.641C181.125 196.515 181.093 196.413 181.125 196.334C181.172 196.24 181.274 196.192 181.432 196.192H184.453C184.83 196.192 185.129 196.342 185.349 196.641L188.819 201.266C188.897 201.377 189.007 201.432 189.149 201.432C189.291 201.432 189.401 201.377 189.479 201.266L192.949 196.641C193.169 196.342 193.46 196.192 193.822 196.192H196.843C197 196.192 197.102 196.24 197.149 196.334C197.197 196.413 197.173 196.515 197.079 196.641C194.624 199.913 192.775 202.368 191.533 204.004C191.344 204.303 191.344 204.602 191.533 204.901L197.079 212.264C197.173 212.374 197.197 212.476 197.149 212.571C197.102 212.665 197 212.712 196.843 212.712H193.822C193.46 212.712 193.169 212.563 192.949 212.264L189.479 207.638C189.401 207.528 189.291 207.473 189.149 207.473C189.007 207.473 188.897 207.528 188.819 207.638L185.349 212.264C185.129 212.563 184.83 212.712 184.453 212.712H181.432C181.274 212.712 181.172 212.665 181.125 212.571C181.093 212.476 181.125 212.374 181.219 212.264Z" fill="white"/>
<path d="M163.035 212.264L168.558 204.901C168.778 204.586 168.778 204.287 168.558 204.004L163.035 196.641C162.941 196.515 162.909 196.413 162.941 196.334C162.988 196.24 163.09 196.192 163.248 196.192H166.268C166.646 196.192 166.945 196.342 167.165 196.641L170.634 201.266C170.713 201.377 170.823 201.432 170.965 201.432C171.106 201.432 171.217 201.377 171.295 201.266L174.764 196.641C174.985 196.342 175.276 196.192 175.638 196.192H178.658C178.816 196.192 178.918 196.24 178.965 196.334C179.012 196.413 178.989 196.515 178.894 196.641C176.44 199.913 174.591 202.368 173.348 204.004C173.16 204.303 173.16 204.602 173.348 204.901L178.894 212.264C178.989 212.374 179.012 212.476 178.965 212.571C178.918 212.665 178.816 212.712 178.658 212.712H175.638C175.276 212.712 174.985 212.563 174.764 212.264L171.295 207.638C171.217 207.528 171.106 207.473 170.965 207.473C170.823 207.473 170.713 207.528 170.634 207.638L167.165 212.264C166.945 212.563 166.646 212.712 166.268 212.712H163.248C163.09 212.712 162.988 212.665 162.941 212.571C162.909 212.476 162.941 212.374 163.035 212.264Z" fill="white"/>
<path d="M144.851 212.264L150.374 204.901C150.594 204.586 150.594 204.287 150.374 204.004L144.851 196.641C144.757 196.515 144.725 196.413 144.757 196.334C144.804 196.24 144.906 196.192 145.064 196.192H148.085C148.462 196.192 148.761 196.342 148.981 196.641L152.451 201.266C152.529 201.377 152.639 201.432 152.781 201.432C152.923 201.432 153.033 201.377 153.111 201.266L156.581 196.641C156.801 196.342 157.092 196.192 157.454 196.192H160.475C160.632 196.192 160.734 196.24 160.781 196.334C160.829 196.413 160.805 196.515 160.711 196.641C158.256 199.913 156.407 202.368 155.165 204.004C154.976 204.303 154.976 204.602 155.165 204.901L160.711 212.264C160.805 212.374 160.829 212.476 160.781 212.571C160.734 212.665 160.632 212.712 160.475 212.712H157.454C157.092 212.712 156.801 212.563 156.581 212.264L153.111 207.638C153.033 207.528 152.923 207.473 152.781 207.473C152.639 207.473 152.529 207.528 152.451 207.638L148.981 212.264C148.761 212.563 148.462 212.712 148.085 212.712H145.064C144.906 212.712 144.804 212.665 144.757 212.571C144.725 212.476 144.757 212.374 144.851 212.264Z" fill="white"/>
<path d="M126.667 212.264L132.19 204.901C132.41 204.586 132.41 204.287 132.19 204.004L126.667 196.641C126.573 196.515 126.541 196.413 126.573 196.334C126.62 196.24 126.722 196.192 126.88 196.192H129.901C130.278 196.192 130.577 196.342 130.797 196.641L134.267 201.266C134.345 201.377 134.455 201.432 134.597 201.432C134.739 201.432 134.849 201.377 134.927 201.266L138.397 196.641C138.617 196.342 138.908 196.192 139.27 196.192H142.291C142.448 196.192 142.55 196.24 142.597 196.334C142.645 196.413 142.621 196.515 142.527 196.641C140.072 199.913 138.223 202.368 136.981 204.004C136.792 204.303 136.792 204.602 136.981 204.901L142.527 212.264C142.621 212.374 142.645 212.476 142.597 212.571C142.55 212.665 142.448 212.712 142.291 212.712H139.27C138.908 212.712 138.617 212.563 138.397 212.264L134.927 207.638C134.849 207.528 134.739 207.473 134.597 207.473C134.455 207.473 134.345 207.528 134.267 207.638L130.797 212.264C130.577 212.563 130.278 212.712 129.901 212.712H126.88C126.722 212.712 126.62 212.665 126.573 212.571C126.541 212.476 126.573 212.374 126.667 212.264Z" fill="white"/>
<path d="M108.483 212.264L114.006 204.901C114.226 204.586 114.226 204.287 114.006 204.004L108.483 196.641C108.389 196.515 108.358 196.413 108.389 196.334C108.436 196.24 108.538 196.192 108.696 196.192H111.717C112.094 196.192 112.393 196.342 112.613 196.641L116.083 201.266C116.161 201.377 116.271 201.432 116.413 201.432C116.555 201.432 116.665 201.377 116.743 201.266L120.213 196.641C120.433 196.342 120.724 196.192 121.086 196.192H124.107C124.264 196.192 124.366 196.24 124.413 196.334C124.461 196.413 124.437 196.515 124.343 196.641C121.888 199.913 120.04 202.368 118.797 204.004C118.608 204.303 118.608 204.602 118.797 204.901L124.343 212.264C124.437 212.374 124.461 212.476 124.413 212.571C124.366 212.665 124.264 212.712 124.107 212.712H121.086C120.724 212.712 120.433 212.563 120.213 212.264L116.743 207.638C116.665 207.528 116.555 207.473 116.413 207.473C116.271 207.473 116.161 207.528 116.083 207.638L112.613 212.264C112.393 212.563 112.094 212.712 111.717 212.712H108.696C108.538 212.712 108.436 212.665 108.389 212.571C108.358 212.476 108.389 212.374 108.483 212.264Z" fill="white"/>
<path d="M90.2994 212.264L95.8218 204.901C96.0421 204.586 96.0421 204.287 95.8218 204.004L90.2994 196.641C90.205 196.515 90.1736 196.413 90.205 196.334C90.2522 196.24 90.3545 196.192 90.5118 196.192H93.5326C93.9102 196.192 94.2092 196.342 94.4294 196.641L97.8986 201.266C97.9773 201.377 98.0874 201.432 98.229 201.432C98.3706 201.432 98.4808 201.377 98.5594 201.266L102.029 196.641C102.249 196.342 102.54 196.192 102.902 196.192H105.923C106.08 196.192 106.182 196.24 106.229 196.334C106.277 196.413 106.253 196.515 106.159 196.641C103.704 199.913 101.856 202.368 100.613 204.004C100.424 204.303 100.424 204.602 100.613 204.901L106.159 212.264C106.253 212.374 106.277 212.476 106.229 212.571C106.182 212.665 106.08 212.712 105.923 212.712H102.902C102.54 212.712 102.249 212.563 102.029 212.264L98.5594 207.638C98.4808 207.528 98.3706 207.473 98.229 207.473C98.0874 207.473 97.9773 207.528 97.8986 207.638L94.4294 212.264C94.2092 212.563 93.9102 212.712 93.5326 212.712H90.5118C90.3545 212.712 90.2522 212.665 90.205 212.571C90.1736 212.476 90.205 212.374 90.2994 212.264Z" fill="white"/>
<path d="M41.8929 209.784C43.369 210.769 43.369 213.231 41.8929 214.216L15.3214 231.947C13.8452 232.932 12 231.701 12 229.731V194.269C12 192.299 13.8452 191.068 15.3214 192.053L41.8929 209.784Z" fill="#E11E24"/>
<path fill-rule="evenodd" clip-rule="evenodd" d="M38.1286 257.706L15.5429 242.635V272.777L38.1286 257.706ZM41.8929 259.922C43.369 258.937 43.369 256.475 41.8929 255.49L15.3214 237.759C13.8452 236.774 12 238.005 12 239.975V275.437C12 277.407 13.8452 278.638 15.3214 277.653L41.8929 259.922Z" fill="#E11E24"/>
<path d="M41.8929 168.51C43.369 167.525 43.369 165.063 41.8929 164.078L29.7143 155.951V176.637L41.8929 168.51Z" fill="white"/>
<path d="M25.2857 179.592V152.996L15.3214 146.347C13.8452 145.362 12 146.593 12 148.563V184.025C12 185.995 13.8452 187.226 15.3214 186.241L25.2857 179.592Z" fill="#E11E24"/>
<path d="M13.1071 91.7331C11.631 90.7406 11.631 88.2594 13.1071 87.2669L39.6786 69.4017C41.1548 68.4092 43 69.6498 43 71.6349V107.365C43 109.35 41.1548 110.591 39.6786 109.598L13.1071 91.7331Z" fill="white"/>
<path fill-rule="evenodd" clip-rule="evenodd" d="M16.8714 43.4476L39.4571 58.633V28.2622L16.8714 43.4476ZM13.1071 41.2145C11.631 42.207 11.631 44.6882 13.1071 45.6807L39.6786 63.5459C41.1548 64.5384 43 63.2978 43 61.3128V25.5825C43 23.5974 41.1548 22.3568 39.6786 23.3493L13.1071 41.2145Z" fill="white"/>
<path d="M13.1071 133.319C11.631 134.312 11.631 136.793 13.1071 137.786L25.2857 145.974V125.131L13.1071 133.319Z" fill="#E11E24"/>
<path d="M29.7143 122.154V148.951L39.6786 155.651C41.1548 156.643 43 155.403 43 153.418V117.687C43 115.702 41.1548 114.462 39.6786 115.454L29.7143 122.154Z" fill="white"/>
<path d="M358.852 257.547H386.638V277.641H381.193V272.744H365.017V277.641H358.852V266.291L365.017 263.064V271.62L368.301 267.227H381.193V263.064H365.017L358.852 257.547Z" fill="white"/>
<path d="M351.952 257.547L357.368 263.064V277.641H351.952V263.064H335.013V257.547H351.952ZM329.583 277.641V257.547L335.013 263.064V277.641H329.583Z" fill="white"/>
<path d="M328.099 257.547L322.654 263.064H305.743V257.547H328.099ZM321.732 270.151H305.743V272.125H325.809V277.641H305.743L300.313 272.125V257.547L305.743 263.064V264.605H325.837L321.732 270.151Z" fill="white"/>
<path d="M276.92 270.151V277.641H270.755V264.634H293.096V263.064H276.186L270.755 257.547H298.512V270.151H289.135L300.904 277.584H291.699L279.283 270.151H276.92Z" fill="white"/>
<path d="M241.486 257.547H269.272V277.641H263.827V272.744H247.651V277.641H241.486V266.291L247.651 263.064V271.62L250.935 267.227H263.827V263.064H247.651L241.486 257.547Z" fill="white"/>
<path d="M232.627 257.547L227.182 263.064H210.272V257.547H232.627ZM226.26 270.151H210.272V272.125H230.337V277.641H210.272L204.841 272.125V257.547L210.272 263.064V264.605H230.366L226.26 270.151Z" fill="white"/>
<path d="M179.519 272.096H203.358L197.927 277.584H179.519V272.096ZM185.77 257.547V268.379L179.519 272.096V257.547H185.77Z" fill="white"/>
<path d="M178.064 257.547L172.633 263.064H159.713H150.796V257.547H178.064ZM165.993 280.393L159.713 274.876V263.064L165.993 266.781V280.393Z" fill="white"/>
<path d="M149.342 257.547L143.911 263.064H130.99H122.074V257.547H149.342ZM137.271 280.393L130.99 274.876V263.064L137.271 266.781V280.393Z" fill="white"/>
<path d="M92.8047 257.547H120.591V277.641H115.146V272.744H98.9697V277.641H92.8047V266.291L98.9697 263.064V271.62L102.254 267.227H115.146V263.064H98.9697L92.8047 257.547Z" fill="white"/>
<path d="M91.321 257.547V264.634L87.7632 268.235L91.321 270.151V277.641H72.0625V272.125H85.8762V270.151H69.7002V277.641H63.5352V264.634H85.8762V263.064H68.9656L63.5352 257.547H91.321Z" fill="white"/>
<defs>
<filter id="filter0_d_513_2" x="501" y="0" width="15" height="306" filterUnits="userSpaceOnUse" color-interpolation-filters="sRGB">
<feFlood flood-opacity="0" result="BackgroundImageFix"/>
<feColorMatrix in="SourceAlpha" type="matrix" values="0 0 0 0 0 0 0 0 0 0 0 0 0 0 0 0 0 0 127 0" result="hardAlpha"/>
<feOffset/>
<feGaussianBlur stdDeviation="2"/>
<feComposite in2="hardAlpha" operator="out"/>
<feColorMatrix type="matrix" values="0 0 0 0 0.882353 0 0 0 0 0.117647 0 0 0 0 0.141176 0 0 0 1 0"/>
<feBlend mode="normal" in2="BackgroundImageFix" result="effect1_dropShadow_513_2"/>
<feBlend mode="normal" in="SourceGraphic" in2="effect1_dropShadow_513_2" result="shape"/>
</filter>
<filter id="filter1_d_513_2" x="483" y="0" width="19" height="306" filterUnits="userSpaceOnUse" color-interpolation-filters="sRGB">
<feFlood flood-opacity="0" result="BackgroundImageFix"/>
<feColorMatrix in="SourceAlpha" type="matrix" values="0 0 0 0 0 0 0 0 0 0 0 0 0 0 0 0 0 0 127 0" result="hardAlpha"/>
<feOffset/>
<feGaussianBlur stdDeviation="2"/>
<feComposite in2="hardAlpha" operator="out"/>
<feColorMatrix type="matrix" values="0 0 0 0 1 0 0 0 0 1 0 0 0 0 1 0 0 0 1 0"/>
<feBlend mode="normal" in2="BackgroundImageFix" result="effect1_dropShadow_513_2"/>
<feBlend mode="normal" in="SourceGraphic" in2="effect1_dropShadow_513_2" result="shape"/>
</filter>
<filter id="filter2_d_513_2" x="516" y="0" width="12" height="306" filterUnits="userSpaceOnUse" color-interpolation-filters="sRGB">
<feFlood flood-opacity="0" result="BackgroundImageFix"/>
<feColorMatrix in="SourceAlpha" type="matrix" values="0 0 0 0 0 0 0 0 0 0 0 0 0 0 0 0 0 0 127 0" result="hardAlpha"/>
<feOffset/>
<feGaussianBlur stdDeviation="2"/>
<feComposite in2="hardAlpha" operator="out"/>
<feColorMatrix type="matrix" values="0 0 0 0 1 0 0 0 0 1 0 0 0 0 1 0 0 0 1 0"/>
<feBlend mode="normal" in2="BackgroundImageFix" result="effect1_dropShadow_513_2"/>
<feBlend mode="normal" in="SourceGraphic" in2="effect1_dropShadow_513_2" result="shape"/>
</filter>
</defs>
</svg>
