<svg width="456" height="56" viewBox="0 0 456 56" fill="none" xmlns="http://www.w3.org/2000/svg">
<path d="M43.6719 22.3516V31.3281H11.75V22.3516H43.6719ZM11.75 46.0703H43.7188L39.3125 55.0469H11.75L2.91406 46.0703V22.3516L11.75 31.3281V46.0703ZM46.1328 46.0703H82.4844V41.8047H91.3438V46.0703L82.4844 55.0469H46.1328V46.0703ZM91.3438 22.3516V33.8828L82.4844 41.8047H54.9688L46.1328 33.8828V22.3516H54.9688V33.8828H82.4844V22.3516H91.3438ZM138.969 22.3516V33.8828L133.18 39.7422L138.969 42.8594V55.0469H107.633V46.0703H130.109V42.8594H103.789V55.0469H93.7578V33.8828H130.109V31.3281H102.594L93.7578 22.3516H138.969ZM186.594 22.3516L177.734 31.3281H150.219V22.3516H186.594ZM176.234 42.8594H150.219V46.0703H182.867V55.0469H150.219L141.383 46.0703V22.3516L150.219 31.3281V33.8359H182.914L176.234 42.8594ZM199.039 42.8594V55.0469H189.008V33.8828H225.359V31.3281H197.844L189.008 22.3516H234.172V42.8594H218.914L238.062 54.9531H223.086L202.883 42.8594H199.039Z" fill="white"/>
<path d="M259.445 22.3516H295.797V31.3281H268.281L259.445 22.3516ZM304.656 22.3516V46.0703L295.797 55.0469H273.32V46.0703H295.797V31.3281L304.656 22.3516ZM259.445 55.0469V33.8828H269.477V55.0469H259.445ZM343.469 55.0469H315.906L307.07 46.0703V22.3516H343.469L352.234 31.3281L352.281 55.0469L343.469 46.0703V31.3281H315.906V46.0703H343.469V55.0469ZM399.906 33.8359L399.859 33.8828L399.906 55.0469L391.094 46.0703V42.8594H372.086V33.8359H399.906ZM363.531 31.3281V46.0703H391.094V55.0469H363.531L354.695 46.0703V22.3516H391.094L395.5 31.3281H363.531ZM447.531 33.8359L447.484 33.8828L447.531 55.0469L438.719 46.0703V42.8594H419.711V33.8359H447.531ZM411.156 31.3281V46.0703H438.719V55.0469H411.156L402.32 46.0703V22.3516H438.719L443.125 31.3281H411.156Z" fill="white"/>
</svg>
