<svg width="724" height="408" viewBox="0 0 724 408" fill="none" xmlns="http://www.w3.org/2000/svg">
<path d="M275.277 210.793H305.57V218.273H282.641L275.277 210.793ZM305.57 218.273L312.953 210.793V227.883H286.84V220.402H305.57V218.273ZM275.277 238.039V220.402H283.637V238.039H275.277ZM314.965 230.52H347.289L339.926 237.961H314.965V230.52ZM323.441 210.793V225.48L314.965 230.52V210.793H323.441ZM349.301 210.793H386.977V238.039H379.594V231.398H357.66V238.039H349.301V222.648L357.66 218.273V229.875L362.113 223.918H379.594V218.273H357.66L349.301 210.793ZM388.988 230.559H419.281V227.004H426.664V230.559L419.281 238.039H388.988V230.559ZM426.664 210.793V220.402L419.281 227.004H396.352L388.988 220.402V210.793H396.352V220.402H419.281V210.793H426.664ZM466.352 210.793L458.969 218.273H436.039V210.793H466.352ZM436.039 218.273V220.402H466.352V238.039H428.676L436.039 230.559H458.969V227.883H428.676V210.793L436.039 218.273ZM468.363 210.793H506.039V238.039H498.656V231.398H476.723V238.039H468.363V222.648L476.723 218.273V229.875L481.176 223.918H498.656V218.273H476.723L468.363 210.793ZM545.023 210.793L537.66 218.273H520.141H508.051V210.793H545.023ZM528.656 241.77L520.141 234.289V218.273L528.656 223.312V241.77ZM554.359 210.793V238.039H546.996V210.793H554.359ZM586.703 238.039H563.734L556.371 230.559V210.793H586.703L594.008 218.273L594.047 238.039L586.703 230.559V218.273H563.734V230.559H586.703V238.039ZM626.391 210.793L633.734 218.273V238.039H626.391V218.273H603.422V210.793H626.391ZM596.059 238.039V210.793L603.422 218.273V238.039H596.059ZM676.703 210.793L669.359 218.273H653.109V210.793H676.703ZM653.109 220.969H669.359L676.703 228.449V238.039H645.746V230.559H669.359V228.449H645.746V220.969V210.793L653.109 218.273V220.969Z" fill="white"/>
<path d="M304.117 150.793H311.48V178.039L304.117 170.559V150.793ZM272.438 150.793H282.086L308.961 178.039H299.195L272.438 150.793ZM320.855 150.793V178.039H313.492V150.793H320.855ZM322.867 150.793H353.16V158.273H330.23L322.867 150.793ZM353.16 158.273L360.543 150.793V167.883H334.43V160.402H353.16V158.273ZM322.867 178.039V160.402H331.227V178.039H322.867Z" fill="white"/>
<mask id="path-3-outside-1_577_6" maskUnits="userSpaceOnUse" x="0" y="0" width="362" height="408" fill="black">
<rect fill="white" width="362" height="408"/>
<path d="M2 17C2 8.71572 8.71573 2 17 2H362V406H17C8.71574 406 2 399.284 2 391V17Z"/>
</mask>
<path d="M2 17C2 8.71572 8.71573 2 17 2H362V406H17C8.71574 406 2 399.284 2 391V17Z" fill="#121212"/>
<path d="M0 17C0 7.61116 7.61116 0 17 0H362V4H17C9.8203 4 4 9.8203 4 17H0ZM362 408H17C7.61116 408 0 400.389 0 391H4C4 398.18 9.8203 404 17 404H362V408ZM17 408C7.61116 408 0 400.389 0 391V17C0 7.61116 7.61116 0 17 0V4C9.8203 4 4 9.8203 4 17V391C4 398.18 9.8203 404 17 404V408ZM17 404M362 2V406V2" fill="white" mask="url(#path-3-outside-1_577_6)"/>
<mask id="path-5-outside-2_577_6" maskUnits="userSpaceOnUse" x="362" y="0" width="362" height="408" fill="black">
<rect fill="white" x="362" width="362" height="408"/>
<path d="M722 17C722 8.71572 715.284 2 707 2H362V406H707C715.284 406 722 399.284 722 391V17Z"/>
</mask>
<path d="M722 17C722 8.71572 715.284 2 707 2H362V406H707C715.284 406 722 399.284 722 391V17Z" fill="#121212"/>
<path d="M724 17C724 7.61116 716.389 0 707 0H362V4H707C714.18 4 720 9.8203 720 17H724ZM362 408H707C716.389 408 724 400.389 724 391H720C720 398.18 714.18 404 707 404H362V408ZM707 408C716.389 408 724 400.389 724 391V17C724 7.61116 716.389 0 707 0V4C714.18 4 720 9.8203 720 17V391C720 398.18 714.18 404 707 404V408ZM707 404M362 2V406V2" fill="white" mask="url(#path-5-outside-2_577_6)"/>
<path d="M413 17H323V102H413V17Z" fill="#121212"/>
<path d="M341.715 53.9123C340.24 51.2631 338.761 48.6139 337.286 45.9647V42.4324C339.354 40.079 341.418 37.7212 343.486 35.3678C346.732 35.072 349.983 34.7806 353.229 34.4847C354.114 35.6636 355 36.8381 355.886 38.017C356.475 37.2797 357.068 36.5467 357.657 35.8094H364.743C365.775 36.3966 366.811 36.9883 367.843 37.5755C368.728 36.9883 369.614 36.3966 370.5 35.8094H377.142C377.882 36.3966 378.617 36.9883 379.357 37.5755C380.242 36.3966 381.128 35.2221 382.014 34.0432C385.26 34.1889 388.51 34.339 391.756 34.4847C393.971 37.2797 396.185 40.079 398.399 42.8739C397.071 45.2273 395.742 47.5851 394.414 49.9385C393.382 49.3512 392.345 48.7596 391.314 48.1723C391.017 49.3512 390.725 50.5257 390.428 51.7046C391.61 58.7692 392.788 65.8338 393.971 72.8983C392.053 75.9891 390.131 79.0798 388.214 82.1706C385.41 83.9367 382.603 85.7029 379.8 87.469C378.471 86.5859 377.142 85.7029 375.814 84.8198C375.371 85.1156 374.928 85.407 374.485 85.7029H361.2L359.429 84.8198C358.246 85.5572 357.068 86.2901 355.886 87.0275C352.932 85.1156 349.983 83.1994 347.029 81.2875C344.961 78.6383 342.897 75.9891 340.829 73.3399C342.304 66.2753 343.783 59.2107 345.257 52.1462C344.961 51.4088 344.668 50.6759 344.372 49.9385L341.715 53.9123Z" fill="white" stroke="white" stroke-width="3" stroke-miterlimit="10"/>
<path d="M382.532 34.3126C384.069 35.0279 385.605 35.7388 387.138 36.4541L387.222 45.2759C388.475 45.925 389.728 46.5741 390.981 47.2187C390.64 48.5168 390.304 49.8105 389.963 51.1086C386.779 46.5432 383.595 41.9777 380.411 37.4122C381.119 36.379 381.823 35.3458 382.532 34.3126Z" fill="#121212"/>
<path d="M344.823 56.9458C346.387 60.8534 347.082 64.1561 347.423 66.5271C348.043 70.8409 348.043 75.9671 348.043 79.0976V79.155C348.189 76.6118 348.862 71.1323 352.622 65.6264C355.337 61.6482 358.561 59.2771 360.593 58.0187H367.488C369.676 58.0011 371.859 57.979 374.047 57.9613C376.075 59.0872 381.992 62.7255 384.959 70.1345C386.593 74.2143 386.717 77.8922 386.597 80.1662C386.584 80.4576 386.394 74.2893 387.784 67.3131C388.581 63.3304 389.755 60.1646 390.649 58.0673C391.486 62.9904 392.319 67.9135 393.156 72.8367C392.19 74.8766 391.274 76.55 390.539 77.8172C389.569 79.4818 388.966 80.3428 388.05 81.1993C387.217 81.9764 386.487 82.418 385.92 82.758C384.095 83.8574 382.098 85.0804 379.645 86.5905C378.382 85.7251 377.12 84.8641 375.858 83.9987C376.934 83.6234 378.006 83.2481 379.082 82.8728C379.742 81.9235 380.69 80.3163 381.172 78.1395C381.784 75.3932 381.341 73.2076 381.115 72.1081C379.764 65.4939 373.746 60.7695 372.577 59.8776C370.894 59.8423 369.176 59.8202 367.431 59.8202C365.589 59.8202 363.777 59.8379 362.001 59.8776C360.704 61.0565 355.828 65.6794 354.256 71.7726C353.986 72.8234 353.437 74.9428 353.689 77.7465C353.871 79.7467 354.384 81.3495 354.818 82.4268C356.249 82.7447 357.684 83.067 359.114 83.3849C358.153 84.1753 357.192 84.9612 356.231 85.7516C354.075 84.9612 350.784 83.46 347.467 80.6209C344.199 77.826 342.224 74.8589 341.108 72.872C342.343 67.5647 343.575 62.2575 344.81 56.9502L344.823 56.9458Z" fill="#121212"/>
<path d="M367.661 37.9245C369.459 40.163 371.253 42.406 373.051 44.6446C371.704 45.8412 370.358 47.0333 369.007 48.2299C369.158 51.069 369.309 53.9036 369.455 56.7427C370.943 56.6588 372.599 56.6411 374.392 56.7427C376.469 56.8575 378.352 57.1092 380.003 57.4138C381.947 57.2637 383.896 57.1136 385.84 56.9679L391.07 60.6326C390.419 56.1731 389.206 52.8351 388.271 50.7113C387.576 49.135 386.89 47.8855 386.566 47.3159C386.013 46.3401 384.737 44.1943 382.7 41.7349C381.407 40.1763 379.64 38.2909 377.32 36.3923C376.319 36.3614 375.296 36.3438 374.251 36.3349C373.153 36.3261 372.076 36.3349 371.022 36.357C371.022 36.357 371.022 36.357 371.014 36.357C371.014 36.357 368.649 37.4608 367.652 37.9245H367.661Z" fill="#121212"/>
<path d="M344.611 49.0069C345.063 50.0577 345.51 51.1042 345.962 52.155C349.115 47.3291 352.268 42.5031 355.421 37.6771C354.663 36.4717 353.911 35.2663 353.153 34.0609C351.537 34.5775 349.925 35.0941 348.309 35.6151C348.131 37.7212 347.954 39.8274 347.777 41.9335L344.611 49.0069Z" fill="#121212"/>
<path d="M337.703 45.5718C340.165 46.4769 342.627 47.3821 345.089 48.2916C344.102 49.9386 343.11 51.5899 342.122 53.2368C340.652 50.6803 339.177 48.1283 337.707 45.5718H337.703Z" fill="#121212"/>
<path d="M349.504 50.6142C350.908 47.8899 352.308 45.1701 353.711 42.4458H354.154C354.894 43.3289 355.629 44.2119 356.369 45.095C357.622 43.4039 358.879 41.7084 360.133 40.0173C359.322 41.8585 358.507 43.6953 357.697 45.5365L361.24 47.3027C361.386 46.4196 361.537 45.5365 361.683 44.6535C362.126 44.7992 362.568 44.9493 363.011 45.095C363.751 47.4484 364.486 49.8062 365.226 52.1596C361.829 50.3934 358.437 48.6273 355.04 46.8611C353.193 48.1107 351.351 49.3646 349.504 50.6142Z" fill="#121212"/>
<path d="M371.868 54.8087C371.811 54.5923 373.689 54.1331 376.084 53.0558C379.463 51.5325 380.052 50.4949 381.682 50.6891C383.112 50.8569 384.786 51.9122 384.711 53.0425C384.645 54.089 383.112 54.738 382.94 54.8087C383.086 55.2502 383.236 55.6917 383.383 56.1333C382.94 55.8065 382.501 55.4754 382.058 55.1486C381.173 55.4754 380.283 55.8065 379.397 56.1333C378.693 55.6873 377.652 55.1398 376.31 54.8616C373.875 54.3539 371.926 55.0338 371.868 54.8087Z" fill="white"/>
<path d="M363.383 54.8087C363.441 54.5923 361.563 54.1331 359.167 53.0558C355.78 51.5281 355.2 50.4905 353.57 50.6891C352.131 50.8613 350.47 51.9254 350.541 53.0425C350.598 53.9565 351.785 54.557 352.042 54.6806C351.834 55.2061 351.626 55.7315 351.422 56.2569C351.134 57.1621 350.851 58.0672 350.563 58.9724C351.054 58.1997 351.55 57.427 352.042 56.6499C352.383 56.1333 352.72 55.6167 353.061 55.1001C353.991 55.4445 354.925 55.7845 355.855 56.1289C356.559 55.6829 357.6 55.1354 358.942 54.8572C361.377 54.3495 363.326 55.0294 363.383 54.8043V54.8087Z" fill="#121212"/>
<path d="M361.275 74.3069C363.388 73.1412 365.496 71.9756 367.608 70.8143C369.663 71.8873 371.718 72.9558 373.768 74.0287C374.579 77.221 375.389 80.4177 376.199 83.61C375.522 84.1001 374.844 84.5858 374.162 85.0759L361.444 84.9081C360.709 84.5152 359.973 84.1178 359.238 83.7248C359.916 80.5855 360.593 77.4506 361.275 74.3113V74.3069Z" fill="#121212"/>
<path d="M361.187 66.5138C361.178 65.2024 361.169 63.8911 361.16 62.5841C361.909 62.0852 362.657 61.5862 363.405 61.0917C364.535 61.1006 365.668 61.1094 366.798 61.1182C366.802 60.6502 366.806 60.1777 366.811 59.7097L368.565 59.6832V61.0917C369.809 61.0652 371.053 61.0343 372.298 61.0078L374.109 62.4737L374.193 66.3063C373.144 65.4497 372.094 64.5975 371.04 63.7409C370.535 63.8646 370.03 63.9838 369.53 64.1074C369.548 65.6395 369.57 67.1717 369.588 68.6994C368.968 69.6399 368.343 70.5803 367.723 71.5164C367.046 70.5936 366.368 69.6752 365.686 68.7524C365.677 67.1937 365.668 65.6351 365.659 64.0721C365.164 63.9529 364.672 63.8381 364.176 63.7189C363.184 64.6505 362.188 65.5777 361.196 66.5094L361.187 66.5138Z" fill="#121212"/>
<path d="M354.912 54.2744C355.416 54.2744 355.824 53.8672 355.824 53.3649C355.824 52.8625 355.416 52.4553 354.912 52.4553C354.408 52.4553 354 52.8625 354 53.3649C354 53.8672 354.408 54.2744 354.912 54.2744Z" fill="#E11E24"/>
<path d="M390.756 47.1657C392.696 46.3842 394.64 45.6071 396.579 44.8256C395.809 46.265 395.034 47.7 394.263 49.1394C393.094 48.4815 391.925 47.8236 390.76 47.1657H390.756Z" fill="#121212"/>
<path d="M326.126 51.9829H327.898V35.0721C328.248 34.7586 328.602 34.4451 328.952 34.1317H335.32C336.525 35.4739 337.734 36.8118 338.938 38.154C339.239 37.739 339.54 37.3284 339.842 36.9133C338.712 35.6461 337.579 34.3833 336.449 33.1161V26.2414C336.826 25.9147 337.202 25.5879 337.579 25.2656C343.119 25.2524 348.659 25.2391 354.199 25.2259V23.6099C348.384 23.6717 342.565 23.7335 336.75 23.7997C333.234 27.3717 329.714 30.9394 326.197 34.5114C326.171 40.3352 326.149 46.1591 326.122 51.9829H326.126Z" fill="#E11E24"/>
<path d="M409.723 51.9829H407.952V35.0721C407.602 34.7586 407.247 34.4451 406.898 34.1317H400.529C399.325 35.4739 398.116 36.8118 396.911 38.154C396.61 37.739 396.309 37.3284 396.008 36.9133C397.137 35.6461 398.271 34.3833 399.4 33.1161V26.2414C399.024 25.9147 398.647 25.5879 398.271 25.2656C392.731 25.2524 387.191 25.2391 381.651 25.2259V23.6099C387.465 23.6717 393.284 23.7335 399.099 23.7997C402.615 27.3717 406.136 30.9394 409.652 34.5114C409.679 40.3352 409.701 46.1591 409.727 51.9829H409.723Z" fill="#E11E24"/>
<path d="M409.723 69.9446H407.952V86.8554C407.602 87.1689 407.247 87.4824 406.898 87.7959H400.529C399.325 86.4536 398.116 85.1157 396.911 83.7735C396.61 84.1885 396.309 84.5991 396.008 85.0142C397.137 86.2814 398.271 87.5442 399.4 88.8114V95.6861C399.024 96.0128 398.647 96.3396 398.271 96.6619C392.731 96.6751 387.191 96.6884 381.651 96.7016V98.3176C387.465 98.2558 393.284 98.194 399.099 98.1278C402.615 94.5558 406.136 90.9882 409.652 87.4161C409.679 81.5923 409.701 75.7684 409.727 69.9446H409.723Z" fill="#E11E24"/>
<path d="M326.919 69.9446H328.69V86.8554C329.04 87.1689 329.394 87.4824 329.744 87.7959H336.113C337.317 86.4536 338.526 85.1157 339.731 83.7735C340.032 84.1885 340.333 84.5991 340.634 85.0142C339.505 86.2814 338.371 87.5442 337.242 88.8114V95.6861C337.618 96.0128 337.995 96.3396 338.371 96.6619C343.911 96.6751 349.451 96.6884 354.991 96.7016V98.3176C349.177 98.2558 343.357 98.194 337.543 98.1278C334.027 94.5558 330.506 90.9882 326.99 87.4161C326.963 81.5923 326.941 75.7684 326.915 69.9446H326.919Z" fill="#E11E24"/>
<path d="M148.977 48.793V56.2734H122.375V48.793H148.977ZM122.375 68.5586H149.016L145.344 76.0391H122.375L115.012 68.5586V48.793L122.375 56.2734V68.5586ZM151.027 68.5586H181.32V65.0039H188.703V68.5586L181.32 76.0391H151.027V68.5586ZM188.703 48.793V58.4023L181.32 65.0039H158.391L151.027 58.4023V48.793H158.391V58.4023H181.32V48.793H188.703ZM228.391 48.793V58.4023L223.566 63.2852L228.391 65.8828V76.0391H202.277V68.5586H221.008V65.8828H199.074V76.0391H190.715V58.4023H221.008V56.2734H198.078L190.715 48.793H228.391ZM268.078 48.793L260.695 56.2734H237.766V48.793H268.078ZM259.445 65.8828H237.766V68.5586H264.973V76.0391H237.766L230.402 68.5586V48.793L237.766 56.2734V58.3633H265.012L259.445 65.8828ZM278.449 65.8828V76.0391H270.09V58.4023H300.383V56.2734H277.453L270.09 48.793H307.727V65.8828H295.012L310.969 75.9609H298.488L281.652 65.8828H278.449Z" fill="white"/>
<path d="M427.621 48.793H457.914V56.2734H434.984L427.621 48.793ZM465.297 48.793V68.5586L457.914 76.0391H439.184V68.5586H457.914V56.2734L465.297 48.793ZM427.621 76.0391V58.4023H435.98V76.0391H427.621ZM497.641 76.0391H474.672L467.309 68.5586V48.793H497.641L504.945 56.2734L504.984 76.0391L497.641 68.5586V56.2734H474.672V68.5586H497.641V76.0391ZM544.672 58.3633L544.633 58.4023L544.672 76.0391L537.328 68.5586V65.8828H521.488V58.3633H544.672ZM514.359 56.2734V68.5586H537.328V76.0391H514.359L506.996 68.5586V48.793H537.328L541 56.2734H514.359ZM584.359 58.3633L584.32 58.4023L584.359 76.0391L577.016 68.5586V65.8828H561.176V58.3633H584.359ZM554.047 56.2734V68.5586H577.016V76.0391H554.047L546.684 68.5586V48.793H577.016L580.688 56.2734H554.047Z" fill="white"/>
<rect x="685" y="2" width="10" height="404" fill="#E11E24"/>
<rect x="660" y="2" width="15" height="404" fill="white"/>
<rect x="705" y="2" width="5" height="404" fill="white"/>
<path d="M180.6 206.232V185.304C180.6 185.091 180.664 184.92 180.792 184.792C180.941 184.643 181.123 184.568 181.336 184.568H184.344C184.557 184.568 184.728 184.643 184.856 184.792C185.005 184.92 185.08 185.091 185.08 185.304V192.792C185.08 193.005 185.144 193.187 185.272 193.336C185.421 193.464 185.603 193.528 185.816 193.528H197.784C197.997 193.528 198.168 193.464 198.296 193.336C198.445 193.187 198.52 193.005 198.52 192.792V185.304C198.52 185.091 198.584 184.92 198.712 184.792C198.861 184.643 199.043 184.568 199.256 184.568H202.264C202.477 184.568 202.648 184.643 202.776 184.792C202.925 184.92 203 185.091 203 185.304V206.232C203 206.445 202.925 206.627 202.776 206.776C202.648 206.904 202.477 206.968 202.264 206.968H199.256C199.043 206.968 198.861 206.904 198.712 206.776C198.584 206.627 198.52 206.445 198.52 206.232V198.744C198.52 198.531 198.445 198.36 198.296 198.232C198.168 198.083 197.997 198.008 197.784 198.008H185.816C185.603 198.008 185.421 198.083 185.272 198.232C185.144 198.36 185.08 198.531 185.08 198.744V206.232C185.08 206.445 185.005 206.627 184.856 206.776C184.728 206.904 184.557 206.968 184.344 206.968H181.336C181.123 206.968 180.941 206.904 180.792 206.776C180.664 206.627 180.6 206.445 180.6 206.232ZM223.409 189.08H211.441C211.228 189.08 211.046 189.155 210.897 189.304C210.769 189.432 210.705 189.603 210.705 189.816V197.304C210.705 197.517 210.769 197.699 210.897 197.848C211.046 197.976 211.228 198.04 211.441 198.04H223.409C223.622 198.04 223.793 197.976 223.921 197.848C224.07 197.699 224.145 197.517 224.145 197.304V189.816C224.145 189.603 224.07 189.432 223.921 189.304C223.793 189.155 223.622 189.08 223.409 189.08ZM206.225 206.264V189.08C206.225 187.843 206.662 186.787 207.537 185.912C208.412 185.037 209.468 184.6 210.705 184.6H224.145C225.382 184.6 226.438 185.037 227.313 185.912C228.188 186.787 228.625 187.843 228.625 189.08V206.264C228.625 206.477 228.55 206.659 228.401 206.808C228.273 206.936 228.102 207 227.889 207H224.881C224.668 207 224.486 206.936 224.337 206.808C224.209 206.659 224.145 206.477 224.145 206.264V203.256C224.145 203.043 224.07 202.872 223.921 202.744C223.793 202.595 223.622 202.52 223.409 202.52H211.441C211.228 202.52 211.046 202.595 210.897 202.744C210.769 202.872 210.705 203.043 210.705 203.256V206.264C210.705 206.477 210.63 206.659 210.481 206.808C210.353 206.936 210.182 207 209.969 207H206.961C206.748 207 206.566 206.936 206.417 206.808C206.289 206.659 206.225 206.477 206.225 206.264ZM262.219 206.264C262.219 206.456 262.144 206.627 261.995 206.776C261.845 206.925 261.664 207 261.451 207H258.475C258.261 207 258.08 206.925 257.931 206.776C257.803 206.627 257.739 206.456 257.739 206.264V192.216C257.739 192.003 257.685 191.885 257.579 191.864C257.493 191.821 257.376 191.875 257.227 192.024C251.915 198.211 247.765 203.011 244.779 206.424C244.48 206.808 244.075 207 243.563 207H240.555C240.341 207 240.16 206.925 240.011 206.776C239.883 206.627 239.819 206.456 239.819 206.264V185.336C239.819 185.144 239.883 184.973 240.011 184.824C240.16 184.675 240.341 184.6 240.555 184.6H243.563C243.755 184.6 243.925 184.675 244.075 184.824C244.224 184.973 244.299 185.144 244.299 185.336V199.416C244.299 199.544 244.352 199.629 244.459 199.672C244.587 199.693 244.693 199.661 244.779 199.576L257.227 185.176C257.568 184.792 257.984 184.6 258.475 184.6H261.451C261.664 184.6 261.845 184.675 261.995 184.824C262.144 184.973 262.219 185.144 262.219 185.336C262.197 185.336 262.197 188.824 262.219 195.8V206.264ZM265.413 189.08C265.413 187.843 265.85 186.787 266.725 185.912C267.599 185.037 268.655 184.6 269.893 184.6H284.837C285.05 184.6 285.221 184.675 285.349 184.824C285.498 184.952 285.573 185.123 285.573 185.336V188.344C285.573 188.557 285.498 188.739 285.349 188.888C285.221 189.016 285.05 189.08 284.837 189.08H270.629C270.415 189.08 270.234 189.155 270.085 189.304C269.957 189.432 269.893 189.603 269.893 189.816V206.264C269.893 206.477 269.818 206.659 269.669 206.808C269.541 206.936 269.37 207 269.157 207H266.149C265.935 207 265.754 206.936 265.605 206.808C265.477 206.659 265.413 206.477 265.413 206.264V189.08ZM305.972 189.08H294.004C293.79 189.08 293.609 189.155 293.46 189.304C293.332 189.432 293.268 189.603 293.268 189.816V197.304C293.268 197.517 293.332 197.699 293.46 197.848C293.609 197.976 293.79 198.04 294.004 198.04H305.972C306.185 198.04 306.356 197.976 306.484 197.848C306.633 197.699 306.708 197.517 306.708 197.304V189.816C306.708 189.603 306.633 189.432 306.484 189.304C306.356 189.155 306.185 189.08 305.972 189.08ZM288.788 206.264V189.08C288.788 187.843 289.225 186.787 290.1 185.912C290.974 185.037 292.03 184.6 293.268 184.6H306.708C307.945 184.6 309.001 185.037 309.876 185.912C310.75 186.787 311.188 187.843 311.188 189.08V198.04C311.188 199.277 310.75 200.333 309.876 201.208C309.001 202.083 307.945 202.52 306.708 202.52H294.004C293.79 202.52 293.609 202.595 293.46 202.744C293.332 202.872 293.268 203.043 293.268 203.256V206.264C293.268 206.477 293.193 206.659 293.044 206.808C292.916 206.936 292.745 207 292.532 207H289.524C289.31 207 289.129 206.936 288.98 206.808C288.852 206.659 288.788 206.477 288.788 206.264ZM314.413 202.52V189.08C314.413 187.843 314.85 186.787 315.725 185.912C316.599 185.037 317.655 184.6 318.893 184.6H332.333C333.57 184.6 334.626 185.037 335.501 185.912C336.375 186.787 336.813 187.843 336.813 189.08V202.52C336.813 203.757 336.375 204.813 335.501 205.688C334.626 206.563 333.57 207 332.333 207H318.893C317.655 207 316.599 206.563 315.725 205.688C314.85 204.813 314.413 203.757 314.413 202.52ZM319.629 202.52H331.597C331.81 202.52 331.981 202.456 332.109 202.328C332.258 202.179 332.333 201.997 332.333 201.784V189.816C332.333 189.603 332.258 189.432 332.109 189.304C331.981 189.155 331.81 189.08 331.597 189.08H319.629C319.415 189.08 319.234 189.155 319.085 189.304C318.957 189.432 318.893 189.603 318.893 189.816V201.784C318.893 201.997 318.957 202.179 319.085 202.328C319.234 202.456 319.415 202.52 319.629 202.52ZM345.222 202.52H357.19C357.404 202.52 357.574 202.456 357.702 202.328C357.852 202.179 357.926 201.997 357.926 201.784V198.776C357.926 198.563 357.852 198.392 357.702 198.264C357.574 198.115 357.404 198.04 357.19 198.04H345.222C345.009 198.04 344.828 198.115 344.678 198.264C344.55 198.392 344.486 198.563 344.486 198.776V201.784C344.486 201.997 344.55 202.179 344.678 202.328C344.828 202.456 345.009 202.52 345.222 202.52ZM345.222 193.56H357.19C357.404 193.56 357.574 193.496 357.702 193.368C357.852 193.219 357.926 193.037 357.926 192.824V189.816C357.926 189.603 357.852 189.432 357.702 189.304C357.574 189.155 357.404 189.08 357.19 189.08H345.222C345.009 189.08 344.828 189.155 344.678 189.304C344.55 189.432 344.486 189.603 344.486 189.816V192.824C344.486 193.037 344.55 193.219 344.678 193.368C344.828 193.496 345.009 193.56 345.222 193.56ZM340.006 202.52V189.08C340.006 187.843 340.444 186.787 341.318 185.912C342.193 185.037 343.249 184.6 344.486 184.6H357.926C359.164 184.6 360.22 185.037 361.094 185.912C361.969 186.787 362.406 187.843 362.406 189.08V191.96C362.406 193.027 362.033 193.933 361.286 194.68L360.166 195.8L361.286 196.92C362.033 197.667 362.406 198.573 362.406 199.64V202.52C362.406 203.757 361.969 204.813 361.094 205.688C360.22 206.563 359.164 207 357.926 207H344.486C343.249 207 342.193 206.563 341.318 205.688C340.444 204.813 340.006 203.757 340.006 202.52ZM365.631 202.52V189.08C365.631 187.843 366.069 186.787 366.943 185.912C367.818 185.037 368.874 184.6 370.111 184.6H383.551C384.789 184.6 385.845 185.037 386.719 185.912C387.594 186.787 388.031 187.843 388.031 189.08V202.52C388.031 203.757 387.594 204.813 386.719 205.688C385.845 206.563 384.789 207 383.551 207H370.111C368.874 207 367.818 206.563 366.943 205.688C366.069 204.813 365.631 203.757 365.631 202.52ZM370.847 202.52H382.815C383.029 202.52 383.199 202.456 383.327 202.328C383.477 202.179 383.551 201.997 383.551 201.784V189.816C383.551 189.603 383.477 189.432 383.327 189.304C383.199 189.155 383.029 189.08 382.815 189.08H370.847C370.634 189.08 370.453 189.155 370.303 189.304C370.175 189.432 370.111 189.603 370.111 189.816V201.784C370.111 201.997 370.175 202.179 370.303 202.328C370.453 202.456 370.634 202.52 370.847 202.52ZM391.225 202.52V189.08C391.225 187.843 391.662 186.787 392.537 185.912C393.412 185.037 394.468 184.6 395.705 184.6H410.649C410.862 184.6 411.033 184.675 411.161 184.824C411.31 184.952 411.385 185.123 411.385 185.336V188.344C411.385 188.557 411.31 188.739 411.161 188.888C411.033 189.016 410.862 189.08 410.649 189.08H396.441C396.228 189.08 396.046 189.155 395.897 189.304C395.769 189.432 395.705 189.603 395.705 189.816V192.824C395.705 193.037 395.769 193.219 395.897 193.368C396.046 193.496 396.228 193.56 396.441 193.56H410.649C410.862 193.56 411.033 193.635 411.161 193.784C411.31 193.912 411.385 194.083 411.385 194.296V197.304C411.385 197.517 411.31 197.699 411.161 197.848C411.033 197.976 410.862 198.04 410.649 198.04H396.441C396.228 198.04 396.046 198.115 395.897 198.264C395.769 198.392 395.705 198.563 395.705 198.776V201.784C395.705 201.997 395.769 202.179 395.897 202.328C396.046 202.456 396.228 202.52 396.441 202.52H410.649C410.862 202.52 411.033 202.595 411.161 202.744C411.31 202.872 411.385 203.043 411.385 203.256V206.264C411.385 206.477 411.31 206.659 411.161 206.808C411.033 206.936 410.862 207 410.649 207H395.705C394.468 207 393.412 206.563 392.537 205.688C391.662 204.813 391.225 203.757 391.225 202.52ZM427.847 202.52H439.815C440.029 202.52 440.199 202.456 440.327 202.328C440.477 202.179 440.551 201.997 440.551 201.784V198.776C440.551 198.563 440.477 198.392 440.327 198.264C440.199 198.115 440.029 198.04 439.815 198.04H427.847C427.634 198.04 427.453 198.115 427.303 198.264C427.175 198.392 427.111 198.563 427.111 198.776V201.784C427.111 201.997 427.175 202.179 427.303 202.328C427.453 202.456 427.634 202.52 427.847 202.52ZM427.847 193.56H439.815C440.029 193.56 440.199 193.496 440.327 193.368C440.477 193.219 440.551 193.037 440.551 192.824V189.816C440.551 189.603 440.477 189.432 440.327 189.304C440.199 189.155 440.029 189.08 439.815 189.08H427.847C427.634 189.08 427.453 189.155 427.303 189.304C427.175 189.432 427.111 189.603 427.111 189.816V192.824C427.111 193.037 427.175 193.219 427.303 193.368C427.453 193.496 427.634 193.56 427.847 193.56ZM422.631 202.52V189.08C422.631 187.843 423.069 186.787 423.943 185.912C424.818 185.037 425.874 184.6 427.111 184.6H440.551C441.789 184.6 442.845 185.037 443.719 185.912C444.594 186.787 445.031 187.843 445.031 189.08V191.96C445.031 193.027 444.658 193.933 443.911 194.68L442.791 195.8L443.911 196.92C444.658 197.667 445.031 198.573 445.031 199.64V202.52C445.031 203.757 444.594 204.813 443.719 205.688C442.845 206.563 441.789 207 440.551 207H427.111C425.874 207 424.818 206.563 423.943 205.688C423.069 204.813 422.631 203.757 422.631 202.52ZM465.128 189.08H453.16C452.946 189.08 452.765 189.155 452.616 189.304C452.488 189.432 452.424 189.603 452.424 189.816V197.304C452.424 197.517 452.488 197.699 452.616 197.848C452.765 197.976 452.946 198.04 453.16 198.04H465.128C465.341 198.04 465.512 197.976 465.64 197.848C465.789 197.699 465.864 197.517 465.864 197.304V189.816C465.864 189.603 465.789 189.432 465.64 189.304C465.512 189.155 465.341 189.08 465.128 189.08ZM447.944 206.264V189.08C447.944 187.843 448.381 186.787 449.256 185.912C450.13 185.037 451.186 184.6 452.424 184.6H465.864C467.101 184.6 468.157 185.037 469.032 185.912C469.906 186.787 470.344 187.843 470.344 189.08V198.04C470.344 199.277 469.906 200.333 469.032 201.208C468.157 202.083 467.101 202.52 465.864 202.52H453.16C452.946 202.52 452.765 202.595 452.616 202.744C452.488 202.872 452.424 203.043 452.424 203.256V206.264C452.424 206.477 452.349 206.659 452.2 206.808C452.072 206.936 451.901 207 451.688 207H448.68C448.466 207 448.285 206.936 448.136 206.808C448.008 206.659 447.944 206.477 447.944 206.264ZM473.569 202.52V189.08C473.569 187.843 474.006 186.787 474.881 185.912C475.755 185.037 476.811 184.6 478.049 184.6H492.993C493.206 184.6 493.377 184.675 493.505 184.824C493.654 184.952 493.729 185.123 493.729 185.336V188.344C493.729 188.557 493.654 188.739 493.505 188.888C493.377 189.016 493.206 189.08 492.993 189.08H478.785C478.571 189.08 478.39 189.155 478.241 189.304C478.113 189.432 478.049 189.603 478.049 189.816V192.824C478.049 193.037 478.113 193.219 478.241 193.368C478.39 193.496 478.571 193.56 478.785 193.56H492.993C493.206 193.56 493.377 193.635 493.505 193.784C493.654 193.912 493.729 194.083 493.729 194.296V197.304C493.729 197.517 493.654 197.699 493.505 197.848C493.377 197.976 493.206 198.04 492.993 198.04H478.785C478.571 198.04 478.39 198.115 478.241 198.264C478.113 198.392 478.049 198.563 478.049 198.776V201.784C478.049 201.997 478.113 202.179 478.241 202.328C478.39 202.456 478.571 202.52 478.785 202.52H492.993C493.206 202.52 493.377 202.595 493.505 202.744C493.654 202.872 493.729 203.043 493.729 203.256V206.264C493.729 206.477 493.654 206.659 493.505 206.808C493.377 206.936 493.206 207 492.993 207H478.049C476.811 207 475.755 206.563 474.881 205.688C474.006 204.813 473.569 203.757 473.569 202.52ZM496.975 185.336C496.975 185.123 497.039 184.952 497.167 184.824C497.316 184.675 497.498 184.6 497.711 184.6H500.719C501.252 184.6 501.658 184.792 501.935 185.176L512.655 197.56C515.023 194.808 518.596 190.68 523.375 185.176C523.674 184.792 524.079 184.6 524.591 184.6H527.599C527.812 184.6 527.983 184.675 528.111 184.824C528.26 184.952 528.335 185.123 528.335 185.336V206.264C528.335 206.477 528.26 206.659 528.111 206.808C527.962 206.936 527.791 207 527.599 207H524.591C524.378 207 524.196 206.936 524.047 206.808C523.919 206.659 523.855 206.477 523.855 206.264V192.184C523.855 191.992 523.802 191.885 523.695 191.864C523.61 191.821 523.503 191.875 523.375 192.024C521.455 194.221 518.042 198.168 513.135 203.864C512.986 204.013 512.826 204.088 512.655 204.088C512.484 204.088 512.324 204.013 512.175 203.864C507.268 198.168 503.855 194.221 501.935 192.024C501.807 191.875 501.69 191.821 501.583 191.864C501.498 191.885 501.455 192.003 501.455 192.216V206.264C501.455 206.477 501.38 206.659 501.231 206.808C501.103 206.936 500.932 207 500.719 207H497.743C497.53 207 497.348 206.936 497.199 206.808C497.05 206.659 496.975 206.477 496.975 206.264V185.336ZM548.753 189.08H536.786C536.572 189.08 536.391 189.155 536.242 189.304C536.114 189.432 536.05 189.603 536.05 189.816V197.304C536.05 197.517 536.114 197.699 536.242 197.848C536.391 197.976 536.572 198.04 536.786 198.04H548.753C548.967 198.04 549.138 197.976 549.266 197.848C549.415 197.699 549.49 197.517 549.49 197.304V189.816C549.49 189.603 549.415 189.432 549.266 189.304C549.138 189.155 548.967 189.08 548.753 189.08ZM531.57 198.04V189.08C531.57 187.843 532.007 186.787 532.882 185.912C533.756 185.037 534.812 184.6 536.05 184.6H549.49C550.727 184.6 551.783 185.037 552.658 185.912C553.532 186.787 553.97 187.843 553.97 189.08V206.264C553.97 206.477 553.895 206.659 553.746 206.808C553.618 206.936 553.447 207 553.234 207H550.226C550.012 207 549.831 206.936 549.682 206.808C549.554 206.659 549.49 206.477 549.49 206.264V203.256C549.49 203.043 549.415 202.872 549.266 202.744C549.138 202.595 548.967 202.52 548.753 202.52H545.362C544.892 202.52 544.466 202.691 544.082 203.032L540.658 206.456C540.338 206.819 539.922 207 539.41 207H534.546C534.418 207 534.322 206.936 534.258 206.808C534.236 206.68 534.258 206.563 534.322 206.456L537.778 203.032C537.863 202.947 537.884 202.84 537.842 202.712C537.778 202.584 537.682 202.52 537.554 202.52H536.05C534.812 202.52 533.756 202.083 532.882 201.208C532.007 200.333 531.57 199.277 531.57 198.04Z" fill="white"/>
<path d="M223.8 146.96V131.84C223.8 130.448 224.292 129.26 225.276 128.276C226.26 127.292 227.448 126.8 228.84 126.8H245.652C245.892 126.8 246.084 126.884 246.228 127.052C246.396 127.196 246.48 127.388 246.48 127.628V131.012C246.48 131.252 246.396 131.456 246.228 131.624C246.084 131.768 245.892 131.84 245.652 131.84H229.668C229.428 131.84 229.224 131.924 229.056 132.092C228.912 132.236 228.84 132.428 228.84 132.668V146.132C228.84 146.372 228.912 146.576 229.056 146.744C229.224 146.888 229.428 146.96 229.668 146.96H245.652C245.892 146.96 246.084 147.044 246.228 147.212C246.396 147.356 246.48 147.548 246.48 147.788V151.172C246.48 151.412 246.396 151.616 246.228 151.784C246.084 151.928 245.892 152 245.652 152H228.84C227.448 152 226.26 151.508 225.276 150.524C224.292 149.54 223.8 148.352 223.8 146.96ZM249.429 146.96V131.84C249.429 130.448 249.921 129.26 250.905 128.276C251.889 127.292 253.077 126.8 254.469 126.8H271.281C271.521 126.8 271.713 126.884 271.857 127.052C272.025 127.196 272.109 127.388 272.109 127.628V131.012C272.109 131.252 272.025 131.456 271.857 131.624C271.713 131.768 271.521 131.84 271.281 131.84H255.297C255.057 131.84 254.853 131.924 254.685 132.092C254.541 132.236 254.469 132.428 254.469 132.668V136.052C254.469 136.292 254.541 136.496 254.685 136.664C254.853 136.808 255.057 136.88 255.297 136.88H271.281C271.521 136.88 271.713 136.964 271.857 137.132C272.025 137.276 272.109 137.468 272.109 137.708V141.092C272.109 141.332 272.025 141.536 271.857 141.704C271.713 141.848 271.521 141.92 271.281 141.92H255.297C255.057 141.92 254.853 142.004 254.685 142.172C254.541 142.316 254.469 142.508 254.469 142.748V146.132C254.469 146.372 254.541 146.576 254.685 146.744C254.853 146.888 255.057 146.96 255.297 146.96H271.281C271.521 146.96 271.713 147.044 271.857 147.212C272.025 147.356 272.109 147.548 272.109 147.788V151.172C272.109 151.412 272.025 151.616 271.857 151.784C271.713 151.928 271.521 152 271.281 152H254.469C253.077 152 251.889 151.508 250.905 150.524C249.921 149.54 249.429 148.352 249.429 146.96ZM295.093 131.84H281.629C281.389 131.84 281.185 131.924 281.017 132.092C280.873 132.236 280.801 132.428 280.801 132.668V141.092C280.801 141.332 280.873 141.536 281.017 141.704C281.185 141.848 281.389 141.92 281.629 141.92H295.093C295.333 141.92 295.525 141.848 295.669 141.704C295.837 141.536 295.921 141.332 295.921 141.092V132.668C295.921 132.428 295.837 132.236 295.669 132.092C295.525 131.924 295.333 131.84 295.093 131.84ZM275.761 151.172V131.84C275.761 130.448 276.253 129.26 277.237 128.276C278.221 127.292 279.409 126.8 280.801 126.8H295.921C297.313 126.8 298.501 127.292 299.485 128.276C300.469 129.26 300.961 130.448 300.961 131.84V141.92C300.961 143.312 300.469 144.5 299.485 145.484C298.501 146.468 297.313 146.96 295.921 146.96H281.629C281.389 146.96 281.185 147.044 281.017 147.212C280.873 147.356 280.801 147.548 280.801 147.788V151.172C280.801 151.412 280.717 151.616 280.549 151.784C280.405 151.928 280.213 152 279.973 152H276.589C276.349 152 276.145 151.928 275.977 151.784C275.833 151.616 275.761 151.412 275.761 151.172ZM303.886 127.628C303.886 127.388 303.958 127.196 304.102 127.052C304.27 126.884 304.474 126.8 304.714 126.8H328.258C328.498 126.8 328.69 126.884 328.834 127.052C329.002 127.196 329.086 127.388 329.086 127.628V131.012C329.086 131.252 329.002 131.456 328.834 131.624C328.69 131.768 328.498 131.84 328.258 131.84H319.834C319.594 131.84 319.39 131.924 319.222 132.092C319.078 132.236 319.006 132.428 319.006 132.668V151.172C319.006 151.412 318.922 151.616 318.754 151.784C318.61 151.928 318.418 152 318.178 152H314.794C314.554 152 314.35 151.928 314.182 151.784C314.038 151.616 313.966 151.412 313.966 151.172V132.668C313.966 132.428 313.882 132.236 313.714 132.092C313.57 131.924 313.378 131.84 313.138 131.84H304.714C304.474 131.84 304.27 131.768 304.102 131.624C303.958 131.456 303.886 131.252 303.886 131.012V127.628ZM357.563 151.172C357.563 151.388 357.479 151.58 357.311 151.748C357.143 151.916 356.939 152 356.699 152H353.351C353.111 152 352.907 151.916 352.739 151.748C352.595 151.58 352.523 151.388 352.523 151.172V135.368C352.523 135.128 352.463 134.996 352.343 134.972C352.247 134.924 352.115 134.984 351.947 135.152C345.971 142.112 341.303 147.512 337.943 151.352C337.607 151.784 337.151 152 336.575 152H333.191C332.951 152 332.747 151.916 332.579 151.748C332.435 151.58 332.363 151.388 332.363 151.172V127.628C332.363 127.412 332.435 127.22 332.579 127.052C332.747 126.884 332.951 126.8 333.191 126.8H336.575C336.791 126.8 336.983 126.884 337.151 127.052C337.319 127.22 337.403 127.412 337.403 127.628V143.468C337.403 143.612 337.463 143.708 337.583 143.756C337.727 143.78 337.847 143.744 337.943 143.648L351.947 127.448C352.331 127.016 352.799 126.8 353.351 126.8H356.699C356.939 126.8 357.143 126.884 357.311 127.052C357.479 127.22 357.563 127.412 357.563 127.628C357.539 127.628 357.539 131.552 357.563 139.4V151.172ZM375.447 131.84H367.023C366.783 131.84 366.579 131.924 366.411 132.092C366.267 132.236 366.195 132.428 366.195 132.668V141.092C366.195 141.332 366.267 141.536 366.411 141.704C366.579 141.848 366.783 141.92 367.023 141.92H375.447C375.687 141.92 375.879 141.848 376.023 141.704C376.191 141.536 376.275 141.332 376.275 141.092V132.668C376.275 132.428 376.191 132.236 376.023 132.092C375.879 131.924 375.687 131.84 375.447 131.84ZM390.567 131.84H382.143C381.903 131.84 381.699 131.924 381.531 132.092C381.387 132.236 381.315 132.428 381.315 132.668V141.092C381.315 141.332 381.387 141.536 381.531 141.704C381.699 141.848 381.903 141.92 382.143 141.92H390.567C390.807 141.92 390.999 141.848 391.143 141.704C391.311 141.536 391.395 141.332 391.395 141.092V132.668C391.395 132.428 391.311 132.236 391.143 132.092C390.999 131.924 390.807 131.84 390.567 131.84ZM361.155 141.92V131.84C361.155 130.448 361.647 129.26 362.631 128.276C363.615 127.292 364.803 126.8 366.195 126.8H391.395C392.787 126.8 393.975 127.292 394.959 128.276C395.943 129.26 396.435 130.448 396.435 131.84V141.92C396.435 143.312 395.943 144.5 394.959 145.484C393.975 146.468 392.787 146.96 391.395 146.96H382.143C381.903 146.96 381.699 147.044 381.531 147.212C381.387 147.356 381.315 147.548 381.315 147.788V151.172C381.315 151.412 381.231 151.616 381.063 151.784C380.919 151.928 380.727 152 380.487 152H377.103C376.863 152 376.659 151.928 376.491 151.784C376.347 151.616 376.275 151.412 376.275 151.172V147.788C376.275 147.548 376.191 147.356 376.023 147.212C375.879 147.044 375.687 146.96 375.447 146.96H366.195C364.803 146.96 363.615 146.468 362.631 145.484C361.647 144.5 361.155 143.312 361.155 141.92ZM425.273 151.172C425.273 151.388 425.189 151.58 425.021 151.748C424.853 151.916 424.649 152 424.409 152H421.061C420.821 152 420.617 151.916 420.449 151.748C420.305 151.58 420.233 151.388 420.233 151.172V135.368C420.233 135.128 420.173 134.996 420.053 134.972C419.957 134.924 419.825 134.984 419.657 135.152C413.681 142.112 409.013 147.512 405.653 151.352C405.317 151.784 404.861 152 404.285 152H400.901C400.661 152 400.457 151.916 400.289 151.748C400.145 151.58 400.073 151.388 400.073 151.172V127.628C400.073 127.412 400.145 127.22 400.289 127.052C400.457 126.884 400.661 126.8 400.901 126.8H404.285C404.501 126.8 404.693 126.884 404.861 127.052C405.029 127.22 405.113 127.412 405.113 127.628V143.468C405.113 143.612 405.173 143.708 405.293 143.756C405.437 143.78 405.557 143.744 405.653 143.648L419.657 127.448C420.041 127.016 420.509 126.8 421.061 126.8H424.409C424.649 126.8 424.853 126.884 425.021 127.052C425.189 127.22 425.273 127.412 425.273 127.628C425.249 127.628 425.249 131.552 425.273 139.4V151.172ZM428.866 151.172V127.628C428.866 127.388 428.938 127.196 429.082 127.052C429.25 126.884 429.454 126.8 429.694 126.8H433.078C433.318 126.8 433.51 126.884 433.654 127.052C433.822 127.196 433.906 127.388 433.906 127.628V136.052C433.906 136.292 433.978 136.496 434.122 136.664C434.29 136.808 434.494 136.88 434.734 136.88H437.866C438.442 136.88 438.898 136.664 439.234 136.232L446.866 127.448C447.202 127.016 447.658 126.8 448.234 126.8H453.238C453.406 126.8 453.514 126.872 453.562 127.016C453.61 127.136 453.598 127.28 453.526 127.448L443.734 138.752C443.35 139.184 443.35 139.616 443.734 140.048L453.526 151.352C453.598 151.52 453.61 151.664 453.562 151.784C453.514 151.928 453.406 152 453.238 152H448.234C447.658 152 447.202 151.784 446.866 151.352L439.234 142.568C438.898 142.136 438.442 141.92 437.866 141.92H434.734C434.494 141.92 434.29 142.004 434.122 142.172C433.978 142.316 433.906 142.508 433.906 142.748V151.172C433.906 151.412 433.822 151.616 433.654 151.784C433.51 151.928 433.318 152 433.078 152H429.694C429.454 152 429.25 151.928 429.082 151.784C428.938 151.616 428.866 151.412 428.866 151.172ZM475.48 131.84H462.016C461.776 131.84 461.572 131.924 461.404 132.092C461.26 132.236 461.188 132.428 461.188 132.668V141.092C461.188 141.332 461.26 141.536 461.404 141.704C461.572 141.848 461.776 141.92 462.016 141.92H475.48C475.72 141.92 475.912 141.848 476.056 141.704C476.224 141.536 476.308 141.332 476.308 141.092V132.668C476.308 132.428 476.224 132.236 476.056 132.092C475.912 131.924 475.72 131.84 475.48 131.84ZM456.148 151.172V131.84C456.148 130.448 456.64 129.26 457.624 128.276C458.608 127.292 459.796 126.8 461.188 126.8H476.308C477.7 126.8 478.888 127.292 479.872 128.276C480.856 129.26 481.348 130.448 481.348 131.84V151.172C481.348 151.412 481.264 151.616 481.096 151.784C480.952 151.928 480.76 152 480.52 152H477.136C476.896 152 476.692 151.928 476.524 151.784C476.38 151.616 476.308 151.412 476.308 151.172V147.788C476.308 147.548 476.224 147.356 476.056 147.212C475.912 147.044 475.72 146.96 475.48 146.96H462.016C461.776 146.96 461.572 147.044 461.404 147.212C461.26 147.356 461.188 147.548 461.188 147.788V151.172C461.188 151.412 461.104 151.616 460.936 151.784C460.792 151.928 460.6 152 460.36 152H456.976C456.736 152 456.532 151.928 456.364 151.784C456.22 151.616 456.148 151.412 456.148 151.172ZM483.499 127.628C483.499 127.388 483.571 127.196 483.715 127.052C483.883 126.884 484.087 126.8 484.327 126.8H507.871C508.111 126.8 508.303 126.884 508.447 127.052C508.615 127.196 508.699 127.388 508.699 127.628V131.012C508.699 131.252 508.615 131.456 508.447 131.624C508.303 131.768 508.111 131.84 507.871 131.84H499.447C499.207 131.84 499.003 131.924 498.835 132.092C498.691 132.236 498.619 132.428 498.619 132.668V151.172C498.619 151.412 498.535 151.616 498.367 151.784C498.223 151.928 498.031 152 497.791 152H494.407C494.167 152 493.963 151.928 493.795 151.784C493.651 151.616 493.579 151.412 493.579 151.172V132.668C493.579 132.428 493.495 132.236 493.327 132.092C493.183 131.924 492.991 131.84 492.751 131.84H484.327C484.087 131.84 483.883 131.768 483.715 131.624C483.571 131.456 483.499 131.252 483.499 131.012V127.628Z" fill="white"/>
<rect x="85" y="247" width="560" height="53" rx="14" fill="#121212" stroke="white" stroke-width="2"/>
<path d="M121.728 284.392L129.216 274.408C129.515 273.981 129.515 273.576 129.216 273.192L121.728 263.208C121.6 263.037 121.557 262.899 121.6 262.792C121.664 262.664 121.803 262.6 122.016 262.6H126.112C126.624 262.6 127.029 262.803 127.328 263.208L132.032 269.48C132.139 269.629 132.288 269.704 132.48 269.704C132.672 269.704 132.821 269.629 132.928 269.48L137.632 263.208C137.931 262.803 138.325 262.6 138.816 262.6H142.912C143.125 262.6 143.264 262.664 143.328 262.792C143.392 262.899 143.36 263.037 143.232 263.208C139.904 267.645 137.397 270.973 135.712 273.192C135.456 273.597 135.456 274.003 135.712 274.408L143.232 284.392C143.36 284.541 143.392 284.68 143.328 284.808C143.264 284.936 143.125 285 142.912 285H138.816C138.325 285 137.931 284.797 137.632 284.392L132.928 278.12C132.821 277.971 132.672 277.896 132.48 277.896C132.288 277.896 132.139 277.971 132.032 278.12L127.328 284.392C127.029 284.797 126.624 285 126.112 285H122.016C121.803 285 121.664 284.936 121.6 284.808C121.557 284.68 121.6 284.541 121.728 284.392ZM146.384 284.392L153.872 274.408C154.171 273.981 154.171 273.576 153.872 273.192L146.384 263.208C146.256 263.037 146.214 262.899 146.256 262.792C146.32 262.664 146.459 262.6 146.672 262.6H150.768C151.28 262.6 151.686 262.803 151.984 263.208L156.688 269.48C156.795 269.629 156.944 269.704 157.136 269.704C157.328 269.704 157.478 269.629 157.584 269.48L162.288 263.208C162.587 262.803 162.982 262.6 163.472 262.6H167.568C167.782 262.6 167.92 262.664 167.984 262.792C168.048 262.899 168.016 263.037 167.888 263.208C164.56 267.645 162.054 270.973 160.368 273.192C160.112 273.597 160.112 274.003 160.368 274.408L167.888 284.392C168.016 284.541 168.048 284.68 167.984 284.808C167.92 284.936 167.782 285 167.568 285H163.472C162.982 285 162.587 284.797 162.288 284.392L157.584 278.12C157.478 277.971 157.328 277.896 157.136 277.896C156.944 277.896 156.795 277.971 156.688 278.12L151.984 284.392C151.686 284.797 151.28 285 150.768 285H146.672C146.459 285 146.32 284.936 146.256 284.808C146.214 284.68 146.256 284.541 146.384 284.392ZM171.041 284.392L178.529 274.408C178.827 273.981 178.827 273.576 178.529 273.192L171.041 263.208C170.913 263.037 170.87 262.899 170.913 262.792C170.977 262.664 171.115 262.6 171.329 262.6H175.425C175.937 262.6 176.342 262.803 176.641 263.208L181.345 269.48C181.451 269.629 181.601 269.704 181.793 269.704C181.985 269.704 182.134 269.629 182.241 269.48L186.944 263.208C187.243 262.803 187.638 262.6 188.128 262.6H192.225C192.438 262.6 192.577 262.664 192.641 262.792C192.705 262.899 192.673 263.037 192.545 263.208C189.217 267.645 186.71 270.973 185.025 273.192C184.769 273.597 184.769 274.003 185.025 274.408L192.545 284.392C192.673 284.541 192.705 284.68 192.641 284.808C192.577 284.936 192.438 285 192.225 285H188.128C187.638 285 187.243 284.797 186.944 284.392L182.241 278.12C182.134 277.971 181.985 277.896 181.793 277.896C181.601 277.896 181.451 277.971 181.345 278.12L176.641 284.392C176.342 284.797 175.937 285 175.425 285H171.329C171.115 285 170.977 284.936 170.913 284.808C170.87 284.68 170.913 284.541 171.041 284.392ZM195.697 284.392L203.185 274.408C203.483 273.981 203.483 273.576 203.185 273.192L195.697 263.208C195.569 263.037 195.526 262.899 195.569 262.792C195.633 262.664 195.771 262.6 195.985 262.6H200.081C200.593 262.6 200.998 262.803 201.297 263.208L206.001 269.48C206.107 269.629 206.257 269.704 206.449 269.704C206.641 269.704 206.79 269.629 206.897 269.48L211.601 263.208C211.899 262.803 212.294 262.6 212.785 262.6H216.881C217.094 262.6 217.233 262.664 217.297 262.792C217.361 262.899 217.329 263.037 217.201 263.208C213.873 267.645 211.366 270.973 209.681 273.192C209.425 273.597 209.425 274.003 209.681 274.408L217.201 284.392C217.329 284.541 217.361 284.68 217.297 284.808C217.233 284.936 217.094 285 216.881 285H212.785C212.294 285 211.899 284.797 211.601 284.392L206.897 278.12C206.79 277.971 206.641 277.896 206.449 277.896C206.257 277.896 206.107 277.971 206.001 278.12L201.297 284.392C200.998 284.797 200.593 285 200.081 285H195.985C195.771 285 195.633 284.936 195.569 284.808C195.526 284.68 195.569 284.541 195.697 284.392ZM220.353 284.392L227.841 274.408C228.14 273.981 228.14 273.576 227.841 273.192L220.353 263.208C220.225 263.037 220.182 262.899 220.225 262.792C220.289 262.664 220.428 262.6 220.641 262.6H224.737C225.249 262.6 225.654 262.803 225.953 263.208L230.657 269.48C230.764 269.629 230.913 269.704 231.105 269.704C231.297 269.704 231.446 269.629 231.553 269.48L236.257 263.208C236.556 262.803 236.95 262.6 237.441 262.6H241.537C241.75 262.6 241.889 262.664 241.953 262.792C242.017 262.899 241.985 263.037 241.857 263.208C238.529 267.645 236.022 270.973 234.337 273.192C234.081 273.597 234.081 274.003 234.337 274.408L241.857 284.392C241.985 284.541 242.017 284.68 241.953 284.808C241.889 284.936 241.75 285 241.537 285H237.441C236.95 285 236.556 284.797 236.257 284.392L231.553 278.12C231.446 277.971 231.297 277.896 231.105 277.896C230.913 277.896 230.764 277.971 230.657 278.12L225.953 284.392C225.654 284.797 225.249 285 224.737 285H220.641C220.428 285 220.289 284.936 220.225 284.808C220.182 284.68 220.225 284.541 220.353 284.392ZM245.009 284.392L252.497 274.408C252.796 273.981 252.796 273.576 252.497 273.192L245.009 263.208C244.881 263.037 244.839 262.899 244.881 262.792C244.945 262.664 245.084 262.6 245.297 262.6H249.393C249.905 262.6 250.311 262.803 250.609 263.208L255.313 269.48C255.42 269.629 255.569 269.704 255.761 269.704C255.953 269.704 256.103 269.629 256.209 269.48L260.913 263.208C261.212 262.803 261.607 262.6 262.097 262.6H266.193C266.407 262.6 266.545 262.664 266.609 262.792C266.673 262.899 266.641 263.037 266.513 263.208C263.185 267.645 260.679 270.973 258.993 273.192C258.737 273.597 258.737 274.003 258.993 274.408L266.513 284.392C266.641 284.541 266.673 284.68 266.609 284.808C266.545 284.936 266.407 285 266.193 285H262.097C261.607 285 261.212 284.797 260.913 284.392L256.209 278.12C256.103 277.971 255.953 277.896 255.761 277.896C255.569 277.896 255.42 277.971 255.313 278.12L250.609 284.392C250.311 284.797 249.905 285 249.393 285H245.297C245.084 285 244.945 284.936 244.881 284.808C244.839 284.68 244.881 284.541 245.009 284.392ZM269.666 284.392L277.154 274.408C277.452 273.981 277.452 273.576 277.154 273.192L269.666 263.208C269.538 263.037 269.495 262.899 269.538 262.792C269.602 262.664 269.74 262.6 269.954 262.6H274.05C274.562 262.6 274.967 262.803 275.266 263.208L279.97 269.48C280.076 269.629 280.226 269.704 280.418 269.704C280.61 269.704 280.759 269.629 280.866 269.48L285.569 263.208C285.868 262.803 286.263 262.6 286.753 262.6H290.85C291.063 262.6 291.202 262.664 291.266 262.792C291.33 262.899 291.298 263.037 291.17 263.208C287.842 267.645 285.335 270.973 283.65 273.192C283.394 273.597 283.394 274.003 283.65 274.408L291.17 284.392C291.298 284.541 291.33 284.68 291.266 284.808C291.202 284.936 291.063 285 290.85 285H286.753C286.263 285 285.868 284.797 285.569 284.392L280.866 278.12C280.759 277.971 280.61 277.896 280.418 277.896C280.226 277.896 280.076 277.971 279.97 278.12L275.266 284.392C274.967 284.797 274.562 285 274.05 285H269.954C269.74 285 269.602 284.936 269.538 284.808C269.495 284.68 269.538 284.541 269.666 284.392ZM294.322 284.392L301.81 274.408C302.108 273.981 302.108 273.576 301.81 273.192L294.322 263.208C294.194 263.037 294.151 262.899 294.194 262.792C294.258 262.664 294.396 262.6 294.61 262.6H298.706C299.218 262.6 299.623 262.803 299.922 263.208L304.626 269.48C304.732 269.629 304.882 269.704 305.074 269.704C305.266 269.704 305.415 269.629 305.522 269.48L310.226 263.208C310.524 262.803 310.919 262.6 311.41 262.6H315.506C315.719 262.6 315.858 262.664 315.922 262.792C315.986 262.899 315.954 263.037 315.826 263.208C312.498 267.645 309.991 270.973 308.306 273.192C308.05 273.597 308.05 274.003 308.306 274.408L315.826 284.392C315.954 284.541 315.986 284.68 315.922 284.808C315.858 284.936 315.719 285 315.506 285H311.41C310.919 285 310.524 284.797 310.226 284.392L305.522 278.12C305.415 277.971 305.266 277.896 305.074 277.896C304.882 277.896 304.732 277.971 304.626 278.12L299.922 284.392C299.623 284.797 299.218 285 298.706 285H294.61C294.396 285 294.258 284.936 294.194 284.808C294.151 284.68 294.194 284.541 294.322 284.392ZM318.978 284.392L326.466 274.408C326.765 273.981 326.765 273.576 326.466 273.192L318.978 263.208C318.85 263.037 318.807 262.899 318.85 262.792C318.914 262.664 319.053 262.6 319.266 262.6H323.362C323.874 262.6 324.279 262.803 324.578 263.208L329.282 269.48C329.389 269.629 329.538 269.704 329.73 269.704C329.922 269.704 330.071 269.629 330.178 269.48L334.882 263.208C335.181 262.803 335.575 262.6 336.066 262.6H340.162C340.375 262.6 340.514 262.664 340.578 262.792C340.642 262.899 340.61 263.037 340.482 263.208C337.154 267.645 334.647 270.973 332.962 273.192C332.706 273.597 332.706 274.003 332.962 274.408L340.482 284.392C340.61 284.541 340.642 284.68 340.578 284.808C340.514 284.936 340.375 285 340.162 285H336.066C335.575 285 335.181 284.797 334.882 284.392L330.178 278.12C330.071 277.971 329.922 277.896 329.73 277.896C329.538 277.896 329.389 277.971 329.282 278.12L324.578 284.392C324.279 284.797 323.874 285 323.362 285H319.266C319.053 285 318.914 284.936 318.85 284.808C318.807 284.68 318.85 284.541 318.978 284.392ZM343.634 284.392L351.122 274.408C351.421 273.981 351.421 273.576 351.122 273.192L343.634 263.208C343.506 263.037 343.464 262.899 343.506 262.792C343.57 262.664 343.709 262.6 343.922 262.6H348.018C348.53 262.6 348.936 262.803 349.234 263.208L353.938 269.48C354.045 269.629 354.194 269.704 354.386 269.704C354.578 269.704 354.728 269.629 354.834 269.48L359.538 263.208C359.837 262.803 360.232 262.6 360.722 262.6H364.818C365.032 262.6 365.17 262.664 365.234 262.792C365.298 262.899 365.266 263.037 365.138 263.208C361.81 267.645 359.304 270.973 357.618 273.192C357.362 273.597 357.362 274.003 357.618 274.408L365.138 284.392C365.266 284.541 365.298 284.68 365.234 284.808C365.17 284.936 365.032 285 364.818 285H360.722C360.232 285 359.837 284.797 359.538 284.392L354.834 278.12C354.728 277.971 354.578 277.896 354.386 277.896C354.194 277.896 354.045 277.971 353.938 278.12L349.234 284.392C348.936 284.797 348.53 285 348.018 285H343.922C343.709 285 343.57 284.936 343.506 284.808C343.464 284.68 343.506 284.541 343.634 284.392ZM368.291 284.392L375.779 274.408C376.077 273.981 376.077 273.576 375.779 273.192L368.291 263.208C368.163 263.037 368.12 262.899 368.163 262.792C368.227 262.664 368.365 262.6 368.579 262.6H372.675C373.187 262.6 373.592 262.803 373.891 263.208L378.595 269.48C378.701 269.629 378.851 269.704 379.043 269.704C379.235 269.704 379.384 269.629 379.491 269.48L384.194 263.208C384.493 262.803 384.888 262.6 385.378 262.6H389.475C389.688 262.6 389.827 262.664 389.891 262.792C389.955 262.899 389.923 263.037 389.795 263.208C386.467 267.645 383.96 270.973 382.275 273.192C382.019 273.597 382.019 274.003 382.275 274.408L389.795 284.392C389.923 284.541 389.955 284.68 389.891 284.808C389.827 284.936 389.688 285 389.475 285H385.378C384.888 285 384.493 284.797 384.194 284.392L379.491 278.12C379.384 277.971 379.235 277.896 379.043 277.896C378.851 277.896 378.701 277.971 378.595 278.12L373.891 284.392C373.592 284.797 373.187 285 372.675 285H368.579C368.365 285 368.227 284.936 368.163 284.808C368.12 284.68 368.163 284.541 368.291 284.392ZM392.947 284.392L400.435 274.408C400.733 273.981 400.733 273.576 400.435 273.192L392.947 263.208C392.819 263.037 392.776 262.899 392.819 262.792C392.883 262.664 393.021 262.6 393.235 262.6H397.331C397.843 262.6 398.248 262.803 398.547 263.208L403.251 269.48C403.357 269.629 403.507 269.704 403.699 269.704C403.891 269.704 404.04 269.629 404.147 269.48L408.851 263.208C409.149 262.803 409.544 262.6 410.035 262.6H414.131C414.344 262.6 414.483 262.664 414.547 262.792C414.611 262.899 414.579 263.037 414.451 263.208C411.123 267.645 408.616 270.973 406.931 273.192C406.675 273.597 406.675 274.003 406.931 274.408L414.451 284.392C414.579 284.541 414.611 284.68 414.547 284.808C414.483 284.936 414.344 285 414.131 285H410.035C409.544 285 409.149 284.797 408.851 284.392L404.147 278.12C404.04 277.971 403.891 277.896 403.699 277.896C403.507 277.896 403.357 277.971 403.251 278.12L398.547 284.392C398.248 284.797 397.843 285 397.331 285H393.235C393.021 285 392.883 284.936 392.819 284.808C392.776 284.68 392.819 284.541 392.947 284.392ZM417.603 284.392L425.091 274.408C425.39 273.981 425.39 273.576 425.091 273.192L417.603 263.208C417.475 263.037 417.432 262.899 417.475 262.792C417.539 262.664 417.678 262.6 417.891 262.6H421.987C422.499 262.6 422.904 262.803 423.203 263.208L427.907 269.48C428.014 269.629 428.163 269.704 428.355 269.704C428.547 269.704 428.696 269.629 428.803 269.48L433.507 263.208C433.806 262.803 434.2 262.6 434.691 262.6H438.787C439 262.6 439.139 262.664 439.203 262.792C439.267 262.899 439.235 263.037 439.107 263.208C435.779 267.645 433.272 270.973 431.587 273.192C431.331 273.597 431.331 274.003 431.587 274.408L439.107 284.392C439.235 284.541 439.267 284.68 439.203 284.808C439.139 284.936 439 285 438.787 285H434.691C434.2 285 433.806 284.797 433.507 284.392L428.803 278.12C428.696 277.971 428.547 277.896 428.355 277.896C428.163 277.896 428.014 277.971 427.907 278.12L423.203 284.392C422.904 284.797 422.499 285 421.987 285H417.891C417.678 285 417.539 284.936 417.475 284.808C417.432 284.68 417.475 284.541 417.603 284.392ZM442.259 284.392L449.747 274.408C450.046 273.981 450.046 273.576 449.747 273.192L442.259 263.208C442.131 263.037 442.089 262.899 442.131 262.792C442.195 262.664 442.334 262.6 442.547 262.6H446.643C447.155 262.6 447.561 262.803 447.859 263.208L452.563 269.48C452.67 269.629 452.819 269.704 453.011 269.704C453.203 269.704 453.353 269.629 453.459 269.48L458.163 263.208C458.462 262.803 458.857 262.6 459.347 262.6H463.443C463.657 262.6 463.795 262.664 463.859 262.792C463.923 262.899 463.891 263.037 463.763 263.208C460.435 267.645 457.929 270.973 456.243 273.192C455.987 273.597 455.987 274.003 456.243 274.408L463.763 284.392C463.891 284.541 463.923 284.68 463.859 284.808C463.795 284.936 463.657 285 463.443 285H459.347C458.857 285 458.462 284.797 458.163 284.392L453.459 278.12C453.353 277.971 453.203 277.896 453.011 277.896C452.819 277.896 452.67 277.971 452.563 278.12L447.859 284.392C447.561 284.797 447.155 285 446.643 285H442.547C442.334 285 442.195 284.936 442.131 284.808C442.089 284.68 442.131 284.541 442.259 284.392ZM466.916 284.392L474.404 274.408C474.702 273.981 474.702 273.576 474.404 273.192L466.916 263.208C466.788 263.037 466.745 262.899 466.788 262.792C466.852 262.664 466.99 262.6 467.204 262.6H471.3C471.812 262.6 472.217 262.803 472.516 263.208L477.22 269.48C477.326 269.629 477.476 269.704 477.668 269.704C477.86 269.704 478.009 269.629 478.116 269.48L482.819 263.208C483.118 262.803 483.513 262.6 484.003 262.6H488.1C488.313 262.6 488.452 262.664 488.516 262.792C488.58 262.899 488.548 263.037 488.42 263.208C485.092 267.645 482.585 270.973 480.9 273.192C480.644 273.597 480.644 274.003 480.9 274.408L488.42 284.392C488.548 284.541 488.58 284.68 488.516 284.808C488.452 284.936 488.313 285 488.1 285H484.003C483.513 285 483.118 284.797 482.819 284.392L478.116 278.12C478.009 277.971 477.86 277.896 477.668 277.896C477.476 277.896 477.326 277.971 477.22 278.12L472.516 284.392C472.217 284.797 471.812 285 471.3 285H467.204C466.99 285 466.852 284.936 466.788 284.808C466.745 284.68 466.788 284.541 466.916 284.392ZM491.572 284.392L499.06 274.408C499.358 273.981 499.358 273.576 499.06 273.192L491.572 263.208C491.444 263.037 491.401 262.899 491.444 262.792C491.508 262.664 491.646 262.6 491.86 262.6H495.956C496.468 262.6 496.873 262.803 497.172 263.208L501.876 269.48C501.982 269.629 502.132 269.704 502.324 269.704C502.516 269.704 502.665 269.629 502.772 269.48L507.476 263.208C507.774 262.803 508.169 262.6 508.66 262.6H512.756C512.969 262.6 513.108 262.664 513.172 262.792C513.236 262.899 513.204 263.037 513.076 263.208C509.748 267.645 507.241 270.973 505.556 273.192C505.3 273.597 505.3 274.003 505.556 274.408L513.076 284.392C513.204 284.541 513.236 284.68 513.172 284.808C513.108 284.936 512.969 285 512.756 285H508.66C508.169 285 507.774 284.797 507.476 284.392L502.772 278.12C502.665 277.971 502.516 277.896 502.324 277.896C502.132 277.896 501.982 277.971 501.876 278.12L497.172 284.392C496.873 284.797 496.468 285 495.956 285H491.86C491.646 285 491.508 284.936 491.444 284.808C491.401 284.68 491.444 284.541 491.572 284.392ZM516.228 284.392L523.716 274.408C524.015 273.981 524.015 273.576 523.716 273.192L516.228 263.208C516.1 263.037 516.057 262.899 516.1 262.792C516.164 262.664 516.303 262.6 516.516 262.6H520.612C521.124 262.6 521.529 262.803 521.828 263.208L526.532 269.48C526.639 269.629 526.788 269.704 526.98 269.704C527.172 269.704 527.321 269.629 527.428 269.48L532.132 263.208C532.431 262.803 532.825 262.6 533.316 262.6H537.412C537.625 262.6 537.764 262.664 537.828 262.792C537.892 262.899 537.86 263.037 537.732 263.208C534.404 267.645 531.897 270.973 530.212 273.192C529.956 273.597 529.956 274.003 530.212 274.408L537.732 284.392C537.86 284.541 537.892 284.68 537.828 284.808C537.764 284.936 537.625 285 537.412 285H533.316C532.825 285 532.431 284.797 532.132 284.392L527.428 278.12C527.321 277.971 527.172 277.896 526.98 277.896C526.788 277.896 526.639 277.971 526.532 278.12L521.828 284.392C521.529 284.797 521.124 285 520.612 285H516.516C516.303 285 516.164 284.936 516.1 284.808C516.057 284.68 516.1 284.541 516.228 284.392ZM540.884 284.392L548.372 274.408C548.671 273.981 548.671 273.576 548.372 273.192L540.884 263.208C540.756 263.037 540.714 262.899 540.756 262.792C540.82 262.664 540.959 262.6 541.172 262.6H545.268C545.78 262.6 546.186 262.803 546.484 263.208L551.188 269.48C551.295 269.629 551.444 269.704 551.636 269.704C551.828 269.704 551.978 269.629 552.084 269.48L556.788 263.208C557.087 262.803 557.482 262.6 557.972 262.6H562.068C562.282 262.6 562.42 262.664 562.484 262.792C562.548 262.899 562.516 263.037 562.388 263.208C559.06 267.645 556.554 270.973 554.868 273.192C554.612 273.597 554.612 274.003 554.868 274.408L562.388 284.392C562.516 284.541 562.548 284.68 562.484 284.808C562.42 284.936 562.282 285 562.068 285H557.972C557.482 285 557.087 284.797 556.788 284.392L552.084 278.12C551.978 277.971 551.828 277.896 551.636 277.896C551.444 277.896 551.295 277.971 551.188 278.12L546.484 284.392C546.186 284.797 545.78 285 545.268 285H541.172C540.959 285 540.82 284.936 540.756 284.808C540.714 284.68 540.756 284.541 540.884 284.392ZM565.541 284.392L573.029 274.408C573.327 273.981 573.327 273.576 573.029 273.192L565.541 263.208C565.413 263.037 565.37 262.899 565.413 262.792C565.477 262.664 565.615 262.6 565.829 262.6H569.925C570.437 262.6 570.842 262.803 571.141 263.208L575.845 269.48C575.951 269.629 576.101 269.704 576.293 269.704C576.485 269.704 576.634 269.629 576.741 269.48L581.444 263.208C581.743 262.803 582.138 262.6 582.628 262.6H586.725C586.938 262.6 587.077 262.664 587.141 262.792C587.205 262.899 587.173 263.037 587.045 263.208C583.717 267.645 581.21 270.973 579.525 273.192C579.269 273.597 579.269 274.003 579.525 274.408L587.045 284.392C587.173 284.541 587.205 284.68 587.141 284.808C587.077 284.936 586.938 285 586.725 285H582.628C582.138 285 581.743 284.797 581.444 284.392L576.741 278.12C576.634 277.971 576.485 277.896 576.293 277.896C576.101 277.896 575.951 277.971 575.845 278.12L571.141 284.392C570.842 284.797 570.437 285 569.925 285H565.829C565.615 285 565.477 284.936 565.413 284.808C565.37 284.68 565.413 284.541 565.541 284.392ZM590.197 284.392L597.685 274.408C597.983 273.981 597.983 273.576 597.685 273.192L590.197 263.208C590.069 263.037 590.026 262.899 590.069 262.792C590.133 262.664 590.271 262.6 590.485 262.6H594.581C595.093 262.6 595.498 262.803 595.797 263.208L600.501 269.48C600.607 269.629 600.757 269.704 600.949 269.704C601.141 269.704 601.29 269.629 601.397 269.48L606.101 263.208C606.399 262.803 606.794 262.6 607.285 262.6H611.381C611.594 262.6 611.733 262.664 611.797 262.792C611.861 262.899 611.829 263.037 611.701 263.208C608.373 267.645 605.866 270.973 604.181 273.192C603.925 273.597 603.925 274.003 604.181 274.408L611.701 284.392C611.829 284.541 611.861 284.68 611.797 284.808C611.733 284.936 611.594 285 611.381 285H607.285C606.794 285 606.399 284.797 606.101 284.392L601.397 278.12C601.29 277.971 601.141 277.896 600.949 277.896C600.757 277.896 600.607 277.971 600.501 278.12L595.797 284.392C595.498 284.797 595.093 285 594.581 285H590.485C590.271 285 590.133 284.936 590.069 284.808C590.026 284.68 590.069 284.541 590.197 284.392Z" fill="white"/>
<path d="M56.5357 279.978C58.4881 281.321 58.4881 284.679 56.5357 286.022L21.3929 310.201C19.4405 311.544 17 309.865 17 307.178V258.822C17 256.135 19.4405 254.456 21.3929 255.799L56.5357 279.978Z" fill="#E11E24"/>
<path fill-rule="evenodd" clip-rule="evenodd" d="M51.5571 345.327L21.6857 324.775V365.878L51.5571 345.327ZM56.5357 348.349C58.4881 347.006 58.4881 343.647 56.5357 342.304L21.3929 318.126C19.4405 316.783 17 318.462 17 321.148V369.505C17 372.191 19.4405 373.87 21.3929 372.527L56.5357 348.349Z" fill="#E11E24"/>
<path d="M56.5357 223.696C58.4881 222.353 58.4881 218.994 56.5357 217.651L40.4286 206.569V234.778L56.5357 223.696Z" fill="white"/>
<path d="M34.5714 238.807V202.54L21.3929 193.473C19.4405 192.13 17 193.809 17 196.495V244.852C17 247.538 19.4405 249.217 21.3929 247.874L34.5714 238.807Z" fill="#E11E24"/>
<path d="M18.4643 120.022C16.5119 118.679 16.5119 115.321 18.4643 113.978L53.6071 89.7993C55.5595 88.4561 58 90.1351 58 92.8216V141.178C58 143.865 55.5595 145.544 53.6071 144.201L18.4643 120.022Z" fill="white"/>
<path fill-rule="evenodd" clip-rule="evenodd" d="M23.4429 54.6734L53.3143 75.2251V34.1218L23.4429 54.6734ZM18.4643 51.6511C16.5119 52.9944 16.5119 56.3525 18.4643 57.6957L53.6071 81.8741C55.5595 83.2174 58 81.5383 58 78.8519V30.4951C58 27.8086 55.5595 26.1295 53.6071 27.4728L18.4643 51.6511Z" fill="white"/>
<path d="M18.4643 176.304C16.5119 177.647 16.5119 181.006 18.4643 182.349L34.5714 193.431V165.222L18.4643 176.304Z" fill="#E11E24"/>
<path d="M40.4286 161.193V197.46L53.6071 206.527C55.5595 207.87 58 206.191 58 203.505V155.148C58 152.462 55.5595 150.783 53.6071 152.126L40.4286 161.193Z" fill="white"/>
<path d="M123.113 345.793V355.402L118.289 360.285L123.113 362.883V373.039H97V365.559H115.73V362.883H93.7969V373.039H85.4375V355.402H115.73V353.273H92.8008L85.4375 345.793H123.113ZM125.125 345.793H162.801V373.039H155.418V366.398H133.484V373.039H125.125V357.648L133.484 353.273V364.875L137.938 358.918H155.418V353.273H133.484L125.125 345.793ZM201.785 345.793L194.422 353.273H176.902H164.812V345.793H201.785ZM185.418 376.77L176.902 369.289V353.273L185.418 358.312V376.77ZM240.73 345.793L233.367 353.273H215.848H203.758V345.793H240.73ZM224.363 376.77L215.848 369.289V353.273L224.363 358.312V376.77ZM242.703 365.52H275.027L267.664 372.961H242.703V365.52ZM251.18 345.793V360.48L242.703 365.52V345.793H251.18ZM314.715 345.793L307.332 353.273H284.402V345.793H314.715ZM306.082 362.883H284.402V365.559H311.609V373.039H284.402L277.039 365.559V345.793L284.402 353.273V355.363H311.648L306.082 362.883ZM326.727 345.793H364.402V373.039H357.02V366.398H335.086V373.039H326.727V357.648L335.086 353.273V364.875L339.539 358.918H357.02V353.273H335.086L326.727 345.793ZM374.773 362.883V373.039H366.414V355.402H396.707V353.273H373.777L366.414 345.793H404.051V362.883H391.336L407.293 372.961H394.812L377.977 362.883H374.773ZM444.168 345.793L436.785 353.273H413.855V345.793H444.168ZM435.535 362.883H413.855V365.559H441.062V373.039H413.855L406.492 365.559V345.793L413.855 353.273V355.363H441.102L435.535 362.883ZM476.512 345.793L483.855 353.273V373.039H476.512V353.273H453.543V345.793H476.512ZM446.18 373.039V345.793L453.543 353.273V373.039H446.18ZM485.867 345.793H523.543V373.039H516.16V366.398H494.227V373.039H485.867V357.648L494.227 353.273V364.875L498.68 358.918H516.16V353.273H494.227L485.867 345.793Z" fill="white"/>
</svg>
