<svg width="1168" height="171" viewBox="0 0 1168 171" fill="none" xmlns="http://www.w3.org/2000/svg">
<g clip-path="url(#clip0_236_5)">
<path d="M563.05 69.3692C559.675 63.3094 556.301 57.241 552.926 51.1812V43.0986C557.652 37.7102 562.37 32.3132 567.096 26.9334C574.517 26.2534 581.947 25.5906 589.368 24.9106C591.391 27.6048 593.414 30.299 595.446 32.9932C596.789 31.3061 598.149 29.6276 599.492 27.9405H615.694C618.053 29.2833 620.42 30.6347 622.779 31.9861C624.802 30.6433 626.825 29.2919 628.857 27.9405H644.043C645.73 29.2833 647.418 30.6347 649.105 31.9861C651.128 29.2919 653.151 26.5977 655.183 23.9035C662.604 24.2392 670.033 24.5835 677.454 24.9106C682.516 31.3061 687.578 37.7102 692.64 44.1143C689.601 49.5027 686.562 54.8997 683.532 60.2795C681.173 58.9367 678.806 57.5853 676.447 56.2339C675.767 58.9281 675.104 61.6223 674.424 64.3165C677.127 80.4817 679.822 96.6555 682.525 112.821C678.143 119.896 673.744 126.972 669.362 134.039C662.957 138.084 656.535 142.121 650.129 146.167C647.091 144.144 644.052 142.121 641.021 140.107C640.005 140.787 638.998 141.45 637.982 142.13H607.61L603.564 140.107C600.861 141.794 598.166 143.473 595.463 145.16C588.713 140.787 581.964 136.397 575.215 132.024C570.488 125.965 565.771 119.896 561.044 113.836C564.419 97.6712 567.794 81.4974 571.168 65.3322C570.488 63.6451 569.825 61.9666 569.145 60.2795L563.067 69.3778H563.05V69.3692Z" fill="white" stroke="white" stroke-width="3" stroke-miterlimit="10"/>
<path d="M656.371 24.506C659.884 26.1415 663.396 27.7684 666.9 29.4038L667.089 49.5974C669.956 51.0865 672.823 52.5671 675.681 54.0476C674.898 57.0172 674.131 59.9783 673.348 62.9479C666.073 52.4982 658.79 42.0485 651.507 31.5988C653.126 29.2317 654.735 26.8732 656.354 24.506H656.371Z" fill="#121212"/>
<path d="M570.161 76.307C573.734 85.2504 575.327 92.8079 576.101 98.2393C577.522 108.112 577.522 119.845 577.522 127.006V127.135C577.858 121.317 579.399 108.775 587.99 96.1735C594.197 87.0666 601.567 81.6438 606.215 78.7602H621.978C626.98 78.7172 631.973 78.6741 636.975 78.6311C641.615 81.2048 655.14 89.537 661.924 106.494C665.66 115.833 665.944 124.252 665.669 129.451C665.643 130.114 665.204 116.006 668.381 100.038C670.206 90.9228 672.883 83.6752 674.932 78.8807C676.843 90.1481 678.746 101.416 680.666 112.683C678.462 117.348 676.361 121.179 674.682 124.08C672.461 127.893 671.084 129.864 668.992 131.818C667.089 133.6 665.419 134.607 664.119 135.381C659.952 137.895 655.381 140.701 649.777 144.153C646.893 142.173 644.009 140.202 641.125 138.222C643.587 137.361 646.032 136.509 648.494 135.648C650 133.479 652.17 129.795 653.272 124.82C654.667 118.536 653.659 113.535 653.143 111.013C650.052 95.8722 636.295 85.061 633.626 83.021C629.778 82.9435 625.852 82.8919 621.866 82.8919C617.657 82.8919 613.516 82.9349 609.452 83.021C606.482 85.7152 595.342 96.3026 591.744 110.247C591.124 112.649 589.867 117.503 590.444 123.916C590.857 128.495 592.036 132.162 593.027 134.624C596.298 135.356 599.578 136.087 602.849 136.819C600.654 138.627 598.459 140.426 596.255 142.233C591.322 140.426 583.806 136.991 576.222 130.492C568.749 124.097 564.238 117.305 561.681 112.76C564.505 100.615 567.32 88.4696 570.144 76.3242H570.178L570.161 76.307Z" fill="#121212"/>
<path d="M622.374 32.778C626.481 37.8996 630.587 43.0384 634.694 48.1599C631.62 50.8972 628.538 53.6258 625.448 56.363C625.792 62.8618 626.136 69.352 626.472 75.8422C629.873 75.6528 633.661 75.6098 637.759 75.8422C642.511 76.109 646.807 76.6772 650.586 77.3744C655.028 77.0301 659.487 76.6858 663.93 76.3501L675.887 84.7339C674.398 74.5252 671.626 66.8902 669.491 62.0269C667.898 58.4203 666.332 55.5625 665.591 54.2542C664.326 52.0248 661.407 47.1098 656.75 41.4804C653.797 37.9168 649.751 33.5958 644.448 29.2489C642.158 29.18 639.825 29.137 637.431 29.1198C634.918 29.1026 632.464 29.1198 630.054 29.1714H630.036C630.036 29.1714 624.63 31.6935 622.349 32.7608H622.366V32.778H622.374Z" fill="#121212"/>
<path d="M569.679 58.1362C570.712 60.5377 571.737 62.9393 572.77 65.3408C579.975 54.2972 587.19 43.2535 594.395 32.2099C592.665 29.4554 590.943 26.6924 589.213 23.9379C585.519 25.1172 581.835 26.305 578.142 27.4929C577.737 32.3132 577.332 37.1335 576.928 41.9538L569.688 58.1448H569.679V58.1362Z" fill="#121212"/>
<path d="M553.882 50.2774C559.512 52.3519 565.142 54.4177 570.772 56.5008C568.517 60.2709 566.244 64.0497 563.988 67.8198C560.631 61.9666 557.256 56.1306 553.89 50.2774H553.882Z" fill="#121212"/>
<path d="M580.862 61.8203C584.073 55.5883 587.267 49.365 590.478 43.1244H591.494C593.181 45.1472 594.869 47.17 596.556 49.1842C599.423 45.3108 602.298 41.4373 605.165 37.5639C603.314 41.7816 601.446 45.9822 599.595 50.1913L607.696 54.2369C608.032 52.2141 608.376 50.1913 608.712 48.1771C609.728 48.5128 610.735 48.8571 611.751 49.1842C613.438 54.5726 615.126 59.9696 616.813 65.3494C609.048 61.3038 601.291 57.2668 593.526 53.2212C589.307 56.079 585.089 58.9539 580.871 61.8117H580.862V61.8203Z" fill="#121212"/>
<path d="M631.991 71.4179C631.861 70.9186 636.149 69.8685 641.633 67.4067C649.355 63.9206 650.706 61.5449 654.434 61.9925C657.705 62.3798 661.528 64.79 661.356 67.3809C661.201 69.7738 657.697 71.2629 657.309 71.4265C657.645 72.4336 657.99 73.4493 658.325 74.4564C657.309 73.7075 656.311 72.95 655.295 72.2012C653.272 72.95 651.24 73.7075 649.208 74.4564C647.599 73.4321 645.222 72.1839 642.149 71.547C636.579 70.3849 632.128 71.9429 631.991 71.4265V71.4179Z" fill="white"/>
<path d="M612.595 71.4179C612.724 70.9186 608.437 69.8685 602.953 67.4067C595.205 63.912 593.879 61.5362 590.16 61.9925C586.871 62.3884 583.075 64.8244 583.238 67.3809C583.367 69.4725 586.079 70.8497 586.673 71.1338C586.2 72.3389 585.718 73.5353 585.253 74.7404C584.598 76.8149 583.944 78.8807 583.29 80.9552C584.409 79.1906 585.545 77.4174 586.673 75.6356C587.457 74.4564 588.223 73.2685 588.998 72.0893C591.124 72.8812 593.259 73.6558 595.385 74.4478C596.995 73.4234 599.371 72.1753 602.445 71.5384C608.015 70.3763 612.466 71.9343 612.595 71.4179Z" fill="#121212"/>
<path d="M607.774 116.04C612.603 113.372 617.424 110.703 622.254 108.043C626.954 110.497 631.646 112.941 636.338 115.403C638.189 122.711 640.04 130.027 641.899 137.335C640.35 138.454 638.8 139.573 637.242 140.692L608.161 140.305C606.482 139.41 604.804 138.497 603.116 137.594C604.666 130.406 606.215 123.236 607.774 116.049V116.04Z" fill="#121212"/>
<path d="M607.567 98.2049C607.55 95.2008 607.524 92.2054 607.507 89.2099C609.22 88.0651 610.933 86.9289 612.638 85.7927C615.22 85.8099 617.812 85.8357 620.394 85.8529C620.403 84.777 620.412 83.701 620.429 82.625L624.441 82.5648V85.7927C627.281 85.7324 630.131 85.6635 632.972 85.6033L637.113 88.9603L637.302 97.7315C634.9 95.769 632.507 93.8236 630.097 91.8611C628.943 92.1451 627.789 92.4206 626.644 92.696C626.687 96.1993 626.739 99.7113 626.774 103.206C625.353 105.358 623.933 107.51 622.512 109.653C620.962 107.544 619.413 105.435 617.855 103.326C617.837 99.7629 617.812 96.1907 617.794 92.6185C616.658 92.3431 615.539 92.0849 614.402 91.8094C612.138 93.9441 609.857 96.0616 607.593 98.1963H607.567V98.2049Z" fill="#121212"/>
<path d="M650.052 31.4869C655.493 36.9872 662.148 44.9234 667.872 55.597C671.454 62.2851 673.873 68.5859 675.534 73.9743" stroke="white" stroke-width="3" stroke-miterlimit="10"/>
<path d="M593.225 70.1956C594.378 70.1956 595.308 69.2659 595.308 68.1125C595.308 66.9591 594.378 66.0294 593.225 66.0294C592.071 66.0294 591.141 66.9591 591.141 68.1125C591.141 69.2659 592.071 70.1956 593.225 70.1956Z" fill="#E11E24"/>
<path d="M675.173 53.9271C679.607 52.1367 684.049 50.3635 688.482 48.5731C686.718 51.8698 684.953 55.1494 683.188 58.4461C680.519 56.9397 677.842 55.4334 675.182 53.9271H675.173Z" fill="#121212"/>
<path d="M527.418 64.9449H531.464V26.2448C532.265 25.5304 533.074 24.8073 533.874 24.0929H548.432C551.187 27.1658 553.95 30.2301 556.705 33.2945C557.394 32.3476 558.083 31.4008 558.771 30.4539C556.189 27.5532 553.597 24.661 551.015 21.7602V6.02537C551.876 5.2765 552.737 4.52764 553.597 3.79598L591.597 3.7013V0C578.305 0.137723 565.004 0.284053 551.712 0.430384C543.671 8.60767 535.622 16.7677 527.59 24.945C527.53 38.2697 527.478 51.603 527.418 64.9277H527.426V64.9449H527.418Z" fill="#E11E24"/>
<path d="M718.527 64.9449H714.481V26.2448C713.681 25.5304 712.871 24.8073 712.071 24.0929H697.513C694.758 27.1658 691.995 30.2301 689.24 33.2945C688.551 32.3476 687.862 31.4008 687.174 30.4539C689.756 27.5532 692.348 24.661 694.93 21.7602V6.02537C694.069 5.2765 693.209 4.52764 692.348 3.79598C679.684 3.76155 667.02 3.73573 654.348 3.7013V0C667.64 0.137723 680.941 0.284053 694.242 0.430384C702.282 8.60767 710.332 16.7677 718.364 24.945C718.424 38.2697 718.476 51.603 718.536 64.9277H718.527V64.9449Z" fill="#E11E24"/>
<path d="M718.527 106.055H714.481V144.755C713.681 145.47 712.871 146.193 712.071 146.907H697.513C694.758 143.834 691.995 140.77 689.24 137.706C688.551 138.652 687.862 139.591 687.174 140.546C689.756 143.447 692.348 146.339 694.93 149.24V164.975C694.069 165.723 693.209 166.472 692.348 167.213C679.684 167.238 667.02 167.273 654.348 167.299V171C667.64 170.862 680.941 170.716 694.242 170.561C702.282 162.384 710.332 154.224 718.364 146.046C718.424 132.713 718.476 119.388 718.536 106.064H718.527V106.055Z" fill="#E11E24"/>
<path d="M529.226 106.055H533.272V144.755C534.072 145.47 534.882 146.193 535.682 146.907H550.24C552.995 143.834 555.758 140.77 558.513 137.706C559.202 138.652 559.891 139.591 560.579 140.546C557.997 143.447 555.405 146.339 552.823 149.24V164.975C553.684 165.723 554.544 166.472 555.405 167.213C568.069 167.238 580.733 167.273 593.405 167.299V171C580.113 170.862 566.812 170.716 553.52 170.561C545.479 162.384 537.43 154.224 529.398 146.046C529.338 132.713 529.286 119.388 529.226 106.064H529.234L529.226 106.055Z" fill="#E11E24"/>
<path d="M85.5725 51.9739V70.4875H19.1555V51.9739H85.5725Z" fill="#E11E24" stroke="white"/>
<path d="M18.1553 71.1877V103.526H85.3818L76.5293 122.038H18.8682L0.5 102.824V52.72L18.1553 71.1877Z" fill="#008CD1" stroke="white"/>
<path d="M186.28 94.2375V102.823L167.809 122.038H91.7805V103.526H168.521V94.2375H186.28Z" fill="#008CD1" stroke="white"/>
<path d="M109.436 51.9739V77.0139H168.521V51.9739H186.28V76.2942L167.826 93.2375H110.132L91.7805 76.2942V51.9739H109.436Z" fill="#008CD1" stroke="white"/>
<path d="M286.866 51.9739V76.3108L274.739 88.8977L274.286 89.3665L274.857 89.6819L286.866 96.3225V122.038H221.663V103.526H269.108V95.5276H212.554V122.038H192.367V77.0139H269.108V70.4875H210.737L193.037 51.9739H286.866Z" fill="#008CD1" stroke="white"/>
<path d="M386.779 51.9739L368.981 70.4875H311.61V51.9739H386.779Z" fill="#008CD1" stroke="white"/>
<path d="M310.609 71.1877V76.9104H379.169L365.795 95.5276H310.609V103.526H379.541V122.038H311.322L292.954 102.824V52.72L310.609 71.1877Z" fill="#008CD1" stroke="white"/>
<path d="M487.937 51.9739V95.5276H454.51L455.924 96.4465L494.963 121.823H465.162L422.6 95.6018L422.479 95.5276H413.728V122.038H393.541V77.0139H470.281V70.4875H411.91L394.211 51.9739H487.937Z" fill="#008CD1" stroke="white"/>
<path d="M827.705 51.9739V70.4875H766.831L748.07 51.9739H827.705Z" fill="#008CD1" stroke="white"/>
<path d="M847.592 102.816L828.002 122.038H778.412V103.526H828.705V71.1965L847.592 52.6643V102.816Z" fill="#008CD1" stroke="white"/>
<path d="M768.812 77.0136V122.03H747.351V77.0136H768.812Z" fill="#008CD1" stroke="white"/>
<path d="M934.742 51.9739L954.119 71.1956L954.228 121.341L935.448 102.816V70.4875H872.756V103.526H934.448V122.038H873.461L853.981 102.815V51.9739H934.742Z" fill="#008CD1" stroke="white"/>
<path d="M1060.76 76.9103L1060.86 121.339L1042.09 102.815V95.5275H999.524V76.9103H1060.76Z" fill="#E11E24" stroke="white"/>
<path d="M1041.28 51.9739L1050.66 70.4875H979.395V103.526H1041.09V122.038H980.1L960.62 102.815V51.9739H1041.28Z" fill="#008CD1" stroke="white"/>
<path d="M1167.4 76.9103L1167.5 121.339L1148.73 102.815V95.5275H1106.16V76.9103H1167.4Z" fill="#E11E24" stroke="white"/>
<path d="M1147.92 51.9739L1157.3 70.4875H1086.03V103.526H1147.73V122.038H1086.74L1067.26 102.815V51.9739H1147.92Z" fill="#008CD1" stroke="white"/>
<path d="M188.346 144.153C188.174 144.153 188.088 144.092 188.088 143.972C188.088 143.92 190.034 139.539 193.933 130.828C194.011 130.656 194.166 130.57 194.39 130.57H201.561C201.716 130.57 201.802 130.63 201.802 130.751C201.802 130.802 199.856 135.183 195.956 143.894C195.905 144.067 195.75 144.153 195.5 144.153H188.355H188.346ZM204.54 144.153C204.419 144.153 204.342 144.118 204.299 144.049L200.02 137.473L200.003 137.335L200.734 135.709C200.777 135.614 200.846 135.554 200.95 135.511L211.762 130.621C211.84 130.578 211.917 130.561 212.004 130.561H216.799C217.014 130.561 217.117 130.613 217.117 130.716C217.117 130.819 217.023 130.923 216.825 131.009L206.967 135.485C210.712 141.011 212.589 143.8 212.589 143.843C212.589 144.041 212.434 144.135 212.115 144.135H204.548L204.54 144.153Z" fill="white"/>
<path d="M233.69 144.153C233.535 144.153 233.448 144.092 233.448 143.972C233.724 143.335 233.974 142.758 234.197 142.233C234.421 141.708 234.688 141.097 234.989 140.408C235.291 139.72 235.609 139.005 235.936 138.256C236.264 137.508 236.599 136.759 236.926 136.01C237.254 135.261 237.572 134.547 237.873 133.875L227.422 143.894C227.371 144.067 227.216 144.153 226.966 144.153H219.821C219.648 144.153 219.562 144.092 219.562 143.972C219.562 143.92 221.508 139.539 225.399 130.828C225.477 130.656 225.632 130.57 225.855 130.57H233.027C233.182 130.57 233.268 130.63 233.268 130.751C233.001 131.37 232.76 131.93 232.536 132.42C232.312 132.92 232.054 133.488 231.77 134.133C231.486 134.779 231.193 135.442 230.892 136.113C230.59 136.785 230.289 137.456 229.996 138.11C229.704 138.764 229.445 139.367 229.204 139.892L239.26 130.828L239.277 130.811V130.794C239.346 130.725 239.406 130.673 239.475 130.639C239.544 130.604 239.63 130.578 239.733 130.578H246.878C247.033 130.578 247.119 130.639 247.119 130.759C247.119 130.802 245.182 135.183 241.3 143.903C241.222 144.075 241.059 144.161 240.826 144.161H233.681L233.69 144.153Z" fill="white"/>
<path d="M249.926 144.153C249.754 144.153 249.668 144.092 249.668 143.972C249.668 143.92 251.613 139.539 255.505 130.828C255.556 130.656 255.72 130.57 255.978 130.57H277.147L276.114 132.902H262.409L258.449 141.811H262.504C263.201 141.811 263.864 141.519 264.484 140.942C265.104 140.348 265.413 139.703 265.413 139.005C265.413 138.308 265.017 137.938 264.225 137.938H261.669C261.488 137.938 261.393 137.878 261.393 137.757C261.41 137.731 261.41 137.706 261.41 137.68L262.22 135.838C262.297 135.666 262.461 135.579 262.71 135.579H265.267C266.386 135.579 267.454 135.605 268.452 135.666C269.46 135.726 270.338 135.855 271.087 136.061C271.836 136.268 272.438 136.569 272.877 136.965C273.316 137.361 273.54 137.903 273.54 138.592C273.54 139.057 273.42 139.539 273.187 140.055C272.671 141.2 271.819 142.173 270.613 142.965C269.399 143.757 268.168 144.153 266.929 144.153H249.9H249.926Z" fill="white"/>
<path d="M283.682 144.153C282.468 144.153 281.521 143.86 280.832 143.257C280.092 142.595 279.721 141.691 279.721 140.529C279.721 139.556 279.98 138.497 280.496 137.361C281.357 135.45 282.58 133.867 284.181 132.627C285.937 131.258 287.788 130.57 289.742 130.57H303.146C303.319 130.57 303.405 130.63 303.405 130.751C303.405 130.794 303.405 130.819 303.387 130.828L302.578 132.67C302.509 132.825 302.354 132.911 302.105 132.911H293.1C292.161 132.911 291.395 133.221 290.801 133.841C290.379 134.262 289.94 134.985 289.493 136.018L288.546 138.179C288.029 139.315 287.771 140.15 287.771 140.675C287.771 141.441 288.227 141.82 289.14 141.82H298.145C298.325 141.82 298.42 141.88 298.42 142.001C298.403 142.018 298.403 142.044 298.403 142.078L297.594 143.903C297.516 144.075 297.353 144.161 297.103 144.161H283.699L283.682 144.153ZM290.336 137.938C290.181 137.938 290.095 137.878 290.095 137.757C290.095 137.731 290.371 137.094 290.93 135.838C291.008 135.666 291.163 135.579 291.387 135.579H300.934C301.106 135.579 301.192 135.648 301.192 135.777C301.192 135.82 300.908 136.449 300.34 137.68C300.288 137.852 300.133 137.938 299.884 137.938H290.336Z" fill="white"/>
<path d="M317.842 137.938C317.67 137.938 317.584 137.878 317.584 137.757C317.584 137.714 317.584 137.688 317.601 137.68L318.41 135.838C318.462 135.666 318.625 135.579 318.883 135.579H321.44C321.94 135.579 322.439 135.468 322.921 135.244C323.472 134.977 323.842 134.641 324.014 134.237C324.083 134.039 324.118 133.892 324.118 133.798C324.118 133.204 323.618 132.902 322.628 132.902H318.574L313.684 143.894C313.606 144.067 313.443 144.153 313.21 144.153H306.099C305.918 144.153 305.824 144.092 305.824 143.972C305.824 143.92 307.769 139.539 311.661 130.828C311.738 130.656 311.902 130.57 312.134 130.57H329.145C330.015 130.57 330.721 130.725 331.263 131.043C331.952 131.448 332.296 132.05 332.296 132.842C332.296 133.875 331.823 134.848 330.867 135.769C329.429 137.206 327.604 137.929 325.383 137.929H317.842V137.938Z" fill="white"/>
<path d="M363.753 144.153C363.633 144.153 363.555 144.118 363.512 144.049L357.865 135.338L348.085 141.811H358.579C358.751 141.811 358.837 141.872 358.837 141.992C358.837 142.018 358.562 142.655 358.002 143.894C357.951 144.067 357.796 144.153 357.546 144.153H342.343C342.127 144.153 342.024 144.101 342.024 143.998C342.024 143.929 342.093 143.843 342.239 143.74L362.238 130.673C362.341 130.604 362.453 130.57 362.574 130.57H364.674C364.778 130.57 364.864 130.604 364.933 130.673C370.373 139.41 373.094 143.808 373.094 143.86C373.094 144.058 372.939 144.153 372.62 144.153H363.753Z" fill="white"/>
<path d="M387.514 137.938C387.342 137.938 387.256 137.878 387.256 137.757C387.256 137.714 387.256 137.688 387.273 137.68L388.082 135.838C388.134 135.666 388.297 135.579 388.556 135.579H391.112C391.612 135.579 392.111 135.468 392.593 135.244C393.144 134.977 393.514 134.641 393.687 134.237C393.755 134.039 393.79 133.892 393.79 133.798C393.79 133.204 393.291 132.902 392.3 132.902H388.246L383.356 143.894C383.278 144.067 383.115 144.153 382.882 144.153H375.771C375.591 144.153 375.496 144.092 375.496 143.972C375.496 143.92 377.441 139.539 381.333 130.828C381.41 130.656 381.574 130.57 381.806 130.57H398.817C399.687 130.57 400.393 130.725 400.935 131.043C401.624 131.448 401.968 132.05 401.968 132.842C401.968 133.875 401.495 134.848 400.539 135.769C399.102 137.206 397.276 137.929 395.055 137.929H387.514V137.938Z" fill="white"/>
<path d="M407.831 144.153C406.617 144.153 405.67 143.86 404.981 143.257C404.241 142.595 403.871 141.691 403.871 140.529C403.871 139.556 404.129 138.497 404.646 137.361C405.507 135.45 406.729 133.867 408.33 132.627C410.086 131.258 411.937 130.57 413.892 130.57H427.296C427.468 130.57 427.554 130.63 427.554 130.751C427.554 130.794 427.554 130.819 427.537 130.828L426.728 132.67C426.659 132.825 426.504 132.911 426.254 132.911H417.249C416.311 132.911 415.545 133.221 414.951 133.841C414.529 134.262 414.09 134.985 413.642 136.018L412.695 138.179C412.178 139.315 411.92 140.15 411.92 140.675C411.92 141.441 412.376 141.82 413.289 141.82H422.294C422.475 141.82 422.569 141.88 422.569 142.001C422.552 142.018 422.552 142.044 422.552 142.078L421.743 143.903C421.666 144.075 421.502 144.161 421.252 144.161H407.848L407.831 144.153ZM414.486 137.938C414.331 137.938 414.245 137.878 414.245 137.757C414.245 137.731 414.52 137.094 415.08 135.838C415.157 135.666 415.312 135.579 415.536 135.579H425.083C425.255 135.579 425.342 135.648 425.342 135.777C425.342 135.82 425.057 136.449 424.489 137.68C424.438 137.852 424.283 137.938 424.033 137.938H414.486Z" fill="white"/>
<path d="M444.109 144.153C443.954 144.153 443.868 144.092 443.868 143.972C443.868 143.946 444.755 141.932 446.537 137.938H440.493L437.842 143.894C437.79 144.067 437.635 144.153 437.385 144.153H430.24C430.068 144.153 429.982 144.092 429.982 143.972C429.982 143.92 431.927 139.539 435.819 130.828C435.896 130.656 436.051 130.57 436.275 130.57H443.446C443.601 130.57 443.687 130.63 443.687 130.751C443.687 130.794 442.973 132.403 441.552 135.579H447.57L449.688 130.828C449.765 130.656 449.929 130.57 450.161 130.57H457.306C457.461 130.57 457.547 130.63 457.547 130.751C457.547 130.794 455.61 135.175 451.728 143.894C451.65 144.067 451.487 144.153 451.254 144.153H444.109Z" fill="white"/>
<path d="M480.912 144.153C480.792 144.153 480.714 144.118 480.671 144.049L475.024 135.338L465.244 141.811H475.738C475.91 141.811 475.997 141.872 475.997 141.992C475.997 142.018 475.721 142.655 475.162 143.894C475.11 144.067 474.955 144.153 474.705 144.153H459.502C459.287 144.153 459.183 144.101 459.183 143.998C459.183 143.929 459.252 143.843 459.399 143.74L479.397 130.673C479.5 130.604 479.612 130.57 479.733 130.57H481.833C481.937 130.57 482.023 130.604 482.092 130.673C487.533 139.41 490.253 143.808 490.253 143.86C490.253 144.058 490.098 144.153 489.779 144.153H480.912Z" fill="white"/>
<path d="M752.214 146.167C751 146.167 750.053 145.874 749.365 145.272C748.624 144.609 748.254 143.705 748.254 142.543C748.254 141.579 748.504 140.52 749.003 139.376C749.89 137.465 751.121 135.881 752.705 134.641C754.461 133.273 756.312 132.584 758.249 132.584H771.67C771.843 132.584 771.929 132.644 771.929 132.765C771.929 132.808 771.929 132.834 771.912 132.842L771.102 134.684C771.025 134.839 770.861 134.925 770.629 134.925H761.598C760.66 134.925 759.902 135.235 759.325 135.855C758.903 136.277 758.464 137 758.017 138.033L757.044 140.193C756.545 141.338 756.295 142.173 756.295 142.69C756.295 143.456 756.743 143.834 757.638 143.834H766.669C766.841 143.834 766.927 143.895 766.927 144.015C766.927 144.058 766.927 144.084 766.91 144.093L766.101 145.917C766.023 146.09 765.859 146.176 765.627 146.176H752.223L752.214 146.167Z" fill="white"/>
<path d="M783.499 145.909C783.422 146.081 783.267 146.167 783.043 146.167H775.872C775.717 146.167 775.631 146.107 775.631 145.986C775.631 145.978 777.266 142.285 780.538 134.917H775.011C774.83 134.917 774.735 134.856 774.735 134.736C774.735 134.727 775.011 134.09 775.57 132.834C775.648 132.661 775.811 132.575 776.044 132.575H795.156C795.328 132.575 795.414 132.636 795.414 132.756C795.414 132.799 795.138 133.436 794.579 134.676C794.501 134.831 794.338 134.917 794.105 134.917H788.38L783.491 145.909H783.499Z" fill="white"/>
<path d="M809.145 139.952C808.973 139.952 808.887 139.892 808.887 139.771C808.887 139.728 808.887 139.703 808.904 139.694L809.713 137.852C809.765 137.68 809.929 137.594 810.187 137.594H812.744C813.243 137.594 813.742 137.482 814.224 137.258C814.775 136.991 815.146 136.655 815.309 136.251C815.378 136.053 815.412 135.907 815.412 135.812C815.412 135.218 814.913 134.917 813.932 134.917H809.877L804.987 145.909C804.91 146.081 804.746 146.167 804.514 146.167H797.403C797.222 146.167 797.127 146.107 797.127 145.986C797.127 145.934 799.073 141.553 802.973 132.842C803.05 132.67 803.214 132.584 803.446 132.584H820.457C821.327 132.584 822.033 132.739 822.575 133.057C823.264 133.462 823.608 134.065 823.608 134.856C823.608 135.889 823.135 136.862 822.179 137.783C820.741 139.221 818.916 139.944 816.695 139.944H809.154L809.145 139.952Z" fill="white"/>
<path d="M839.474 146.167C839.319 146.167 839.233 146.107 839.233 145.986C839.509 145.349 839.759 144.772 839.982 144.247C840.206 143.722 840.473 143.111 840.774 142.423C841.076 141.734 841.394 141.02 841.721 140.271C842.048 139.522 842.384 138.773 842.711 138.024C843.039 137.275 843.357 136.561 843.658 135.889L833.207 145.909C833.155 146.081 833 146.167 832.751 146.167H825.605C825.433 146.167 825.347 146.107 825.347 145.986C825.347 145.934 827.293 141.553 831.184 132.842C831.261 132.67 831.416 132.584 831.64 132.584H838.812C838.966 132.584 839.053 132.644 839.053 132.765C838.786 133.385 838.545 133.944 838.321 134.435C838.097 134.934 837.839 135.502 837.555 136.148C837.271 136.793 836.978 137.456 836.677 138.127C836.375 138.799 836.074 139.47 835.781 140.124C835.488 140.787 835.23 141.381 834.989 141.906L845.044 132.842L845.062 132.825V132.808C845.13 132.739 845.191 132.687 845.26 132.653C845.329 132.61 845.415 132.593 845.518 132.593H852.663C852.818 132.593 852.904 132.653 852.904 132.773C852.904 132.816 850.967 137.198 847.085 145.917C847.007 146.089 846.844 146.176 846.611 146.176H839.466L839.474 146.167Z" fill="white"/>
<path d="M864.587 145.909C864.509 146.081 864.354 146.167 864.13 146.167H856.959C856.804 146.167 856.718 146.107 856.718 145.986C856.718 145.978 858.354 142.285 861.625 134.917H856.098C855.917 134.917 855.823 134.856 855.823 134.736C855.823 134.727 856.098 134.09 856.658 132.834C856.735 132.661 856.899 132.575 857.131 132.575H876.243C876.415 132.575 876.501 132.636 876.501 132.756C876.501 132.799 876.226 133.436 875.666 134.676C875.589 134.831 875.425 134.917 875.193 134.917H869.468L864.578 145.909H864.587Z" fill="white"/>
<path d="M907.511 139.952C907.339 139.952 907.253 139.892 907.253 139.771C907.253 139.728 907.253 139.703 907.27 139.694L908.079 137.852C908.131 137.68 908.294 137.594 908.553 137.594H909.68C910.18 137.594 910.679 137.482 911.17 137.258C911.721 136.991 912.091 136.655 912.254 136.251C912.323 136.053 912.358 135.907 912.358 135.812C912.358 135.218 911.858 134.917 910.877 134.917H908.243L903.353 145.909C903.275 146.081 903.112 146.167 902.879 146.167H895.768C895.587 146.167 895.493 146.107 895.493 145.986C896.379 143.963 897.266 141.958 898.162 139.952H890.121C889.234 139.952 888.528 139.797 888.003 139.479C887.314 139.074 886.97 138.472 886.97 137.68C886.97 136.664 887.443 135.691 888.399 134.753C889.837 133.316 891.662 132.593 893.883 132.593H899.806C899.978 132.593 900.064 132.653 900.064 132.773C900.064 132.816 900.064 132.842 900.047 132.851L899.238 134.693C899.186 134.865 899.022 134.951 898.764 134.951H897.834C897.335 134.951 896.836 135.063 896.345 135.287C895.794 135.554 895.424 135.889 895.26 136.294C895.192 136.492 895.157 136.638 895.157 136.733C895.157 137.327 895.656 137.628 896.646 137.628H899.083L899.22 137.611L901.338 132.859C901.416 132.687 901.579 132.601 901.812 132.601H917.394C918.263 132.601 918.969 132.756 919.512 133.075C920.2 133.479 920.545 134.082 920.545 134.874C920.545 135.907 920.071 136.879 919.116 137.8C917.678 139.238 915.853 139.961 913.632 139.961H907.511V139.952Z" fill="white"/>
<path d="M936.402 146.167H927.707C927.38 146.167 927.208 146.064 927.208 145.874L930.419 141.897L922.654 133.006C922.585 132.937 922.542 132.894 922.508 132.859C922.473 132.825 922.456 132.791 922.456 132.748C922.456 132.644 922.559 132.593 922.774 132.593H925.305C925.374 132.593 925.435 132.593 925.495 132.61C925.555 132.627 925.607 132.653 925.641 132.687L932.175 139.952L937.995 132.687C938.038 132.618 938.116 132.584 938.236 132.584H947.103C947.422 132.584 947.577 132.687 947.577 132.885L936.609 146.072C936.566 146.141 936.497 146.176 936.394 146.176L936.402 146.167Z" fill="white"/>
<path d="M975.926 139.513C977.062 141.347 977.949 142.784 978.603 143.826H981.617C981.789 143.826 981.875 143.886 981.875 144.006C981.875 144.032 981.599 144.669 981.04 145.909C980.988 146.081 980.833 146.167 980.584 146.167H949.101C948.885 146.167 948.782 146.115 948.782 146.012C948.782 145.943 948.851 145.857 948.997 145.754L968.996 132.687C969.099 132.618 969.211 132.584 969.332 132.584H971.432C971.536 132.584 971.622 132.618 971.69 132.687C973.378 135.407 974.79 137.68 975.926 139.522V139.513ZM954.834 143.834H968.815L964.614 137.361L954.834 143.834Z" fill="white"/>
</g>
<defs>
<clipPath id="clip0_236_5">
<rect width="1168" height="171" fill="white"/>
</clipPath>
</defs>
</svg>
