<svg xmlns="http://www.w3.org/2000/svg" width="24" height="24" viewBox="0 0 24 24" fill="currentColor">
  <path d="M15.684 0H8.316C3.728 0 0 3.728 0 8.316v7.368C0 20.272 3.728 24 8.316 24h7.368C20.272 24 24 20.272 24 15.684V8.316C24 3.728 20.272 0 15.684 0zm3.692 17.123h-1.744c-.66 0-.864-.525-2.05-1.727-1.033-1.02-1.49-1.135-1.744-1.135-.356 0-.458.102-.458.593v1.244c0 .661-.189.882-.764.882-1.36 0-2.888-1.457-3.956-3.928C8.526 10.469 7.912 8.316 7.05 8.316c-.297 0-.458.102-.458.593v.627c0 .356.102.458.458.458h.627c.66 0 .864.525 2.05 1.727 1.033 1.02 1.49 1.135 1.744 1.135.356 0 .458-.102.458-.593V9.83c0-.661.189-.882.764-.882 1.36 0 2.888 1.457 3.956 3.928.627 1.457 1.241 3.61 2.103 3.61.297 0 .458-.102.458-.593v-.627c0-.356-.102-.458-.458-.458z"/>
</svg>